<?xml version="1.0" standalone="no"?>
<!DOCTYPE svg PUBLIC "-//W3C//DTD SVG 1.1//EN" "http://www.w3.org/Graphics/SVG/1.1/DTD/svg11.dtd" >
<svg xmlns="http://www.w3.org/2000/svg" xmlns:xlink="http://www.w3.org/1999/xlink" version="1.1">
<metadata>
Created by FontForge 20170731 at Tue Jun 14 17:48:22 2016
 By Aleksey,,,
(c)2016 Richard Miller
</metadata>
<defs>
<font id="TacticSans-Med" horiz-adv-x="752" >
  <font-face 
    font-family="Tactic Sans Medium"
    font-weight="400"
    font-stretch="normal"
    units-per-em="1000"
    panose-1="0 0 6 0 0 0 0 0 0 0"
    ascent="814"
    descent="-186"
    x-height="528"
    cap-height="700"
    bbox="-896 -196 1238 872"
    underline-thickness="50"
    underline-position="-200"
    unicode-range="U+0020-FB02"
  />
<missing-glyph horiz-adv-x="720" 
d="M10 700h700v-700h-700v700zM90 181l107 -107l169 169l169 -169l107 107l-169 169l169 169l-107 107l-169 -169l-169 169l-107 -107l169 -169z" />
    <glyph glyph-name="ellipsis" unicode="&#x2e;&#x2e;&#x2e;" horiz-adv-x="956" 
d="M64 0v140h148v-140h-148zM404 0v140h148v-140h-148zM744 0v140h148v-140h-148z" />
    <glyph glyph-name="blackbox.liga" unicode="[&#x2b;]" horiz-adv-x="940" 
d="M120 700h700v-700h-700v700z" />
    <glyph glyph-name="checkbox.liga" unicode="[]" horiz-adv-x="940" 
d="M120 700h700v-700h-700v700zM190 633v-566h560v566h-560z" />
    <glyph glyph-name="checkround.liga" unicode="&#x28;&#x29;" horiz-adv-x="940" 
d="M470 -10q-151 0 -255.5 104.5t-104.5 255.5t104.5 255.5t255.5 104.5t255.5 -104.5t104.5 -255.5t-104.5 -255.5t-255.5 -104.5zM470 57q122 0 206 84.5t84 208.5t-84 208.5t-206 84.5t-206 -84.5t-84 -208.5t84 -208.5t206 -84.5z" />
    <glyph glyph-name="checkstar.liga" unicode="&#x7b;&#x7d;" horiz-adv-x="940" 
d="M470 720l92 -283h297l-240 -174l91 -283l-240 175l-240 -175l91 283l-240 174h297zM470 544l-53 -161h-169l138 -99l-53 -162l137 100l136 -100l-52 162l137 99h-169z" />
    <glyph glyph-name="blackround.liga" unicode="&#x28;&#x2b;&#x29;" horiz-adv-x="940" 
d="M470 -10q-151 0 -255.5 104.5t-104.5 255.5t104.5 255.5t255.5 104.5t255.5 -104.5t104.5 -255.5t-104.5 -255.5t-255.5 -104.5z" />
    <glyph glyph-name="filledstar.liga" unicode="&#x7b;&#x2b;&#x7d;" horiz-adv-x="940" 
d="M470 720l92 -283h297l-240 -174l91 -283l-240 175l-240 -175l91 283l-240 174h297z" />
    <glyph glyph-name="ff.liga" unicode="ff" horiz-adv-x="864" 
d="M700 608q-38 0 -53 -15t-15 -53v-75h216v-97h-216v-368h-122v368h-264v-368h-122v368h-108v97h108v93q0 74 34.5 108t107.5 34h164v-92h-116q-38 0 -53 -15t-15 -53v-75h264v93q0 74 34.5 108t107.5 34h196v-92h-148z" />
    <glyph glyph-name=".notdef" horiz-adv-x="720" 
d="M10 700h700v-700h-700v700zM90 181l107 -107l169 169l169 -169l107 107l-169 169l169 169l-107 107l-169 -169l-169 169l-107 -107l169 -169z" />
    <glyph glyph-name=".null" horiz-adv-x="0" 
 />
    <glyph glyph-name="nonmarkingreturn" horiz-adv-x="333" 
 />
    <glyph glyph-name="space" unicode=" " horiz-adv-x="300" 
 />
    <glyph glyph-name="exclam" unicode="!" horiz-adv-x="276" 
d="M68 700h140l-24 -496h-92zM64 0v128h148v-128h-148z" />
    <glyph glyph-name="quotedbl" unicode="&#x22;" horiz-adv-x="432" 
d="M64 700h104v-292h-104v292zM264 700h104v-292h-104v292z" />
    <glyph glyph-name="numbersign" unicode="#" 
d="M704 387h-129l-28 -154h115v-80h-129l-27 -153h-95l27 153h-180l-27 -153h-95l27 153h-115v80h129l28 154h-115v80h129l27 153h95l-27 -153h180l27 153h95l-27 -153h115v-80zM452 233l28 154h-180l-28 -154h180z" />
    <glyph glyph-name="dollar" unicode="$" 
d="M548 397q75 -8 108.5 -39t33.5 -103v-113q0 -73 -35 -107.5t-107 -34.5h-130v-100h-85v100h-129q-72 0 -107 34.5t-35 107.5v63h120v-37q0 -38 15 -53t53 -15h248q38 0 53 15t15 53v59q0 37 -14.5 50.5t-53.5 17.5l-284 31q-75 9 -108.5 40t-33.5 102v90q0 73 35 107.5
t107 34.5h119v100h85v-100h116q72 0 107 -34.5t35 -107.5v-49h-120v23q0 38 -15 53t-53 15h-224q-38 0 -53 -15t-15 -53v-36q0 -36 15 -50t53 -18z" />
    <glyph glyph-name="percent" unicode="%" horiz-adv-x="860" 
d="M146 306q-104 0 -104 104v106q0 54 25.5 79t78.5 25h120q53 0 78.5 -25t25.5 -79v-106q0 -104 -104 -104h-120zM130 0l522 620h78l-522 -620h-78zM167 372h78q28 0 40 12t12 40v78q0 28 -11.5 40t-40.5 12h-78q-29 0 -40.5 -12t-11.5 -40v-78q0 -28 12 -40t40 -12zM594 0
q-104 0 -104 104v106q0 54 25.5 79t78.5 25h120q53 0 78.5 -25t25.5 -79v-106q0 -104 -104 -104h-120zM615 66h78q28 0 40 12t12 40v78q0 28 -11.5 40t-40.5 12h-78q-29 0 -40.5 -12t-11.5 -40v-78q0 -28 12 -40t40 -12z" />
    <glyph glyph-name="ampersand" unicode="&#x26;" horiz-adv-x="812" 
d="M276 407h520v-87h-100v-178q0 -73 -35 -107.5t-107 -34.5h-358q-72 0 -107 34.5t-35 107.5v97q0 111 89 130q-59 28 -59 120v69q0 73 35 107.5t107 34.5h298q72 0 107 -34.5t35 -107.5v-47h-120v26q0 38 -15 53t-53 15h-202q-38 0 -53 -15t-15 -53v-62q0 -37 15 -52.5
t53 -15.5zM576 163v157h-330q-38 0 -53 -15t-15 -53v-89q0 -38 15 -53t53 -15h262q38 0 53 15t15 53z" />
    <glyph glyph-name="quotesingle" unicode="'" horiz-adv-x="232" 
d="M64 700h104v-292h-104v292z" />
    <glyph glyph-name="parenleft" unicode="(" horiz-adv-x="416" 
d="M294 -100q-230 0 -230 230v440q0 230 230 230h90v-98h-75q-135 0 -135 -135v-434q0 -135 135 -135h75v-98h-90z" />
    <glyph glyph-name="parenright" unicode=")" horiz-adv-x="416" 
d="M122 800q230 0 230 -230v-440q0 -230 -230 -230h-90v98h75q135 0 135 135v434q0 135 -135 135h-75v98h90z" />
    <glyph glyph-name="asterisk" unicode="*" horiz-adv-x="458" 
d="M414 536l-133 -35l87 -107l-64 -47l-75 117l-75 -117l-64 47l87 107l-134 35l25 76l129 -50l-8 138h80l-8 -138l128 50z" />
    <glyph glyph-name="plus" unicode="+" 
d="M684 402v-104h-253v-252h-110v252h-253v104h253v252h110v-252h253z" />
    <glyph glyph-name="comma" unicode="," horiz-adv-x="276" 
d="M64 -160l51 160h-51v140h148v-63q0 -53 -20 -97l-51 -140h-77z" />
    <glyph glyph-name="hyphen" unicode="-" horiz-adv-x="420" 
d="M48 402h324v-104h-324v104z" />
    <glyph glyph-name="period" unicode="." horiz-adv-x="276" 
d="M64 0v140h148v-140h-148z" />
    <glyph glyph-name="slash" unicode="/" horiz-adv-x="487" 
d="M394 800h87l-388 -900h-87z" />
    <glyph glyph-name="zero" unicode="0" 
d="M252 0q-96 0 -141 45t-45 141v328q0 96 45 141t141 45h248q96 0 141 -45t45 -141v-328q0 -96 -45 -141t-141 -45h-248zM290 106h172q55 0 77.5 22.5t22.5 77.5v288q0 55 -22.5 77.5t-77.5 22.5h-172q-55 0 -77.5 -22.5t-22.5 -77.5v-288q0 -55 22.5 -77.5t77.5 -22.5z
" />
    <glyph glyph-name="one" unicode="1" horiz-adv-x="692" 
d="M430 102h224v-102h-616v102h268v485l-238 -23v106l304 30h58v-598z" />
    <glyph glyph-name="two" unicode="2" 
d="M675 0h-609v215q0 71 33.5 103.5t108.5 44.5l286 46q38 6 53 21.5t15 52.5v48q0 37 -15 52.5t-53 15.5h-226q-38 0 -53 -15.5t-15 -52.5v-34h-120v61q0 73 35 107.5t107 34.5h322q72 0 107 -34.5t35 -107.5v-97q0 -71 -33.5 -103.5t-108.5 -44.5l-286 -46
q-38 -6 -53 -21.5t-15 -52.5v-88h485v-105z" />
    <glyph glyph-name="three" unicode="3" 
d="M611 366q77 -24 77 -127v-97q0 -73 -35 -107.5t-107 -34.5h-340q-72 0 -107 34.5t-35 107.5v85h120v-60q0 -38 15 -53t53 -15h244q38 0 53 15t15 53v82q0 38 -15 53t-53 15h-171v92h161q37 0 52.5 15.5t15.5 52.5v56q0 38 -15 53t-53 15h-224q-38 0 -53 -15t-15 -53v-52
h-120v77q0 73 35 107.5t107 34.5h320q72 0 107 -34.5t35 -107.5v-69q0 -98 -67 -123z" />
    <glyph glyph-name="four" unicode="4" horiz-adv-x="782" 
d="M744 260v-97h-152v-163h-120v163h-434v81l416 456h138v-440h152zM171 260h301v331z" />
    <glyph glyph-name="five" unicode="5" horiz-adv-x="722" 
d="M70 0v105h394q37 0 52.5 15.5t15.5 52.5v83q0 38 -15 53t-53 15h-394v376h556v-105h-432v-168h320q72 0 107 -34.5t35 -107.5v-143q0 -73 -35 -107.5t-107 -34.5h-444z" />
    <glyph glyph-name="six" unicode="6" 
d="M544 429q73 0 107.5 -34t34.5 -108v-145q0 -73 -35 -107.5t-107 -34.5h-336q-72 0 -107 34.5t-35 107.5v372q0 96 45 141t141 45h404v-105h-366q-55 0 -77.5 -22.5t-22.5 -77.5v-100q28 34 101 34h253zM562 169v92q0 38 -15 53t-53 15h-236q-38 0 -53 -15t-15 -53v-92
q0 -37 15 -52.5t53 -15.5h236q38 0 53 15.5t15 52.5z" />
    <glyph glyph-name="seven" unicode="7" horiz-adv-x="712" 
d="M38 700h636v-94l-253 -284q-32 -37 -42 -69t-10 -90v-163h-126v161q0 80 14.5 125t59.5 94l191 210h-470v110z" />
    <glyph glyph-name="eight" unicode="8" 
d="M611 366q77 -24 77 -127v-97q0 -73 -35 -107.5t-107 -34.5h-340q-72 0 -107 34.5t-35 107.5v97q0 103 77 127q-67 25 -67 123v69q0 73 35 107.5t107 34.5h320q72 0 107 -34.5t35 -107.5v-69q0 -98 -67 -123zM198 535v-60q0 -37 15 -52.5t53 -15.5h220q38 0 53 15.5
t15 52.5v60q0 38 -15 53t-53 15h-220q-38 0 -53 -15t-15 -53zM564 165v87q0 38 -15 53t-53 15h-240q-38 0 -53 -15t-15 -53v-87q0 -38 15 -53t53 -15h240q38 0 53 15t15 53z" />
    <glyph glyph-name="nine" unicode="9" 
d="M544 700q72 0 107 -34.5t35 -107.5v-372q0 -96 -45 -141t-141 -45h-404v105h366q55 0 77.5 22.5t22.5 77.5v93q-28 -34 -101 -34h-253q-72 0 -107 34.5t-35 107.5v152q0 73 35 107.5t107 34.5h336zM494 364q38 0 53 15t15 53v99q0 37 -15 52.5t-53 15.5h-236
q-38 0 -53 -15.5t-15 -52.5v-99q0 -38 15 -53t53 -15h236z" />
    <glyph glyph-name="colon" unicode=":" horiz-adv-x="276" 
d="M64 396v132h148v-132h-148zM64 0v132h148v-132h-148z" />
    <glyph glyph-name="semicolon" unicode=";" horiz-adv-x="276" 
d="M64 396v132h148v-132h-148zM64 -160l51 160h-51v132h148v-55q0 -54 -20 -97l-51 -140h-77z" />
    <glyph glyph-name="less" unicode="&#x3c;" 
d="M684 650v-109l-495 -190l495 -191v-110l-616 248v104z" />
    <glyph glyph-name="equal" unicode="=" 
d="M68 526h616v-100h-616v100zM68 274h616v-100h-616v100z" />
    <glyph glyph-name="greater" unicode="&#x3e;" 
d="M68 650l616 -248v-104l-616 -248v109l495 191l-495 190v110z" />
    <glyph glyph-name="question" unicode="?" horiz-adv-x="674" 
d="M247 192v75q0 64 23 92.5t90 44.5l83 21q35 9 49 24.5t14 49.5v34q0 36 -15 51t-52 15h-208q-37 0 -52 -15t-15 -51v-41h-120v66q0 73 35 107.5t107 34.5h302q72 0 107 -34.5t35 -107.5v-67q0 -66 -29.5 -100t-101.5 -52l-80 -21q-33 -8 -44 -23t-11 -49v-54h-117zM231 0
v116h148v-116h-148z" />
    <glyph glyph-name="at" unicode="@" horiz-adv-x="882" 
d="M641 700q96 0 141 -45t45 -141v-222q0 -65 -29 -93.5t-93 -28.5h-79q-72 0 -91 49l-12 -8q-39 -28 -67.5 -36.5t-79.5 -8.5h-52q-120 0 -97 121l23 131q11 63 42 89.5t90 26.5h50q50 0 78 -9.5t56 -37.5l3 -3l16 42h74l-42 -241q-4 -25 4 -36t31 -11h40q35 0 47.5 12
t12.5 47v212q0 68 -27.5 95.5t-95.5 27.5h-377q-68 0 -95.5 -27.5t-27.5 -95.5v-318q0 -68 27.5 -95.5t95.5 -27.5h511v-68h-522q-96 0 -141 45t-45 141v328q0 96 45 141t141 45h400zM501 263l25 17l25 142l-19 16q-27 23 -85 23h-49q-31 0 -43.5 -12t-17.5 -44l-19 -108
q-7 -33 2 -45.5t42 -12.5h51q53 0 88 24z" />
    <glyph glyph-name="A" unicode="A" horiz-adv-x="799" 
d="M656 0l-68 155h-379l-67 -155h-136l326 700h141l325 -700h-142zM252 252h294l-147 338z" />
    <glyph glyph-name="B" unicode="B" horiz-adv-x="762" 
d="M631 367q83 -21 83 -128v-97q0 -73 -35 -107.5t-107 -34.5h-508v700h488q72 0 107 -34.5t35 -107.5v-69q0 -94 -63 -122zM192 600v-192h306q38 0 53 15t15 53v56q0 38 -15 53t-53 15h-306zM586 168v83q0 38 -15 53t-53 15h-326v-219h326q38 0 53 15t15 53z" />
    <glyph glyph-name="C" unicode="C" horiz-adv-x="772" 
d="M241 0q-96 0 -141 45t-45 141v328q0 96 45 141t141 45h294q96 0 141 -45t45 -141v-74h-124v52q0 55 -22.5 77.5t-77.5 22.5h-214q-55 0 -77.5 -22.5t-22.5 -77.5v-284q0 -55 22.5 -77.5t77.5 -22.5h214q55 0 77.5 22.5t22.5 77.5v61h124v-83q0 -96 -45 -141t-141 -45
h-294z" />
    <glyph glyph-name="D" unicode="D" horiz-adv-x="799" 
d="M64 0v700h450q112 0 171 -58.5t59 -171.5v-240q0 -113 -59 -171.5t-171 -58.5h-450zM192 110h296q128 0 128 128v224q0 128 -128 128h-296v-480z" />
    <glyph glyph-name="E" unicode="E" horiz-adv-x="678" 
d="M192 107h454v-107h-582v700h572v-107h-444v-180h404v-99h-404v-207z" />
    <glyph glyph-name="F" unicode="F" horiz-adv-x="642" 
d="M626 588h-434v-199h394v-106h-394v-283h-128v700h562v-112z" />
    <glyph glyph-name="G" unicode="G" horiz-adv-x="799" 
d="M55 186v328q0 96 45 141t141 45h318q96 0 141 -45t45 -141v-42h-128v21q0 55 -22.5 77.5t-77.5 22.5h-234q-55 0 -77.5 -22.5t-22.5 -77.5v-289q0 -55 22.5 -77.5t77.5 -22.5h238q55 0 77.5 22.5t22.5 77.5v72h-204v99h328v-189q0 -96 -45 -141t-141 -45h-318
q-96 0 -141 45t-45 141z" />
    <glyph glyph-name="H" unicode="H" horiz-adv-x="788" 
d="M596 700h128v-700h-128v309h-404v-309h-128v700h128v-277h404v277z" />
    <glyph glyph-name="I" unicode="I" horiz-adv-x="268" 
d="M69 700h130v-700h-130v700z" />
    <glyph glyph-name="J" unicode="J" horiz-adv-x="704" 
d="M218 0q-96 0 -141 45t-45 141v82h124v-60q0 -55 22.5 -77.5t77.5 -22.5h164q55 0 77.5 22.5t22.5 77.5v492h128v-514q0 -96 -45 -141t-141 -45h-244z" />
    <glyph glyph-name="K" unicode="K" horiz-adv-x="750" 
d="M744 0h-189l-363 346v-346h-128v700h128v-328l358 328h190l-389 -338z" />
    <glyph glyph-name="L" unicode="L" horiz-adv-x="612" 
d="M192 114h404v-114h-532v700h128v-586z" />
    <glyph glyph-name="M" unicode="M" horiz-adv-x="908" 
d="M736 700h108v-700h-120v490l-236 -356h-68l-236 356v-490h-120v700h113l280 -431z" />
    <glyph glyph-name="N" unicode="N" horiz-adv-x="808" 
d="M620 700h124v-700h-102l-454 516v-516h-124v700h108l448 -508v508z" />
    <glyph glyph-name="O" unicode="O" horiz-adv-x="800" 
d="M241 0q-96 0 -141 45t-45 141v328q0 96 45 141t141 45h318q96 0 141 -45t45 -141v-328q0 -96 -45 -141t-141 -45h-318zM283 110h234q55 0 77.5 22.5t22.5 77.5v280q0 55 -22.5 77.5t-77.5 22.5h-234q-55 0 -77.5 -22t-22.5 -78v-280q0 -56 22.5 -78t77.5 -22z" />
    <glyph glyph-name="P" unicode="P" horiz-adv-x="736" 
d="M64 0v700h474q88 0 127 -38.5t39 -127.5v-128q0 -89 -39 -127.5t-127 -38.5h-346v-240h-128zM192 338h299q49 0 67 17.5t18 66.5v92q0 49 -18 66.5t-67 17.5h-299v-260z" />
    <glyph glyph-name="Q" unicode="Q" horiz-adv-x="800" 
d="M559 700q96 0 141 -45t45 -141v-328q0 -91 -40 -135.5t-124 -49.5l111 -141h-135l-105 140h-211q-96 0 -141 45t-45 141v328q0 96 45 141t141 45h318zM617 210v280q0 55 -22.5 77.5t-77.5 22.5h-234q-55 0 -77.5 -22t-22.5 -78v-280q0 -56 22.5 -78t77.5 -22h234
q55 0 77.5 22.5t22.5 77.5z" />
    <glyph glyph-name="R" unicode="R" horiz-adv-x="762" 
d="M734 0h-143l-183 262h-216v-262h-128v700h474q88 0 127 -38.5t39 -127.5v-98q0 -88 -38 -126.5t-125 -39.5zM192 602v-244h299q49 0 67 17.5t18 66.5v76q0 49 -18 66.5t-67 17.5h-299z" />
    <glyph glyph-name="S" unicode="S" horiz-adv-x="779" 
d="M55 142v63h124v-36q0 -38 15 -53t53 -15h282q37 0 52.5 15.5t15.5 52.5v57q0 37 -14.5 50.5t-53.5 17.5l-322 31q-75 6 -108.5 38t-33.5 104v91q0 73 34.5 107.5t107.5 34.5h362q72 0 107 -34.5t35 -107.5v-49h-124v22q0 37 -15.5 52.5t-52.5 15.5h-258q-38 0 -53 -15
t-15 -53v-34q0 -37 14.5 -50.5t53.5 -17.5l322 -30q75 -7 108.5 -38.5t33.5 -103.5v-115q0 -73 -35 -107.5t-107 -34.5h-386q-73 0 -107.5 34.5t-34.5 107.5z" />
    <glyph glyph-name="T" unicode="T" horiz-adv-x="676" 
d="M660 700v-114h-258v-586h-128v586h-258v114h644z" />
    <glyph glyph-name="U" unicode="U" horiz-adv-x="773" 
d="M242 0q-96 0 -141 45t-45 141v514h128v-490q0 -55 22.5 -77.5t77.5 -22.5h204q56 0 78 22t22 78v490h128v-514q0 -96 -45 -141t-141 -45h-288z" />
    <glyph glyph-name="V" unicode="V" horiz-adv-x="776" 
d="M636 700h134l-320 -700h-124l-320 700h141l245 -562z" />
    <glyph glyph-name="W" unicode="W" horiz-adv-x="1102" 
d="M962 700h134l-256 -700h-113l-176 509l-176 -509h-113l-256 700h141l180 -528l178 528h97l179 -528z" />
    <glyph glyph-name="X" unicode="X" 
d="M6 0l286 356l-276 344h156l208 -275l207 275h149l-276 -344l286 -356h-156l-218 287l-221 -287h-145z" />
    <glyph glyph-name="Y" unicode="Y" horiz-adv-x="728" 
d="M732 700l-304 -442v-258h-128v258l-304 442h149l222 -337l222 337h143z" />
    <glyph glyph-name="Z" unicode="Z" horiz-adv-x="748" 
d="M42 0v88l478 502h-458v110h644v-88l-478 -502h478v-110h-664z" />
    <glyph glyph-name="bracketleft" unicode="[" horiz-adv-x="396" 
d="M64 -100v900h300v-98h-190v-704h190v-98h-300z" />
    <glyph glyph-name="backslash" unicode="\" horiz-adv-x="487" 
d="M93 800l388 -900h-87l-388 900h87z" />
    <glyph glyph-name="bracketright" unicode="]" horiz-adv-x="396" 
d="M332 800v-900h-300v98h190v704h-190v98h300z" />
    <glyph glyph-name="asciicircum" unicode="^" 
d="M694 280h-124l-193 313l-193 -313h-126l268 420h100z" />
    <glyph glyph-name="underscore" unicode="_" horiz-adv-x="644" 
d="M0 -40h644v-86h-644v86z" />
    <glyph glyph-name="grave" unicode="`" horiz-adv-x="353" 
d="M188 576l-124 124h132l93 -124h-101z" />
    <glyph glyph-name="a" unicode="a" horiz-adv-x="673" 
d="M448 528q88 0 127 -38.5t39 -127.5v-362h-99l-14 71l-17 -13q-46 -38 -80.5 -48t-104.5 -10h-121q-124 0 -124 124v55q0 124 124 124h315v52q0 48 -18.5 66t-67.5 18h-144q-37 0 -52.5 -15t-15.5 -53v-19h-117v34q0 73 35 107.5t107 34.5h228zM447 114l46 34v83h-258
q-34 0 -47 -13.5t-13 -46.5v-28q0 -34 13 -47t47 -13h102q67 0 110 31z" />
    <glyph glyph-name="b" unicode="b" horiz-adv-x="687" 
d="M467 528q88 0 127 -38.5t39 -127.5v-196q0 -89 -39 -127.5t-127 -38.5h-73q-76 0 -116.5 12t-91.5 54l-9 7l-14 -73h-100v700h122v-239l1 1q51 42 91.5 54t116.5 12h73zM512 183v162q0 49 -18 67t-67 18h-72q-83 0 -130 -35l-40 -30v-202l40 -30q47 -35 130 -35h72
q49 0 67 18t18 67z" />
    <glyph glyph-name="c" unicode="c" horiz-adv-x="654" 
d="M54 166v196q0 89 39 127.5t127 38.5h214q88 0 127 -38.5t39 -127.5v-41h-118v24q0 49 -17.5 67t-66.5 18h-138q-49 0 -66.5 -18t-17.5 -67v-162q0 -49 17.5 -67t66.5 -18h138q49 0 66.5 18t17.5 67v32h118v-49q0 -89 -39 -127.5t-127 -38.5h-214q-88 0 -127 38.5
t-39 127.5z" />
    <glyph glyph-name="d" unicode="d" horiz-adv-x="687" 
d="M502 700h122v-700h-100l-14 73l-9 -7q-51 -42 -91 -54t-116 -12h-74q-88 0 -127 38.5t-39 127.5v196q0 89 39 127.5t127 38.5h74q76 0 116 -12t91 -54l1 -1v239zM463 133l39 30v202l-39 30q-48 35 -131 35h-72q-49 0 -66.5 -18t-17.5 -67v-162q0 -49 17.5 -67t66.5 -18
h72q83 0 131 35z" />
    <glyph glyph-name="e" unicode="e" horiz-adv-x="668" 
d="M448 528q88 0 127 -38.5t39 -127.5v-114h-439v-67q0 -49 18.5 -67t67.5 -18h168q37 0 52.5 15.5t15.5 52.5v23h117v-45q0 -73 -35 -107.5t-107 -34.5h-252q-88 0 -127 38.5t-39 127.5v196q0 89 39 127.5t127 38.5h228zM175 326h322v28q0 49 -18.5 67t-67.5 18h-150
q-49 0 -67.5 -18t-18.5 -67v-28z" />
    <glyph glyph-name="f" unicode="f" horiz-adv-x="478" 
d="M313 603q-37 0 -52.5 -15.5t-15.5 -52.5v-70h217v-97h-217v-368h-121v368h-108v97h108v93q0 73 35 107.5t107 34.5h196v-97h-149z" />
    <glyph glyph-name="g" unicode="g" horiz-adv-x="687" 
d="M525 528h99v-502q0 -96 -45 -141t-141 -45h-364v92h329q55 0 77.5 22.5t22.5 77.5v73l-2 -2q-50 -42 -92 -54t-116 -12h-73q-88 0 -127 38.5t-39 127.5v159q0 89 39 127.5t127 38.5h73q74 0 116 -12t92 -53l10 -8zM463 168l40 29v171l-40 30q-45 34 -131 34h-72
q-49 0 -67 -18t-18 -67v-129q0 -49 18 -67t67 -18h72q84 0 131 35z" />
    <glyph glyph-name="h" unicode="h" horiz-adv-x="682" 
d="M457 528q88 0 127 -38.5t39 -127.5v-362h-121v342q0 49 -18 67t-67 18h-62q-85 0 -130 -34l-40 -30v-363h-122v700h122v-242l5 4q51 42 91.5 54t116.5 12h59z" />
    <glyph glyph-name="i" unicode="i" horiz-adv-x="257" 
d="M67 601v99h124v-99h-124zM67 0v528h124v-528h-124z" />
    <glyph glyph-name="j" unicode="j" horiz-adv-x="257" 
d="M67 601v99h124v-99h-124zM-22 -160v95h21q38 0 53 15t15 53v525h124v-546q0 -73 -35 -107.5t-107 -34.5h-71z" />
    <glyph glyph-name="k" unicode="k" horiz-adv-x="644" 
d="M642 0h-179l-278 250v-250h-122v700h122v-424l274 252h177l-307 -262z" />
    <glyph glyph-name="l" unicode="l" horiz-adv-x="258" 
d="M67 0v700h123v-700h-123z" />
    <glyph glyph-name="m" unicode="m" horiz-adv-x="1065" 
d="M840 528q88 0 127 -38.5t39 -127.5v-362h-122v342q0 49 -18 67t-67 18h-34q-83 0 -130 -34l-40 -30v-363h-121v342q0 49 -18 67t-67 18h-34q-85 0 -130 -34l-40 -30v-363h-122v528h100l14 -73l9 7q51 42 91.5 54t116.5 12h35q121 0 152 -78l15 12q51 42 91.5 54t116.5 12
h36z" />
    <glyph glyph-name="n" unicode="n" horiz-adv-x="682" 
d="M457 528q88 0 127 -38.5t39 -127.5v-362h-121v342q0 49 -18 67t-67 18h-62q-85 0 -130 -34l-40 -30v-363h-122v528h100l14 -73l9 7q51 42 91.5 54t116.5 12h63z" />
    <glyph glyph-name="o" unicode="o" horiz-adv-x="678" 
d="M220 0q-88 0 -127 38.5t-39 127.5v196q0 89 39 127.5t127 38.5h238q88 0 127 -38.5t39 -127.5v-196q0 -89 -39 -127.5t-127 -38.5h-238zM260 98h158q49 0 66.5 18t17.5 67v162q0 49 -17.5 67t-66.5 18h-158q-49 0 -66.5 -18t-17.5 -67v-162q0 -49 17.5 -67t66.5 -18z" />
    <glyph glyph-name="p" unicode="p" horiz-adv-x="687" 
d="M467 528q88 0 127 -38.5t39 -127.5v-196q0 -89 -39 -127.5t-127 -38.5h-73q-76 0 -116.5 12t-91.5 54l-1 1v-227h-122v688h100l14 -73l9 7q51 42 91.5 54t116.5 12h73zM512 183v162q0 49 -18 67t-67 18h-72q-83 0 -130 -35l-40 -30v-202l40 -30q47 -35 130 -35h72
q49 0 67 18t18 67z" />
    <glyph glyph-name="q" unicode="q" horiz-adv-x="687" 
d="M524 528h100v-688h-122v227l-1 -1q-51 -42 -89.5 -54t-113.5 -12h-78q-88 0 -127 38.5t-39 127.5v196q0 89 39 127.5t127 38.5h74q76 0 116 -12t91 -54l9 -7zM463 133l39 30v202l-39 30q-48 35 -131 35h-72q-49 0 -66.5 -18t-17.5 -67v-162q0 -49 17.5 -67t66.5 -18h72
q83 0 131 35z" />
    <glyph glyph-name="r" unicode="r" horiz-adv-x="446" 
d="M390 528h40v-113h-75q-85 0 -130 -34l-40 -30v-351h-122v528h88l15 -78l16 12q51 42 91.5 54t116.5 12z" />
    <glyph glyph-name="s" unicode="s" horiz-adv-x="658" 
d="M54 116v50h117v-35q0 -24 10.5 -34t34.5 -10h222q24 0 34.5 10t10.5 34v42q0 23 -10.5 33t-34.5 12l-259 26q-115 11 -115 115v54q0 56 30 85.5t85 29.5h296q55 0 85 -30t30 -86v-45h-117v30q0 24 -10.5 34t-34.5 10h-198q-24 0 -34.5 -10t-10.5 -34v-18q0 -23 10.5 -33
t34.5 -12l259 -26q115 -11 115 -115v-78q0 -56 -30 -85.5t-85 -29.5h-320q-55 0 -85 30t-30 86z" />
    <glyph glyph-name="t" unicode="t" horiz-adv-x="498" 
d="M472 431h-226v-265q0 -38 15 -53t53 -15h158v-98h-206q-73 0 -107.5 34t-34.5 108v289h-108v97h108l25 120h97v-120h226v-97z" />
    <glyph glyph-name="u" unicode="u" horiz-adv-x="682" 
d="M619 528v-528h-100l-14 73l-9 -7q-51 -42 -91.5 -54t-116.5 -12h-63q-88 0 -127 38.5t-39 127.5v362h121v-342q0 -49 18 -67t67 -18h62q85 0 130 34l40 30v363h122z" />
    <glyph glyph-name="v" unicode="v" horiz-adv-x="638" 
d="M502 528h130l-258 -528h-110l-258 528h135l181 -398z" />
    <glyph glyph-name="w" unicode="w" horiz-adv-x="902" 
d="M772 528h124l-205 -528h-105l-134 374l-134 -374h-107l-205 528h129l135 -380l137 380h93l138 -381z" />
    <glyph glyph-name="x" unicode="x" horiz-adv-x="647" 
d="M2 0l239 269l-229 259h155l160 -200l161 200h147l-228 -259l238 -269h-155l-170 210l-171 -210h-147z" />
    <glyph glyph-name="y" unicode="y" horiz-adv-x="638" 
d="M502 528h130l-265 -540q-45 -92 -92.5 -120t-151.5 -28h-69v98h79q52 0 78 14t49 57l-254 519h135l179 -403z" />
    <glyph glyph-name="z" unicode="z" horiz-adv-x="642" 
d="M40 0v74l384 360h-364v94h542v-74l-384 -360h384v-94h-562z" />
    <glyph glyph-name="braceleft" unicode="{" horiz-adv-x="464" 
d="M248 456q0 -80 -57 -106q57 -28 57 -107v-144q0 -53 24 -77t77 -24h83v-98h-104q-96 0 -143 46.5t-47 143.5v159q0 56 -56 56h-50v90h50q56 0 56 55v160q0 97 47 143.5t143 46.5h104v-98h-83q-53 0 -77 -24t-24 -77v-145z" />
    <glyph glyph-name="bar" unicode="|" horiz-adv-x="248" 
d="M74 800h100v-900h-100v900z" />
    <glyph glyph-name="braceright" unicode="}" horiz-adv-x="464" 
d="M382 395h50v-90h-50q-56 0 -56 -55v-160q0 -97 -47 -143.5t-143 -46.5h-104v98h83q53 0 77 24t24 77v145q0 80 57 106q-57 28 -57 107v144q0 53 -24 77t-77 24h-83v98h104q96 0 143 -46.5t47 -143.5v-159q0 -56 56 -56z" />
    <glyph glyph-name="asciitilde" unicode="~" 
d="M480 301q14 -15 23 -19.5t28 -4.5h17q17 0 24.5 7.5t7.5 25.5v194h104v-214q0 -51 -21.5 -72.5t-72.5 -21.5h-78q-47 0 -70 11.5t-53 51.5l-117 140q-14 15 -23 19.5t-28 4.5h-17q-17 0 -24.5 -7.5t-7.5 -25.5v-194h-104v214q0 51 21.5 72.5t72.5 21.5h78
q47 0 70.5 -11.5t52.5 -50.5z" />
    <glyph glyph-name="exclamdown" unicode="&#xa1;" horiz-adv-x="276" 
d="M212 700v-128h-148v128h148zM208 0h-140l24 496h92z" />
    <glyph glyph-name="cent" unicode="&#xa2;" 
d="M686 479h-120v36q0 49 -18 67t-67 18h-206q-49 0 -67 -18t-18 -67v-200q0 -49 18 -67t67 -18h206q49 0 67 18t18 67v43h120v-62q0 -89 -39 -127.5t-127 -38.5h-100v-100h-84v100h-104q-88 0 -127 38.5t-39 127.5v238q0 89 39 127.5t127 38.5h104v100h84v-100h100
q88 0 127 -38.5t39 -127.5v-55z" />
    <glyph glyph-name="sterling" unicode="&#xa3;" horiz-adv-x="772" 
d="M706 454h-120v48q0 55 -22.5 77.5t-77.5 22.5h-160q-52 0 -74 -22.5t-22 -77.5v-109h244v-74h-244v-217h288q38 0 53 15t15 53v68h120v-96q0 -74 -34.5 -108t-107.5 -34h-548v102h90v217h-100v74h100v121q0 96 45 141t141 45h228q96 0 141 -45t45 -141v-60z" />
    <glyph glyph-name="currency" unicode="&#xa4;" 
d="M627 268q0 -44 -13 -74l97 -97l-59 -59l-90 90q-42 -28 -103 -28h-166q-61 0 -103 28l-90 -90l-59 59l97 97q-13 30 -13 74v164q0 44 13 74l-97 97l59 59l90 -90q42 28 103 28h166q61 0 103 -28l90 90l59 -59l-97 -97q13 -30 13 -74v-164zM431 196q49 0 71.5 22.5
t22.5 71.5v120q0 49 -22.5 71.5t-71.5 22.5h-110q-49 0 -71.5 -22.5t-22.5 -71.5v-120q0 -49 22.5 -71.5t71.5 -22.5h110z" />
    <glyph glyph-name="yen" unicode="&#xa5;" 
d="M724 700l-254 -389h224v-64h-256v-90h256v-64h-256v-93h-124v93h-256v64h256v90h-256v64h224l-254 389h142l209 -337l210 337h135z" />
    <glyph glyph-name="brokenbar" unicode="&#xa6;" horiz-adv-x="248" 
d="M74 800h100v-322h-100v322zM74 222h100v-322h-100v322z" />
    <glyph glyph-name="section" unicode="&#xa7;" horiz-adv-x="918" 
d="M730 504q71 -8 102.5 -38.5t31.5 -99.5v-72q0 -66 -27.5 -99t-86.5 -38q4 -19 4 -48v-67q0 -73 -35 -107.5t-107 -34.5h-296q-72 0 -107 34.5t-35 107.5v51h124v-30q0 -37 15 -52.5t53 -15.5h193q37 0 52 15t15 52v27q0 36 -15 49.5t-52 17.5l-371 40q-71 8 -102.5 38.5
t-31.5 99.5v72q0 66 27.5 99t86.5 38q-4 19 -4 48v67q0 73 35 107.5t107 34.5h296q72 0 107 -34.5t35 -107.5v-51h-124v30q0 37 -15 52.5t-53 15.5h-193q-37 0 -52 -15t-15 -52v-27q0 -36 15 -49.5t52 -17.5zM245 290l371 -39q30 -3 56 -11h1q35 0 49 14t14 49v44
q0 34 -13.5 46.5t-49.5 16.5l-371 39q-30 3 -56 11h-1q-35 0 -49 -14t-14 -49v-44q0 -34 13.5 -46.5t49.5 -16.5z" />
    <glyph glyph-name="dieresis" unicode="&#xa8;" horiz-adv-x="432" 
d="M64 588v88h96v-88h-96zM272 588v88h96v-88h-96z" />
    <glyph glyph-name="copyright" unicode="&#xa9;" horiz-adv-x="800" 
d="M263 0q-105 0 -164 58.5t-59 164.5v254q0 106 59 164.5t164 58.5h274q105 0 164 -58.5t59 -164.5v-254q0 -106 -59 -164.5t-164 -58.5h-274zM273 50h254q179 0 179 179v242q0 179 -179 179h-254q-179 0 -179 -179v-242q0 -179 179 -179zM297 132q-62 0 -91.5 29t-29.5 92
v194q0 63 29.5 92t91.5 29h206q62 0 91.5 -29t29.5 -92v-46h-91v31q0 32 -12 44.5t-44 12.5h-152q-32 0 -44 -12.5t-12 -44.5v-164q0 -32 12 -44.5t44 -12.5h152q32 0 44 12.5t12 44.5v36h91v-51q0 -63 -29.5 -92t-91.5 -29h-206z" />
    <glyph glyph-name="ordfeminine" unicode="&#xaa;" horiz-adv-x="405" 
d="M270 700q53 0 77 -24t24 -78v-216h-68l-9 41l-5 -4q-29 -24 -49.5 -30.5t-62.5 -6.5h-72q-75 0 -75 75v35q0 75 75 75h183v26q0 27 -9.5 37t-36.5 10h-80q-21 0 -29 -8.5t-8 -29.5v-9h-81v20q0 87 88 87h138zM204 438q35 0 59 17l25 18v46h-141q-19 0 -26.5 -7.5
t-7.5 -26.5v-14q0 -19 7.5 -26t26.5 -7h57z" />
    <glyph glyph-name="guillemotleft" unicode="&#xab;" horiz-adv-x="808" 
d="M52 388l324 198v-103l-233 -132l233 -133v-105l-324 198v77zM756 586v-103l-233 -132l233 -133v-105l-324 198v77z" />
    <glyph glyph-name="logicalnot" unicode="&#xac;" 
d="M68 298v104h616v-280h-110v176h-506z" />
    <glyph glyph-name="uni00AD" unicode="&#xad;" horiz-adv-x="420" 
d="M48 402h324v-104h-324v104z" />
    <glyph glyph-name="registered" unicode="&#xae;" horiz-adv-x="391" 
d="M248 700q107 0 107 -107v-92q0 -107 -107 -107h-105q-107 0 -107 107v92q0 107 107 107h105zM318 503v88q0 41 -16.5 57.5t-57.5 16.5h-97q-41 0 -57.5 -16.5t-16.5 -57.5v-88q0 -40 17 -57t57 -17h97q40 0 57 17t17 57zM271 560q0 -35 -34 -36l41 -55h-44l-38 52h-32
v-52h-40v155h110q20 0 28.5 -8.5t8.5 -28.5v-27zM164 592v-39h56q7 0 9 2.5t2 9.5v15q0 7 -2 9.5t-9 2.5h-56z" />
    <glyph glyph-name="macron" unicode="&#xaf;" horiz-adv-x="520" 
d="M64 606v66h392v-66h-392z" />
    <glyph glyph-name="degree" unicode="&#xb0;" horiz-adv-x="428" 
d="M163 360q-58 0 -89.5 32t-31.5 89v98q0 58 31.5 89.5t89.5 31.5h102q58 0 89.5 -31.5t31.5 -89.5v-98q0 -57 -31.5 -89t-89.5 -32h-102zM179 431h70q61 0 61 61v76q0 32 -14.5 46.5t-46.5 14.5h-70q-32 0 -46.5 -14.5t-14.5 -46.5v-76q0 -61 61 -61z" />
    <glyph glyph-name="plusminus" unicode="&#xb1;" 
d="M431 484h253v-96h-253v-192h-110v192h-253v96h253v192h110v-192zM68 24v97h616v-97h-616z" />
    <glyph glyph-name="uni00B2" unicode="&#xb2;" horiz-adv-x="482" 
d="M428 280h-381v135q0 45 22 67t70 29l161 22q18 2 24.5 9t6.5 24v21q0 17 -7 24t-24 7h-113q-18 0 -25 -7t-7 -24v-19h-100v40q0 48 22.5 70t69.5 22h196q47 0 69.5 -22t22.5 -70v-55q0 -46 -21.5 -67.5t-70.5 -28.5l-161 -22q-17 -2 -24 -9.5t-7 -23.5v-34h277v-88z" />
    <glyph glyph-name="uni00B3" unicode="&#xb3;" horiz-adv-x="476" 
d="M386 497q47 -15 47 -79v-46q0 -48 -22 -70t-69 -22h-207q-47 0 -69.5 22t-22.5 70v55h100v-32q0 -18 7 -24.5t24 -6.5h124q18 0 24.5 6.5t6.5 24.5v32q0 17 -6.5 24t-24.5 7h-91v75h85q18 0 24.5 7t6.5 25v20q0 18 -6.5 24.5t-24.5 6.5h-112q-17 0 -24 -6.5t-7 -24.5v-27
h-100v50q0 48 22.5 70t69.5 22h195q47 0 69 -22t22 -70v-34q0 -62 -41 -77z" />
    <glyph glyph-name="acute" unicode="&#xb4;" horiz-adv-x="353" 
d="M166 576h-102l94 124h131z" />
    <glyph glyph-name="paragraph" unicode="&#xb6;" horiz-adv-x="822" 
d="M50 438v96q0 89 39 127.5t127 38.5h502v-700h-112v598h-162v-598h-112v272h-116q-88 0 -127 38.5t-39 127.5z" />
    <glyph glyph-name="periodcentered" unicode="&#xb7;" horiz-adv-x="276" 
d="M64 280v140h148v-140h-148z" />
    <glyph glyph-name="cedilla" unicode="&#xb8;" horiz-adv-x="320" 
d="M52 -160v47h139q13 0 13 13v13q0 13 -13 13h-103v22l26 72h50l-18 -50h70q28 0 40 -12t12 -40v-26q0 -28 -12 -40t-40 -12h-164z" />
    <glyph glyph-name="uni00B9" unicode="&#xb9;" horiz-adv-x="446" 
d="M286 365h126v-85h-379v85h148v241l-130 -13v89l186 18h49v-335z" />
    <glyph glyph-name="ordmasculine" unicode="&#xba;" horiz-adv-x="407" 
d="M132 383q-54 0 -78 23.5t-24 77.5v115q0 54 24 77.5t78 23.5h143q54 0 78 -23.5t24 -77.5v-115q0 -54 -24 -77.5t-78 -23.5h-143zM160 451h88q27 0 37 10t10 37v87q0 27 -10 37t-37 10h-88q-27 0 -37 -10t-10 -37v-87q0 -27 10 -37t37 -10z" />
    <glyph glyph-name="guillemotright" unicode="&#xbb;" horiz-adv-x="808" 
d="M52 481v105l324 -198v-77l-324 -198v103l233 133zM432 586l324 -198v-77l-324 -198v103l233 133l-233 132v105z" />
    <glyph glyph-name="onequarter" unicode="&#xbc;" horiz-adv-x="1060" 
d="M412 365v-85h-379v85h148v241l-130 -13v89l186 18h49v-335h126zM813 700h80l-540 -700h-80zM1027 166v-80h-84v-86h-100v86h-249v67l233 267h116v-254h84zM708 166h135v155z" />
    <glyph glyph-name="onehalf" unicode="&#xbd;" horiz-adv-x="1163" 
d="M412 365v-85h-379v85h148v241l-130 -13v89l186 18h49v-335h126zM813 700h80l-540 -700h-80zM863 155q-17 -2 -24 -9.5t-7 -23.5v-34h277v-88h-381v135q0 45 22 67t70 29l161 22q18 2 24.5 9t6.5 24v21q0 17 -7 24t-24 7h-113q-18 0 -25 -7t-7 -24v-19h-100v40
q0 48 22.5 70t69.5 22h196q47 0 69.5 -22t22.5 -70v-55q0 -46 -21.5 -67.5t-70.5 -28.5z" />
    <glyph glyph-name="threequarters" unicode="&#xbe;" horiz-adv-x="1078" 
d="M437 372q0 -48 -22 -70t-69 -22h-207q-47 0 -69.5 22t-22.5 70v55h100v-32q0 -18 7 -24.5t24 -6.5h124q18 0 24.5 6.5t6.5 24.5v32q0 17 -6.5 24t-24.5 7h-91v75h85q18 0 24.5 7t6.5 25v20q0 18 -6.5 24.5t-24.5 6.5h-112q-17 0 -24 -6.5t-7 -24.5v-27h-100v50
q0 48 22.5 70t69.5 22h195q47 0 69 -22t22 -70v-34q0 -62 -41 -77q47 -15 47 -79v-46zM811 700h80l-540 -700h-80zM1045 166v-80h-84v-86h-100v86h-249v67l233 267h116v-254h84zM726 166h135v155z" />
    <glyph glyph-name="questiondown" unicode="&#xbf;" horiz-adv-x="674" 
d="M443 700v-116h-148v116h148zM427 508v-75q0 -64 -23 -92.5t-90 -44.5l-83 -21q-35 -9 -49 -24.5t-14 -49.5v-34q0 -36 15 -51t52 -15h208q37 0 52 15t15 51v41h120v-66q0 -73 -35 -107.5t-107 -34.5h-302q-72 0 -107 34.5t-35 107.5v67q0 66 29.5 100t101.5 52l80 21
q33 8 44 23t11 49v54h117z" />
    <glyph glyph-name="Agrave" unicode="&#xc0;" horiz-adv-x="799" 
d="M450 748h-101l-124 124h132zM656 0l-68 155h-379l-67 -155h-136l326 700h141l325 -700h-142zM252 252h294l-147 338z" />
    <glyph glyph-name="Aacute" unicode="&#xc1;" horiz-adv-x="799" 
d="M579 872l-123 -124h-102l94 124h131zM656 0l-68 155h-379l-67 -155h-136l326 700h141l325 -700h-142zM252 252h294l-147 338z" />
    <glyph glyph-name="Acircumflex" unicode="&#xc2;" horiz-adv-x="799" 
d="M402 820l-95 -72h-92l126 124h122l126 -124h-92zM656 0l-68 155h-379l-67 -155h-136l326 700h141l325 -700h-142zM252 252h294l-147 338z" />
    <glyph glyph-name="Atilde" unicode="&#xc3;" horiz-adv-x="799" 
d="M290 808v-60h-73v74q0 50 50 50h87q23 0 35.5 -5t26.5 -21l38 -38q10 -10 25 -10h20q15 0 15 14v60h73v-74q0 -50 -50 -50h-87q-23 0 -35.5 5t-26.5 21l-38 38q-10 10 -25 10h-20q-15 0 -15 -14zM656 0l-68 155h-379l-67 -155h-136l326 700h141l325 -700h-142zM252 252
h294l-147 338z" />
    <glyph glyph-name="Adieresis" unicode="&#xc4;" horiz-adv-x="799" 
d="M346 848v-88h-96v88h96zM554 848v-88h-96v88h96zM656 0l-68 155h-379l-67 -155h-136l326 700h141l325 -700h-142zM252 252h294l-147 338z" />
    <glyph glyph-name="Aring" unicode="&#xc5;" horiz-adv-x="799" 
d="M315 738q-29 0 -41.5 13t-12.5 41v26q0 28 12.5 41t41.5 13h174q29 0 41.5 -13t12.5 -41v-26q0 -28 -12.5 -41t-41.5 -13h-174zM314 812v-14q0 -12 4 -16.5t16 -4.5h136q12 0 16 4.5t4 16.5v14q0 12 -4 16.5t-16 4.5h-136q-12 0 -16 -4.5t-4 -16.5zM656 0l-68 155h-379
l-67 -155h-136l326 700h141l325 -700h-142zM252 252h294l-147 338z" />
    <glyph glyph-name="AE" unicode="&#xc6;" horiz-adv-x="1084" 
d="M735 107h317v-107h-413l-61 152h-370l-66 -152h-136l326 700h710v-107h-516l77 -180h399v-99h-356zM250 249h288l-138 343z" />
    <glyph glyph-name="Ccedilla" unicode="&#xc7;" horiz-adv-x="772" 
d="M721 440h-124v52q0 55 -22.5 77.5t-77.5 22.5h-214q-55 0 -77.5 -22.5t-22.5 -77.5v-284q0 -55 22.5 -77.5t77.5 -22.5h214q55 0 77.5 22.5t22.5 77.5v61h124v-83q0 -96 -45 -141t-141 -45h-134l-11 -30h70q28 0 40 -12t12 -40v-26q0 -28 -12 -40t-40 -12h-164v47h139
q13 0 13 13v13q0 13 -13 13h-103v22l19 52h-110q-96 0 -141 45t-45 141v328q0 96 45 141t141 45h294q96 0 141 -45t45 -141v-74z" />
    <glyph glyph-name="Egrave" unicode="&#xc8;" horiz-adv-x="678" 
d="M387 748h-101l-124 124h132zM192 107h454v-107h-582v700h572v-107h-444v-180h404v-99h-404v-207z" />
    <glyph glyph-name="Eacute" unicode="&#xc9;" horiz-adv-x="678" 
d="M516 872l-123 -124h-102l94 124h131zM192 107h454v-107h-582v700h572v-107h-444v-180h404v-99h-404v-207z" />
    <glyph glyph-name="Ecircumflex" unicode="&#xca;" horiz-adv-x="678" 
d="M339 820l-95 -72h-92l126 124h122l126 -124h-92zM192 107h454v-107h-582v700h572v-107h-444v-180h404v-99h-404v-207z" />
    <glyph glyph-name="Edieresis" unicode="&#xcb;" horiz-adv-x="678" 
d="M283 848v-88h-96v88h96zM491 848v-88h-96v88h96zM192 107h454v-107h-582v700h572v-107h-444v-180h404v-99h-404v-207z" />
    <glyph glyph-name="Igrave" unicode="&#xcc;" horiz-adv-x="268" 
d="M81 748l-124 124h132l93 -124h-101zM69 700h130v-700h-130v700z" />
    <glyph glyph-name="Iacute" unicode="&#xcd;" horiz-adv-x="268" 
d="M188 748h-102l94 124h131zM69 700h130v-700h-130v700z" />
    <glyph glyph-name="Icircumflex" unicode="&#xce;" horiz-adv-x="268" 
d="M-53 748l126 124h122l126 -124h-92l-95 72l-95 -72h-92zM69 700h130v-700h-130v700z" />
    <glyph glyph-name="Idieresis" unicode="&#xcf;" horiz-adv-x="268" 
d="M-18 760v88h96v-88h-96zM190 760v88h96v-88h-96zM69 700h130v-700h-130v700z" />
    <glyph glyph-name="Eth" unicode="&#xd0;" horiz-adv-x="859" 
d="M574 700q112 0 171 -58.5t59 -171.5v-240q0 -113 -59 -171.5t-171 -58.5h-450v310h-92v80h92v310h450zM676 238v224q0 128 -128 128h-296v-200h226v-80h-226v-200h296q128 0 128 128z" />
    <glyph glyph-name="Ntilde" unicode="&#xd1;" horiz-adv-x="808" 
d="M288 808v-60h-73v74q0 50 50 50h87q23 0 35.5 -5t26.5 -21l38 -38q10 -10 25 -10h20q15 0 15 14v60h73v-74q0 -50 -50 -50h-87q-23 0 -35.5 5t-26.5 21l-38 38q-10 10 -25 10h-20q-15 0 -15 -14zM620 700h124v-700h-102l-454 516v-516h-124v700h108l448 -508v508z" />
    <glyph glyph-name="Ograve" unicode="&#xd2;" horiz-adv-x="800" 
d="M347 748l-124 124h132l93 -124h-101zM241 0q-96 0 -141 45t-45 141v328q0 96 45 141t141 45h318q96 0 141 -45t45 -141v-328q0 -96 -45 -141t-141 -45h-318zM283 110h234q55 0 77.5 22.5t22.5 77.5v280q0 55 -22.5 77.5t-77.5 22.5h-234q-55 0 -77.5 -22t-22.5 -78v-280
q0 -56 22.5 -78t77.5 -22z" />
    <glyph glyph-name="Oacute" unicode="&#xd3;" horiz-adv-x="800" 
d="M454 748h-102l94 124h131zM241 0q-96 0 -141 45t-45 141v328q0 96 45 141t141 45h318q96 0 141 -45t45 -141v-328q0 -96 -45 -141t-141 -45h-318zM283 110h234q55 0 77.5 22.5t22.5 77.5v280q0 55 -22.5 77.5t-77.5 22.5h-234q-55 0 -77.5 -22t-22.5 -78v-280
q0 -56 22.5 -78t77.5 -22z" />
    <glyph glyph-name="Ocircumflex" unicode="&#xd4;" horiz-adv-x="800" 
d="M213 748l126 124h122l126 -124h-92l-95 72l-95 -72h-92zM241 0q-96 0 -141 45t-45 141v328q0 96 45 141t141 45h318q96 0 141 -45t45 -141v-328q0 -96 -45 -141t-141 -45h-318zM283 110h234q55 0 77.5 22.5t22.5 77.5v280q0 55 -22.5 77.5t-77.5 22.5h-234
q-55 0 -77.5 -22t-22.5 -78v-280q0 -56 22.5 -78t77.5 -22z" />
    <glyph glyph-name="Otilde" unicode="&#xd5;" horiz-adv-x="800" 
d="M215 748v74q0 50 50 50h87q23 0 35.5 -5t26.5 -21l38 -38q10 -10 25 -10h20q15 0 15 14v60h73v-74q0 -50 -50 -50h-87q-23 0 -35.5 5t-26.5 21l-38 38q-10 10 -25 10h-20q-15 0 -15 -14v-60h-73zM241 0q-96 0 -141 45t-45 141v328q0 96 45 141t141 45h318q96 0 141 -45
t45 -141v-328q0 -96 -45 -141t-141 -45h-318zM283 110h234q55 0 77.5 22.5t22.5 77.5v280q0 55 -22.5 77.5t-77.5 22.5h-234q-55 0 -77.5 -22t-22.5 -78v-280q0 -56 22.5 -78t77.5 -22z" />
    <glyph glyph-name="Odieresis" unicode="&#xd6;" horiz-adv-x="800" 
d="M248 760v88h96v-88h-96zM456 760v88h96v-88h-96zM241 0q-96 0 -141 45t-45 141v328q0 96 45 141t141 45h318q96 0 141 -45t45 -141v-328q0 -96 -45 -141t-141 -45h-318zM283 110h234q55 0 77.5 22.5t22.5 77.5v280q0 55 -22.5 77.5t-77.5 22.5h-234q-55 0 -77.5 -22
t-22.5 -78v-280q0 -56 22.5 -78t77.5 -22z" />
    <glyph glyph-name="multiply" unicode="&#xd7;" 
d="M666 566l-216 -216l216 -216l-74 -74l-216 216l-216 -216l-74 74l216 216l-216 216l74 74l216 -216l216 216z" />
    <glyph glyph-name="Oslash" unicode="&#xd8;" horiz-adv-x="800" 
d="M775 730l-70 -80q40 -46 40 -136v-328q0 -96 -45 -141t-141 -45h-318q-52 0 -92 14l-38 -44h-86l70 80q-40 46 -40 136v328q0 96 45 141t141 45h318q52 0 92 -14l38 44h86zM177 206q0 -34 8 -53l381 436q-15 5 -44 5h-245q-55 0 -77.5 -22.5t-22.5 -77.5v-288zM622 494
q0 33 -7 53l-381 -437q16 -4 43 -4h245q56 0 78 22t22 78v288z" />
    <glyph glyph-name="Ugrave" unicode="&#xd9;" horiz-adv-x="773" 
d="M333 748l-124 124h132l93 -124h-101zM242 0q-96 0 -141 45t-45 141v514h128v-490q0 -55 22.5 -77.5t77.5 -22.5h204q56 0 78 22t22 78v490h128v-514q0 -96 -45 -141t-141 -45h-288z" />
    <glyph glyph-name="Uacute" unicode="&#xda;" horiz-adv-x="773" 
d="M440 748h-102l94 124h131zM242 0q-96 0 -141 45t-45 141v514h128v-490q0 -55 22.5 -77.5t77.5 -22.5h204q56 0 78 22t22 78v490h128v-514q0 -96 -45 -141t-141 -45h-288z" />
    <glyph glyph-name="Ucircumflex" unicode="&#xdb;" horiz-adv-x="773" 
d="M199 748l126 124h122l126 -124h-92l-95 72l-95 -72h-92zM242 0q-96 0 -141 45t-45 141v514h128v-490q0 -55 22.5 -77.5t77.5 -22.5h204q56 0 78 22t22 78v490h128v-514q0 -96 -45 -141t-141 -45h-288z" />
    <glyph glyph-name="Udieresis" unicode="&#xdc;" horiz-adv-x="773" 
d="M234 760v88h96v-88h-96zM442 760v88h96v-88h-96zM242 0q-96 0 -141 45t-45 141v514h128v-490q0 -55 22.5 -77.5t77.5 -22.5h204q56 0 78 22t22 78v490h128v-514q0 -96 -45 -141t-141 -45h-288z" />
    <glyph glyph-name="Yacute" unicode="&#xdd;" horiz-adv-x="728" 
d="M541 872l-123 -124h-102l94 124h131zM732 700l-304 -442v-258h-128v258l-304 442h149l222 -337l222 337h143z" />
    <glyph glyph-name="Thorn" unicode="&#xde;" horiz-adv-x="736" 
d="M538 590q88 0 127 -38.5t39 -127.5v-128q0 -89 -39 -127.5t-127 -38.5h-346v-130h-128v700h128v-110h346zM576 312v92q0 49 -18 66.5t-67 17.5h-299v-260h299q49 0 67 17.5t18 66.5z" />
    <glyph glyph-name="germandbls" unicode="&#xdf;" horiz-adv-x="689" 
d="M554 367q83 -21 83 -128v-97q0 -73 -34.5 -107.5t-107.5 -34.5h-172v97h125q38 0 53 15.5t15 52.5v88q0 37 -15 52.5t-53 15.5h-125v86h105q38 0 53 15t15 53v60q0 37 -15 52.5t-53 15.5h-175q-37 0 -52.5 -15.5t-15.5 -52.5v-535h-122v558q0 73 35 107.5t107 34.5h270
q73 0 107.5 -34.5t34.5 -107.5v-69q0 -94 -63 -122z" />
    <glyph glyph-name="agrave" unicode="&#xe0;" horiz-adv-x="673" 
d="M393 576h-101l-124 124h132zM448 528q88 0 127 -38.5t39 -127.5v-362h-99l-14 71l-17 -13q-46 -38 -80.5 -48t-104.5 -10h-121q-124 0 -124 124v55q0 124 124 124h315v52q0 48 -18.5 66t-67.5 18h-144q-37 0 -52.5 -15t-15.5 -53v-19h-117v34q0 73 35 107.5t107 34.5h228
zM447 114l46 34v83h-258q-34 0 -47 -13.5t-13 -46.5v-28q0 -34 13 -47t47 -13h102q67 0 110 31z" />
    <glyph glyph-name="aacute" unicode="&#xe1;" horiz-adv-x="673" 
d="M522 700l-123 -124h-102l94 124h131zM448 528q88 0 127 -38.5t39 -127.5v-362h-99l-14 71l-17 -13q-46 -38 -80.5 -48t-104.5 -10h-121q-124 0 -124 124v55q0 124 124 124h315v52q0 48 -18.5 66t-67.5 18h-144q-37 0 -52.5 -15t-15.5 -53v-19h-117v34q0 73 35 107.5
t107 34.5h228zM447 114l46 34v83h-258q-34 0 -47 -13.5t-13 -46.5v-28q0 -34 13 -47t47 -13h102q67 0 110 31z" />
    <glyph glyph-name="acircumflex" unicode="&#xe2;" horiz-adv-x="673" 
d="M345 648l-95 -72h-92l126 124h122l126 -124h-92zM448 528q88 0 127 -38.5t39 -127.5v-362h-99l-14 71l-17 -13q-46 -38 -80.5 -48t-104.5 -10h-121q-124 0 -124 124v55q0 124 124 124h315v52q0 48 -18.5 66t-67.5 18h-144q-37 0 -52.5 -15t-15.5 -53v-19h-117v34
q0 73 35 107.5t107 34.5h228zM447 114l46 34v83h-258q-34 0 -47 -13.5t-13 -46.5v-28q0 -34 13 -47t47 -13h102q67 0 110 31z" />
    <glyph glyph-name="atilde" unicode="&#xe3;" horiz-adv-x="673" 
d="M233 636v-60h-73v74q0 50 50 50h87q23 0 35.5 -5t26.5 -21l38 -38q10 -10 25 -10h20q15 0 15 14v60h73v-74q0 -50 -50 -50h-87q-23 0 -35.5 5t-26.5 21l-38 38q-10 10 -25 10h-20q-15 0 -15 -14zM448 528q88 0 127 -38.5t39 -127.5v-362h-99l-14 71l-17 -13
q-46 -38 -80.5 -48t-104.5 -10h-121q-124 0 -124 124v55q0 124 124 124h315v52q0 48 -18.5 66t-67.5 18h-144q-37 0 -52.5 -15t-15.5 -53v-19h-117v34q0 73 35 107.5t107 34.5h228zM447 114l46 34v83h-258q-34 0 -47 -13.5t-13 -46.5v-28q0 -34 13 -47t47 -13h102
q67 0 110 31z" />
    <glyph glyph-name="adieresis" unicode="&#xe4;" horiz-adv-x="673" 
d="M289 676v-88h-96v88h96zM497 676v-88h-96v88h96zM448 528q88 0 127 -38.5t39 -127.5v-362h-99l-14 71l-17 -13q-46 -38 -80.5 -48t-104.5 -10h-121q-124 0 -124 124v55q0 124 124 124h315v52q0 48 -18.5 66t-67.5 18h-144q-37 0 -52.5 -15t-15.5 -53v-19h-117v34
q0 73 35 107.5t107 34.5h228zM447 114l46 34v83h-258q-34 0 -47 -13.5t-13 -46.5v-28q0 -34 13 -47t47 -13h102q67 0 110 31z" />
    <glyph glyph-name="aring" unicode="&#xe5;" horiz-adv-x="673" 
d="M258 566q-28 0 -41 13t-13 41v26q0 28 13 41t41 13h174q28 0 41 -13t13 -41v-26q0 -28 -13 -41t-41 -13h-174zM257 640v-14q0 -12 4 -16.5t16 -4.5h136q12 0 16 4.5t4 16.5v14q0 12 -4 16.5t-16 4.5h-136q-12 0 -16 -4.5t-4 -16.5zM448 528q88 0 127 -38.5t39 -127.5
v-362h-99l-14 71l-17 -13q-46 -38 -80.5 -48t-104.5 -10h-121q-124 0 -124 124v55q0 124 124 124h315v52q0 48 -18.5 66t-67.5 18h-144q-37 0 -52.5 -15t-15.5 -53v-19h-117v34q0 73 35 107.5t107 34.5h228zM447 114l46 34v83h-258q-34 0 -47 -13.5t-13 -46.5v-28
q0 -34 13 -47t47 -13h102q67 0 110 31z" />
    <glyph glyph-name="ae" unicode="&#xe6;" horiz-adv-x="1107" 
d="M887 528q88 0 127 -38.5t39 -127.5v-114h-439v-67q0 -49 18 -67t67 -18h168q37 0 52.5 15t15.5 53v23h118v-45q0 -73 -35 -107.5t-107 -34.5h-240q-114 0 -147 67l-12 -9q-46 -38 -80.5 -48t-104.5 -10h-149q-124 0 -124 124v55q0 124 124 124h315v52q0 48 -18.5 66
t-67.5 18h-144q-37 0 -52.5 -15t-15.5 -53v-19h-117v34q0 73 35 107.5t107 34.5h205q96 0 129 -53q32 53 128 53h205zM614 326h321v28q0 49 -18 67t-67 18h-151q-49 0 -67 -18t-18 -67v-28zM493 148v83h-258q-34 0 -47 -13.5t-13 -46.5v-28q0 -34 13 -47t47 -13h102
q67 0 110 31z" />
    <glyph glyph-name="ccedilla" unicode="&#xe7;" horiz-adv-x="654" 
d="M600 321h-118v24q0 49 -17.5 67t-66.5 18h-138q-49 0 -66.5 -18t-17.5 -67v-162q0 -49 17.5 -67t66.5 -18h138q49 0 66.5 18t17.5 67v32h118v-49q0 -89 -39 -127.5t-127 -38.5h-92l-11 -30h70q28 0 40 -12t12 -40v-26q0 -28 -12 -40t-40 -12h-164v47h139q13 0 13 13v13
q0 13 -13 13h-103v22l19 52h-72q-88 0 -127 38.5t-39 127.5v196q0 89 39 127.5t127 38.5h214q88 0 127 -38.5t39 -127.5v-41z" />
    <glyph glyph-name="egrave" unicode="&#xe8;" horiz-adv-x="668" 
d="M382 576h-101l-124 124h132zM448 528q88 0 127 -38.5t39 -127.5v-114h-439v-67q0 -49 18.5 -67t67.5 -18h168q37 0 52.5 15.5t15.5 52.5v23h117v-45q0 -73 -35 -107.5t-107 -34.5h-252q-88 0 -127 38.5t-39 127.5v196q0 89 39 127.5t127 38.5h228zM175 326h322v28
q0 49 -18.5 67t-67.5 18h-150q-49 0 -67.5 -18t-18.5 -67v-28z" />
    <glyph glyph-name="eacute" unicode="&#xe9;" horiz-adv-x="668" 
d="M511 700l-123 -124h-102l94 124h131zM448 528q88 0 127 -38.5t39 -127.5v-114h-439v-67q0 -49 18.5 -67t67.5 -18h168q37 0 52.5 15.5t15.5 52.5v23h117v-45q0 -73 -35 -107.5t-107 -34.5h-252q-88 0 -127 38.5t-39 127.5v196q0 89 39 127.5t127 38.5h228zM175 326h322
v28q0 49 -18.5 67t-67.5 18h-150q-49 0 -67.5 -18t-18.5 -67v-28z" />
    <glyph glyph-name="ecircumflex" unicode="&#xea;" horiz-adv-x="668" 
d="M334 648l-95 -72h-92l126 124h122l126 -124h-92zM448 528q88 0 127 -38.5t39 -127.5v-114h-439v-67q0 -49 18.5 -67t67.5 -18h168q37 0 52.5 15.5t15.5 52.5v23h117v-45q0 -73 -35 -107.5t-107 -34.5h-252q-88 0 -127 38.5t-39 127.5v196q0 89 39 127.5t127 38.5h228z
M175 326h322v28q0 49 -18.5 67t-67.5 18h-150q-49 0 -67.5 -18t-18.5 -67v-28z" />
    <glyph glyph-name="edieresis" unicode="&#xeb;" horiz-adv-x="668" 
d="M278 676v-88h-96v88h96zM486 676v-88h-96v88h96zM448 528q88 0 127 -38.5t39 -127.5v-114h-439v-67q0 -49 18.5 -67t67.5 -18h168q37 0 52.5 15.5t15.5 52.5v23h117v-45q0 -73 -35 -107.5t-107 -34.5h-252q-88 0 -127 38.5t-39 127.5v196q0 89 39 127.5t127 38.5h228z
M175 326h322v28q0 49 -18.5 67t-67.5 18h-150q-49 0 -67.5 -18t-18.5 -67v-28z" />
    <glyph glyph-name="igrave" unicode="&#xec;" horiz-adv-x="258" 
d="M76 576l-124 124h132l93 -124h-101zM67 0v528h123v-528h-123z" />
    <glyph glyph-name="iacute" unicode="&#xed;" horiz-adv-x="258" 
d="M183 576h-102l94 124h131zM67 0v528h123v-528h-123z" />
    <glyph glyph-name="icircumflex" unicode="&#xee;" horiz-adv-x="258" 
d="M-58 576l126 124h122l126 -124h-92l-95 72l-95 -72h-92zM67 0v528h123v-528h-123z" />
    <glyph glyph-name="idieresis" unicode="&#xef;" horiz-adv-x="258" 
d="M-23 588v88h96v-88h-96zM185 588v88h96v-88h-96zM67 0v528h123v-528h-123z" />
    <glyph glyph-name="eth" unicode="&#xf0;" horiz-adv-x="678" 
d="M438 700q96 0 141 -45t45 -141v-372q0 -73 -35 -107.5t-107 -34.5h-286q-72 0 -107 34.5t-35 107.5v143q0 74 34.5 108t107.5 34h204q75 0 103 -35v113q0 55 -22.5 77.5t-77.5 22.5h-59l-34 -69h-71l34 69h-139v95h186l29 60h71l-29 -60h47zM503 163v105q0 37 -15.5 52.5
t-52.5 15.5h-192q-37 0 -52.5 -15.5t-15.5 -52.5v-105q0 -38 15.5 -53t52.5 -15h192q37 0 52.5 15t15.5 53z" />
    <glyph glyph-name="ntilde" unicode="&#xf1;" horiz-adv-x="682" 
d="M229 636v-60h-73v74q0 50 50 50h87q23 0 35.5 -5t26.5 -21l38 -38q10 -10 25 -10h20q15 0 15 14v60h73v-74q0 -50 -50 -50h-87q-23 0 -35.5 5t-26.5 21l-38 38q-10 10 -25 10h-20q-15 0 -15 -14zM457 528q88 0 127 -38.5t39 -127.5v-362h-121v342q0 49 -18 67t-67 18h-62
q-85 0 -130 -34l-40 -30v-363h-122v528h100l14 -73l9 7q51 42 91.5 54t116.5 12h63z" />
    <glyph glyph-name="ograve" unicode="&#xf2;" horiz-adv-x="678" 
d="M286 576l-124 124h132l93 -124h-101zM220 0q-88 0 -127 38.5t-39 127.5v196q0 89 39 127.5t127 38.5h238q88 0 127 -38.5t39 -127.5v-196q0 -89 -39 -127.5t-127 -38.5h-238zM260 98h158q49 0 66.5 18t17.5 67v162q0 49 -17.5 67t-66.5 18h-158q-49 0 -66.5 -18
t-17.5 -67v-162q0 -49 17.5 -67t66.5 -18z" />
    <glyph glyph-name="oacute" unicode="&#xf3;" horiz-adv-x="678" 
d="M393 576h-102l94 124h131zM220 0q-88 0 -127 38.5t-39 127.5v196q0 89 39 127.5t127 38.5h238q88 0 127 -38.5t39 -127.5v-196q0 -89 -39 -127.5t-127 -38.5h-238zM260 98h158q49 0 66.5 18t17.5 67v162q0 49 -17.5 67t-66.5 18h-158q-49 0 -66.5 -18t-17.5 -67v-162
q0 -49 17.5 -67t66.5 -18z" />
    <glyph glyph-name="ocircumflex" unicode="&#xf4;" horiz-adv-x="678" 
d="M152 576l126 124h122l126 -124h-92l-95 72l-95 -72h-92zM220 0q-88 0 -127 38.5t-39 127.5v196q0 89 39 127.5t127 38.5h238q88 0 127 -38.5t39 -127.5v-196q0 -89 -39 -127.5t-127 -38.5h-238zM260 98h158q49 0 66.5 18t17.5 67v162q0 49 -17.5 67t-66.5 18h-158
q-49 0 -66.5 -18t-17.5 -67v-162q0 -49 17.5 -67t66.5 -18z" />
    <glyph glyph-name="otilde" unicode="&#xf5;" horiz-adv-x="678" 
d="M154 576v74q0 50 50 50h87q23 0 35.5 -5t26.5 -21l38 -38q10 -10 25 -10h20q15 0 15 14v60h73v-74q0 -50 -50 -50h-87q-23 0 -35.5 5t-26.5 21l-38 38q-10 10 -25 10h-20q-15 0 -15 -14v-60h-73zM220 0q-88 0 -127 38.5t-39 127.5v196q0 89 39 127.5t127 38.5h238
q88 0 127 -38.5t39 -127.5v-196q0 -89 -39 -127.5t-127 -38.5h-238zM260 98h158q49 0 66.5 18t17.5 67v162q0 49 -17.5 67t-66.5 18h-158q-49 0 -66.5 -18t-17.5 -67v-162q0 -49 17.5 -67t66.5 -18z" />
    <glyph glyph-name="odieresis" unicode="&#xf6;" horiz-adv-x="678" 
d="M187 588v88h96v-88h-96zM395 588v88h96v-88h-96zM220 0q-88 0 -127 38.5t-39 127.5v196q0 89 39 127.5t127 38.5h238q88 0 127 -38.5t39 -127.5v-196q0 -89 -39 -127.5t-127 -38.5h-238zM260 98h158q49 0 66.5 18t17.5 67v162q0 49 -17.5 67t-66.5 18h-158
q-49 0 -66.5 -18t-17.5 -67v-162q0 -49 17.5 -67t66.5 -18z" />
    <glyph glyph-name="divide" unicode="&#xf7;" 
d="M302 540v112h148v-112h-148zM68 402h616v-104h-616v104zM302 48v112h148v-112h-148z" />
    <glyph glyph-name="oslash" unicode="&#xf8;" horiz-adv-x="678" 
d="M586 489q38 -39 38 -127v-196q0 -89 -39 -127.5t-127 -38.5h-238q-43 0 -73 9l-41 -45h-82l68 75q-38 39 -38 127v196q0 89 39 127.5t127 38.5h238q43 0 73 -9l41 45h82zM164 175q0 -33 7 -50l285 312q-8 1 -26 1h-182q-49 0 -66.5 -18t-17.5 -67v-178zM514 175v178
q0 33 -7 50l-285 -312q8 -1 26 -1h182q49 0 66.5 18t17.5 67z" />
    <glyph glyph-name="ugrave" unicode="&#xf9;" horiz-adv-x="682" 
d="M386 576h-101l-124 124h132zM619 528v-528h-100l-14 73l-9 -7q-51 -42 -91.5 -54t-116.5 -12h-63q-88 0 -127 38.5t-39 127.5v362h121v-342q0 -49 18 -67t67 -18h62q85 0 130 34l40 30v363h122z" />
    <glyph glyph-name="uacute" unicode="&#xfa;" horiz-adv-x="682" 
d="M515 700l-123 -124h-102l94 124h131zM619 528v-528h-100l-14 73l-9 -7q-51 -42 -91.5 -54t-116.5 -12h-63q-88 0 -127 38.5t-39 127.5v362h121v-342q0 -49 18 -67t67 -18h62q85 0 130 34l40 30v363h122z" />
    <glyph glyph-name="ucircumflex" unicode="&#xfb;" horiz-adv-x="682" 
d="M338 648l-95 -72h-92l126 124h122l126 -124h-92zM619 528v-528h-100l-14 73l-9 -7q-51 -42 -91.5 -54t-116.5 -12h-63q-88 0 -127 38.5t-39 127.5v362h121v-342q0 -49 18 -67t67 -18h62q85 0 130 34l40 30v363h122z" />
    <glyph glyph-name="udieresis" unicode="&#xfc;" horiz-adv-x="682" 
d="M282 676v-88h-96v88h96zM490 676v-88h-96v88h96zM619 528v-528h-100l-14 73l-9 -7q-51 -42 -91.5 -54t-116.5 -12h-63q-88 0 -127 38.5t-39 127.5v362h121v-342q0 -49 18 -67t67 -18h62q85 0 130 34l40 30v363h122z" />
    <glyph glyph-name="yacute" unicode="&#xfd;" horiz-adv-x="638" 
d="M496 700l-123 -124h-102l94 124h131zM502 528h130l-265 -540q-45 -92 -92.5 -120t-151.5 -28h-69v98h79q52 0 78 14t49 57l-254 519h135l179 -403z" />
    <glyph glyph-name="thorn" unicode="&#xfe;" horiz-adv-x="687" 
d="M467 528q88 0 127 -38.5t39 -127.5v-196q0 -89 -39 -127.5t-127 -38.5h-73q-76 0 -116.5 12t-91.5 54l-1 1v-227h-122v860h122v-239l1 1q51 42 91.5 54t116.5 12h73zM512 183v162q0 49 -18 67t-67 18h-72q-83 0 -130 -35l-40 -30v-202l40 -30q47 -35 130 -35h72
q49 0 67 18t18 67z" />
    <glyph glyph-name="ydieresis" unicode="&#xff;" horiz-adv-x="638" 
d="M263 676v-88h-96v88h96zM471 676v-88h-96v88h96zM502 528h130l-265 -540q-45 -92 -92.5 -120t-151.5 -28h-69v98h79q52 0 78 14t49 57l-254 519h135l179 -403z" />
    <glyph glyph-name="Amacron" unicode="&#x100;" horiz-adv-x="799" 
d="M598 844v-66h-392v66h392zM656 0l-68 155h-379l-67 -155h-136l326 700h141l325 -700h-142zM252 252h294l-147 338z" />
    <glyph glyph-name="amacron" unicode="&#x101;" horiz-adv-x="673" 
d="M541 672v-66h-392v66h392zM448 528q88 0 127 -38.5t39 -127.5v-362h-99l-14 71l-17 -13q-46 -38 -80.5 -48t-104.5 -10h-121q-124 0 -124 124v55q0 124 124 124h315v52q0 48 -18.5 66t-67.5 18h-144q-37 0 -52.5 -15t-15.5 -53v-19h-117v34q0 73 35 107.5t107 34.5h228z
M447 114l46 34v83h-258q-34 0 -47 -13.5t-13 -46.5v-28q0 -34 13 -47t47 -13h102q67 0 110 31z" />
    <glyph glyph-name="Abreve" unicode="&#x102;" horiz-adv-x="799" 
d="M290 748q-73 0 -73 73v51h86v-36q0 -30 30 -30h138q30 0 30 30v36h86v-51q0 -73 -73 -73h-224zM656 0l-68 155h-379l-67 -155h-136l326 700h141l325 -700h-142zM252 252h294l-147 338z" />
    <glyph glyph-name="abreve" unicode="&#x103;" horiz-adv-x="673" 
d="M233 576q-73 0 -73 73v51h86v-36q0 -30 30 -30h138q30 0 30 30v36h86v-51q0 -73 -73 -73h-224zM448 528q88 0 127 -38.5t39 -127.5v-362h-99l-14 71l-17 -13q-46 -38 -80.5 -48t-104.5 -10h-121q-124 0 -124 124v55q0 124 124 124h315v52q0 48 -18.5 66t-67.5 18h-144
q-37 0 -52.5 -15t-15.5 -53v-19h-117v34q0 73 35 107.5t107 34.5h228zM447 114l46 34v83h-258q-34 0 -47 -13.5t-13 -46.5v-28q0 -34 13 -47t47 -13h102q67 0 110 31z" />
    <glyph glyph-name="Aogonek" unicode="&#x104;" horiz-adv-x="799" 
d="M709 -90h113v-70h-142q-42 0 -61 19t-19 61v15q0 32 8.5 49t37.5 37h1l-59 134h-379l-67 -155h-136l326 700h141l325 -700h-84l-14 -9q-22 -14 -22 -37v-13q0 -17 7 -24t24 -7zM252 252h294l-147 338z" />
    <glyph glyph-name="aogonek" unicode="&#x105;" horiz-adv-x="673" 
d="M562 -90h89v-70h-118q-41 0 -60.5 19t-19.5 61v15q0 32 8.5 49t37.5 37l11 6l-9 44l-17 -13q-46 -38 -80.5 -48t-104.5 -10h-121q-124 0 -124 124v55q0 124 124 124h315v52q0 48 -18.5 66t-67.5 18h-144q-37 0 -52.5 -15t-15.5 -53v-19h-117v34q0 73 35 107.5t107 34.5
h228q88 0 127 -38.5t39 -127.5v-362h-47l-14 -9q-22 -14 -22 -37v-13q0 -17 7 -24t24 -7zM447 114l46 34v83h-258q-34 0 -47 -13.5t-13 -46.5v-28q0 -34 13 -47t47 -13h102q67 0 110 31z" />
    <glyph glyph-name="Cacute" unicode="&#x106;" horiz-adv-x="772" 
d="M440 748h-102l94 124h131zM241 0q-96 0 -141 45t-45 141v328q0 96 45 141t141 45h294q96 0 141 -45t45 -141v-74h-124v52q0 55 -22.5 77.5t-77.5 22.5h-214q-55 0 -77.5 -22.5t-22.5 -77.5v-284q0 -55 22.5 -77.5t77.5 -22.5h214q55 0 77.5 22.5t22.5 77.5v61h124v-83
q0 -96 -45 -141t-141 -45h-294z" />
    <glyph glyph-name="cacute" unicode="&#x107;" horiz-adv-x="654" 
d="M381 576h-102l94 124h131zM54 166v196q0 89 39 127.5t127 38.5h214q88 0 127 -38.5t39 -127.5v-41h-118v24q0 49 -17.5 67t-66.5 18h-138q-49 0 -66.5 -18t-17.5 -67v-162q0 -49 17.5 -67t66.5 -18h138q49 0 66.5 18t17.5 67v32h118v-49q0 -89 -39 -127.5t-127 -38.5
h-214q-88 0 -127 38.5t-39 127.5z" />
    <glyph glyph-name="Ccircumflex" unicode="&#x108;" horiz-adv-x="772" 
d="M199 748l126 124h122l126 -124h-92l-95 72l-95 -72h-92zM241 0q-96 0 -141 45t-45 141v328q0 96 45 141t141 45h294q96 0 141 -45t45 -141v-74h-124v52q0 55 -22.5 77.5t-77.5 22.5h-214q-55 0 -77.5 -22.5t-22.5 -77.5v-284q0 -55 22.5 -77.5t77.5 -22.5h214
q55 0 77.5 22.5t22.5 77.5v61h124v-83q0 -96 -45 -141t-141 -45h-294z" />
    <glyph glyph-name="ccircumflex" unicode="&#x109;" horiz-adv-x="654" 
d="M140 576l126 124h122l126 -124h-92l-95 72l-95 -72h-92zM54 166v196q0 89 39 127.5t127 38.5h214q88 0 127 -38.5t39 -127.5v-41h-118v24q0 49 -17.5 67t-66.5 18h-138q-49 0 -66.5 -18t-17.5 -67v-162q0 -49 17.5 -67t66.5 -18h138q49 0 66.5 18t17.5 67v32h118v-49
q0 -89 -39 -127.5t-127 -38.5h-214q-88 0 -127 38.5t-39 127.5z" />
    <glyph glyph-name="Cdotaccent" unicode="&#x10a;" horiz-adv-x="772" 
d="M324 760v88h123v-88h-123zM241 0q-96 0 -141 45t-45 141v328q0 96 45 141t141 45h294q96 0 141 -45t45 -141v-74h-124v52q0 55 -22.5 77.5t-77.5 22.5h-214q-55 0 -77.5 -22.5t-22.5 -77.5v-284q0 -55 22.5 -77.5t77.5 -22.5h214q55 0 77.5 22.5t22.5 77.5v61h124v-83
q0 -96 -45 -141t-141 -45h-294z" />
    <glyph glyph-name="cdotaccent" unicode="&#x10b;" horiz-adv-x="654" 
d="M265 588v88h123v-88h-123zM54 166v196q0 89 39 127.5t127 38.5h214q88 0 127 -38.5t39 -127.5v-41h-118v24q0 49 -17.5 67t-66.5 18h-138q-49 0 -66.5 -18t-17.5 -67v-162q0 -49 17.5 -67t66.5 -18h138q49 0 66.5 18t17.5 67v32h118v-49q0 -89 -39 -127.5t-127 -38.5
h-214q-88 0 -127 38.5t-39 127.5z" />
    <glyph glyph-name="Ccaron" unicode="&#x10c;" horiz-adv-x="772" 
d="M325 748l-126 124h92l95 -72l95 72h92l-126 -124h-122zM241 0q-96 0 -141 45t-45 141v328q0 96 45 141t141 45h294q96 0 141 -45t45 -141v-74h-124v52q0 55 -22.5 77.5t-77.5 22.5h-214q-55 0 -77.5 -22.5t-22.5 -77.5v-284q0 -55 22.5 -77.5t77.5 -22.5h214
q55 0 77.5 22.5t22.5 77.5v61h124v-83q0 -96 -45 -141t-141 -45h-294z" />
    <glyph glyph-name="ccaron" unicode="&#x10d;" horiz-adv-x="654" 
d="M266 576l-126 124h92l95 -72l95 72h92l-126 -124h-122zM54 166v196q0 89 39 127.5t127 38.5h214q88 0 127 -38.5t39 -127.5v-41h-118v24q0 49 -17.5 67t-66.5 18h-138q-49 0 -66.5 -18t-17.5 -67v-162q0 -49 17.5 -67t66.5 -18h138q49 0 66.5 18t17.5 67v32h118v-49
q0 -89 -39 -127.5t-127 -38.5h-214q-88 0 -127 38.5t-39 127.5z" />
    <glyph glyph-name="Dcaron" unicode="&#x10e;" horiz-adv-x="799" 
d="M338 748l-126 124h92l95 -72l95 72h92l-126 -124h-122zM64 0v700h450q112 0 171 -58.5t59 -171.5v-240q0 -113 -59 -171.5t-171 -58.5h-450zM192 110h296q128 0 128 128v224q0 128 -128 128h-296v-480z" />
    <glyph glyph-name="dcaron" unicode="&#x10f;" horiz-adv-x="806" 
d="M502 461v239h122v-700h-100l-14 73l-9 -7q-51 -42 -91 -54t-116 -12h-74q-88 0 -127 38.5t-39 127.5v196q0 89 39 127.5t127 38.5h74q76 0 116 -12t91 -54zM670 700h124v-49q0 -39 -20 -77l-35 -70h-65l41 100h-45v96zM463 133l39 30v202l-39 30q-48 35 -131 35h-72
q-49 0 -66.5 -18t-17.5 -67v-162q0 -49 17.5 -67t66.5 -18h72q83 0 131 35z" />
    <glyph glyph-name="Dcroat" unicode="&#x110;" horiz-adv-x="859" 
d="M574 700q112 0 171 -58.5t59 -171.5v-240q0 -113 -59 -171.5t-171 -58.5h-450v310h-92v80h92v310h450zM676 238v224q0 128 -128 128h-296v-200h226v-80h-226v-200h296q128 0 128 128z" />
    <glyph glyph-name="dcroat" unicode="&#x111;" horiz-adv-x="728" 
d="M706 641v-62h-82v-579h-100l-14 73l-9 -7q-51 -42 -91 -54t-116 -12h-74q-88 0 -127 38.5t-39 127.5v196q0 89 39 127.5t127 38.5h74q76 0 116 -12t91 -54l1 -1v118h-188v62h188v59h122v-59h82zM463 133l39 30v202l-39 30q-48 35 -131 35h-72q-49 0 -66.5 -18t-17.5 -67
v-162q0 -49 17.5 -67t66.5 -18h72q83 0 131 35z" />
    <glyph glyph-name="Emacron" unicode="&#x112;" horiz-adv-x="678" 
d="M535 844v-66h-392v66h392zM192 107h454v-107h-582v700h572v-107h-444v-180h404v-99h-404v-207z" />
    <glyph glyph-name="emacron" unicode="&#x113;" horiz-adv-x="668" 
d="M530 672v-66h-392v66h392zM448 528q88 0 127 -38.5t39 -127.5v-114h-439v-67q0 -49 18.5 -67t67.5 -18h168q37 0 52.5 15.5t15.5 52.5v23h117v-45q0 -73 -35 -107.5t-107 -34.5h-252q-88 0 -127 38.5t-39 127.5v196q0 89 39 127.5t127 38.5h228zM175 326h322v28
q0 49 -18.5 67t-67.5 18h-150q-49 0 -67.5 -18t-18.5 -67v-28z" />
    <glyph glyph-name="Ebreve" unicode="&#x114;" horiz-adv-x="678" 
d="M227 748q-73 0 -73 73v51h86v-36q0 -30 30 -30h138q30 0 30 30v36h86v-51q0 -73 -73 -73h-224zM192 107h454v-107h-582v700h572v-107h-444v-180h404v-99h-404v-207z" />
    <glyph glyph-name="ebreve" unicode="&#x115;" horiz-adv-x="668" 
d="M222 576q-73 0 -73 73v51h86v-36q0 -30 30 -30h138q30 0 30 30v36h86v-51q0 -73 -73 -73h-224zM448 528q88 0 127 -38.5t39 -127.5v-114h-439v-67q0 -49 18.5 -67t67.5 -18h168q37 0 52.5 15.5t15.5 52.5v23h117v-45q0 -73 -35 -107.5t-107 -34.5h-252q-88 0 -127 38.5
t-39 127.5v196q0 89 39 127.5t127 38.5h228zM175 326h322v28q0 49 -18.5 67t-67.5 18h-150q-49 0 -67.5 -18t-18.5 -67v-28z" />
    <glyph glyph-name="Edotaccent" unicode="&#x116;" horiz-adv-x="678" 
d="M400 848v-88h-123v88h123zM192 107h454v-107h-582v700h572v-107h-444v-180h404v-99h-404v-207z" />
    <glyph glyph-name="edotaccent" unicode="&#x117;" horiz-adv-x="668" 
d="M395 676v-88h-123v88h123zM448 528q88 0 127 -38.5t39 -127.5v-114h-439v-67q0 -49 18.5 -67t67.5 -18h168q37 0 52.5 15.5t15.5 52.5v23h117v-45q0 -73 -35 -107.5t-107 -34.5h-252q-88 0 -127 38.5t-39 127.5v196q0 89 39 127.5t127 38.5h228zM175 326h322v28
q0 49 -18.5 67t-67.5 18h-150q-49 0 -67.5 -18t-18.5 -67v-28z" />
    <glyph glyph-name="Eogonek" unicode="&#x118;" horiz-adv-x="678" 
d="M514 -9q-22 -14 -22 -37v-13q0 -17 7 -24t24 -7h113v-70h-142q-42 0 -61 19t-19 61v15q0 44 20 65h-370v700h572v-107h-444v-180h404v-99h-404v-207h454v-107h-118z" />
    <glyph glyph-name="eogonek" unicode="&#x119;" horiz-adv-x="668" 
d="M448 528q88 0 127 -38.5t39 -127.5v-114h-439v-67q0 -49 18.5 -67t67.5 -18h168q37 0 52.5 15.5t15.5 52.5v23h117v-45q0 -73 -35 -107.5t-107 -34.5h-82l-14 -9q-22 -14 -22 -37v-13q0 -17 7 -24t24 -7h113v-70h-142q-42 0 -61 19t-19 61v15q0 44 20 65h-76
q-88 0 -127 38.5t-39 127.5v196q0 89 39 127.5t127 38.5h228zM175 326h322v28q0 49 -18.5 67t-67.5 18h-150q-49 0 -67.5 -18t-18.5 -67v-28z" />
    <glyph glyph-name="Ecaron" unicode="&#x11a;" horiz-adv-x="678" 
d="M400 748h-122l-126 124h92l95 -72l95 72h92zM192 107h454v-107h-582v700h572v-107h-444v-180h404v-99h-404v-207z" />
    <glyph glyph-name="ecaron" unicode="&#x11b;" horiz-adv-x="668" 
d="M395 576h-122l-126 124h92l95 -72l95 72h92zM448 528q88 0 127 -38.5t39 -127.5v-114h-439v-67q0 -49 18.5 -67t67.5 -18h168q37 0 52.5 15.5t15.5 52.5v23h117v-45q0 -73 -35 -107.5t-107 -34.5h-252q-88 0 -127 38.5t-39 127.5v196q0 89 39 127.5t127 38.5h228z
M175 326h322v28q0 49 -18.5 67t-67.5 18h-150q-49 0 -67.5 -18t-18.5 -67v-28z" />
    <glyph glyph-name="Gcircumflex" unicode="&#x11c;" horiz-adv-x="799" 
d="M213 748l126 124h122l126 -124h-92l-95 72l-95 -72h-92zM55 186v328q0 96 45 141t141 45h318q96 0 141 -45t45 -141v-42h-128v21q0 55 -22.5 77.5t-77.5 22.5h-234q-55 0 -77.5 -22.5t-22.5 -77.5v-289q0 -55 22.5 -77.5t77.5 -22.5h238q55 0 77.5 22.5t22.5 77.5v72
h-204v99h328v-189q0 -96 -45 -141t-141 -45h-318q-96 0 -141 45t-45 141z" />
    <glyph glyph-name="gcircumflex" unicode="&#x11d;" horiz-adv-x="687" 
d="M343 648l-95 -72h-92l126 124h122l126 -124h-92zM525 528h99v-502q0 -96 -45 -141t-141 -45h-364v92h329q55 0 77.5 22.5t22.5 77.5v73l-2 -2q-50 -42 -92 -54t-116 -12h-73q-88 0 -127 38.5t-39 127.5v159q0 89 39 127.5t127 38.5h73q74 0 116 -12t92 -53l10 -8z
M463 168l40 29v171l-40 30q-45 34 -131 34h-72q-49 0 -67 -18t-18 -67v-129q0 -49 18 -67t67 -18h72q84 0 131 35z" />
    <glyph glyph-name="Gbreve" unicode="&#x11e;" horiz-adv-x="799" 
d="M288 748q-73 0 -73 73v51h86v-36q0 -30 30 -30h138q30 0 30 30v36h86v-51q0 -73 -73 -73h-224zM55 186v328q0 96 45 141t141 45h318q96 0 141 -45t45 -141v-42h-128v21q0 55 -22.5 77.5t-77.5 22.5h-234q-55 0 -77.5 -22.5t-22.5 -77.5v-289q0 -55 22.5 -77.5t77.5 -22.5
h238q55 0 77.5 22.5t22.5 77.5v72h-204v99h328v-189q0 -96 -45 -141t-141 -45h-318q-96 0 -141 45t-45 141z" />
    <glyph glyph-name="gbreve" unicode="&#x11f;" horiz-adv-x="687" 
d="M231 576q-73 0 -73 73v51h86v-36q0 -30 30 -30h138q30 0 30 30v36h86v-51q0 -73 -73 -73h-224zM525 528h99v-502q0 -96 -45 -141t-141 -45h-364v92h329q55 0 77.5 22.5t22.5 77.5v73l-2 -2q-50 -42 -92 -54t-116 -12h-73q-88 0 -127 38.5t-39 127.5v159q0 89 39 127.5
t127 38.5h73q74 0 116 -12t92 -53l10 -8zM463 168l40 29v171l-40 30q-45 34 -131 34h-72q-49 0 -67 -18t-18 -67v-129q0 -49 18 -67t67 -18h72q84 0 131 35z" />
    <glyph glyph-name="Gdotaccent" unicode="&#x120;" horiz-adv-x="799" 
d="M338 760v88h123v-88h-123zM55 186v328q0 96 45 141t141 45h318q96 0 141 -45t45 -141v-42h-128v21q0 55 -22.5 77.5t-77.5 22.5h-234q-55 0 -77.5 -22.5t-22.5 -77.5v-289q0 -55 22.5 -77.5t77.5 -22.5h238q55 0 77.5 22.5t22.5 77.5v72h-204v99h328v-189q0 -96 -45 -141
t-141 -45h-318q-96 0 -141 45t-45 141z" />
    <glyph glyph-name="gdotaccent" unicode="&#x121;" horiz-adv-x="687" 
d="M404 676v-88h-123v88h123zM525 528h99v-502q0 -96 -45 -141t-141 -45h-364v92h329q55 0 77.5 22.5t22.5 77.5v73l-2 -2q-50 -42 -92 -54t-116 -12h-73q-88 0 -127 38.5t-39 127.5v159q0 89 39 127.5t127 38.5h73q74 0 116 -12t92 -53l10 -8zM463 168l40 29v171l-40 30
q-45 34 -131 34h-72q-49 0 -67 -18t-18 -67v-129q0 -49 18 -67t67 -18h72q84 0 131 35z" />
    <glyph glyph-name="Gcommaaccent" unicode="&#x122;" horiz-adv-x="799" 
d="M55 186v328q0 96 45 141t141 45h318q96 0 141 -45t45 -141v-42h-128v21q0 55 -22.5 77.5t-77.5 22.5h-234q-55 0 -77.5 -22.5t-22.5 -77.5v-289q0 -55 22.5 -77.5t77.5 -22.5h238q55 0 77.5 22.5t22.5 77.5v72h-204v99h328v-189q0 -96 -45 -141t-141 -45h-318
q-96 0 -141 45t-45 141zM342 -196l41 82h-45v84h124v-35q0 -25 -4 -38.5t-18 -35.5l-33 -57h-65z" />
    <glyph glyph-name="gcommaaccent" unicode="&#x123;" horiz-adv-x="687" 
d="M405 660v-84h-124v35q0 25 4 38.5t18 35.5l33 57h65l-41 -82h45zM525 528h99v-502q0 -96 -45 -141t-141 -45h-364v92h329q55 0 77.5 22.5t22.5 77.5v73l-2 -2q-50 -42 -92 -54t-116 -12h-73q-88 0 -127 38.5t-39 127.5v159q0 89 39 127.5t127 38.5h73q74 0 116 -12
t92 -53l10 -8zM463 168l40 29v171l-40 30q-45 34 -131 34h-72q-49 0 -67 -18t-18 -67v-129q0 -49 18 -67t67 -18h72q84 0 131 35z" />
    <glyph glyph-name="Hcircumflex" unicode="&#x124;" horiz-adv-x="788" 
d="M394 820l-95 -72h-92l126 124h122l126 -124h-92zM596 700h128v-700h-128v309h-404v-309h-128v700h128v-277h404v277z" />
    <glyph glyph-name="hcircumflex" unicode="&#x125;" horiz-adv-x="682" 
d="M219 748l-95 72l-95 -72h-92l126 124h122l126 -124h-92zM457 528q88 0 127 -38.5t39 -127.5v-362h-121v342q0 49 -18 67t-67 18h-62q-85 0 -130 -34l-40 -30v-363h-122v700h122v-242l5 4q51 42 91.5 54t116.5 12h59z" />
    <glyph glyph-name="Hbar" unicode="&#x126;" horiz-adv-x="908" 
d="M876 600v-73h-92v-527h-128v309h-404v-309h-128v527h-92v73h92v100h128v-100h404v100h128v-100h92zM656 423v104h-404v-104h404z" />
    <glyph glyph-name="hbar" unicode="&#x127;" horiz-adv-x="723" 
d="M504 528q88 0 127 -38.5t39 -127.5v-362h-121v342q0 49 -18 67t-67 18h-62q-85 0 -130 -34l-40 -30v-363h-122v579h-88v62h88v59h122v-59h182v-62h-182v-121l5 4q51 42 91.5 54t116.5 12h59z" />
    <glyph glyph-name="Itilde" unicode="&#x128;" horiz-adv-x="268" 
d="M-51 748v74q0 50 50 50h87q23 0 35.5 -5t26.5 -21l38 -38q10 -10 25 -10h20q15 0 15 14v60h73v-74q0 -50 -50 -50h-87q-23 0 -35.5 5t-26.5 21l-38 38q-10 10 -25 10h-20q-15 0 -15 -14v-60h-73zM69 700h130v-700h-130v700z" />
    <glyph glyph-name="itilde" unicode="&#x129;" horiz-adv-x="258" 
d="M-56 576v74q0 50 50 50h87q23 0 35.5 -5t26.5 -21l38 -38q10 -10 25 -10h20q15 0 15 14v60h73v-74q0 -50 -50 -50h-87q-23 0 -35.5 5t-26.5 21l-38 38q-10 10 -25 10h-20q-15 0 -15 -14v-60h-73zM67 0v528h123v-528h-123z" />
    <glyph glyph-name="Imacron" unicode="&#x12a;" horiz-adv-x="268" 
d="M-62 778v66h392v-66h-392zM69 700h130v-700h-130v700z" />
    <glyph glyph-name="imacron" unicode="&#x12b;" horiz-adv-x="258" 
d="M-67 606v66h392v-66h-392zM67 0v528h123v-528h-123z" />
    <glyph glyph-name="Ibreve" unicode="&#x12c;" horiz-adv-x="268" 
d="M22 748q-73 0 -73 73v51h86v-36q0 -30 30 -30h138q30 0 30 30v36h86v-51q0 -73 -73 -73h-224zM69 700h130v-700h-130v700z" />
    <glyph glyph-name="ibreve" unicode="&#x12d;" horiz-adv-x="258" 
d="M17 576q-73 0 -73 73v51h86v-36q0 -30 30 -30h138q30 0 30 30v36h86v-51q0 -73 -73 -73h-224zM67 0v528h123v-528h-123z" />
    <glyph glyph-name="Iogonek" unicode="&#x12e;" horiz-adv-x="268" 
d="M123 -90h113v-70h-142q-42 0 -61 19t-19 61v15q0 32 8.5 49t37.5 37l9 5v674h130v-700h-71l-14 -9q-22 -14 -22 -37v-13q0 -17 7 -24t24 -7z" />
    <glyph glyph-name="iogonek" unicode="&#x12f;" horiz-adv-x="258" 
d="M190 676v-88h-123v88h123zM110 -90h113v-70h-142q-42 0 -61 19t-19 61v15q0 32 8.5 49t37.5 37l20 11v496h123v-528h-75l-14 -9q-22 -14 -22 -37v-13q0 -17 7 -24t24 -7z" />
    <glyph glyph-name="Idotaccent" unicode="&#x130;" horiz-adv-x="268" 
d="M69 760v88h130v-88h-130zM69 700h130v-700h-130v700z" />
    <glyph glyph-name="dotlessi" unicode="&#x131;" horiz-adv-x="258" 
d="M67 0v528h123v-528h-123z" />
    <glyph glyph-name="IJ" unicode="&#x132;" horiz-adv-x="972" 
d="M69 700h130v-700h-130v700zM486 0q-96 0 -141 45t-45 141v82h124v-60q0 -55 22.5 -77.5t77.5 -22.5h164q55 0 77.5 22.5t22.5 77.5v492h128v-514q0 -96 -45 -141t-141 -45h-244z" />
    <glyph glyph-name="ij" unicode="&#x133;" horiz-adv-x="514" 
d="M67 601v99h124v-99h-124zM324 601v99h124v-99h-124zM67 0v528h124v-528h-124zM235 -160v95h21q38 0 53 15t15 53v525h124v-546q0 -73 -35 -107.5t-107 -34.5h-71z" />
    <glyph glyph-name="Jcircumflex" unicode="&#x134;" horiz-adv-x="704" 
d="M397 748l126 124h122l126 -124h-92l-95 72l-95 -72h-92zM218 0q-96 0 -141 45t-45 141v82h124v-60q0 -55 22.5 -77.5t77.5 -22.5h164q55 0 77.5 22.5t22.5 77.5v492h128v-514q0 -96 -45 -141t-141 -45h-244z" />
    <glyph glyph-name="jcircumflex" unicode="&#x135;" horiz-adv-x="258" 
d="M-58 576l126 124h122l126 -124h-92l-95 72l-95 -72h-92zM-22 -160v94h21q37 0 52.5 15t15.5 53v526h123v-546q0 -74 -34.5 -108t-107.5 -34h-70z" />
    <glyph glyph-name="Kcommaaccent" unicode="&#x136;" horiz-adv-x="750" 
d="M351 362l393 -362h-189l-363 346v-346h-128v700h128v-328l358 328h190zM304 -114v84h124v-35q0 -25 -4 -38.5t-18 -35.5l-33 -57h-65l41 82h-45z" />
    <glyph glyph-name="kcommaaccent" unicode="&#x137;" horiz-adv-x="644" 
d="M329 266l313 -266h-179l-278 250v-250h-122v700h122v-424l274 252h177zM260 -114v84h124v-35q0 -25 -4 -38.5t-18 -35.5l-33 -57h-65l41 82h-45z" />
    <glyph glyph-name="Lacute" unicode="&#x139;" horiz-adv-x="612" 
d="M305 872l-123 -124h-102l94 124h131zM192 114h404v-114h-532v700h128v-586z" />
    <glyph glyph-name="lacute" unicode="&#x13a;" horiz-adv-x="258" 
d="M183 748h-102l94 124h131zM67 0v700h123v-700h-123z" />
    <glyph glyph-name="Lcommaaccent" unicode="&#x13b;" horiz-adv-x="612" 
d="M192 114h404v-114h-532v700h128v-586zM244 -114v84h124v-35q0 -25 -4 -38.5t-18 -35.5l-33 -57h-65l41 82h-45z" />
    <glyph glyph-name="lcommaaccent" unicode="&#x13c;" horiz-adv-x="258" 
d="M67 0v700h123v-700h-123zM71 -196l41 82h-45v84h124v-35q0 -25 -4 -38.5t-18 -35.5l-33 -57h-65z" />
    <glyph glyph-name="Lcaron" unicode="&#x13d;" horiz-adv-x="612" 
d="M192 114h404v-114h-532v700h128v-586zM374 504l41 100h-45v96h124v-49q0 -39 -20 -77l-35 -70h-65z" />
    <glyph glyph-name="lcaron" unicode="&#x13e;" horiz-adv-x="378" 
d="M67 0v700h123v-700h-123zM246 504l42 100h-46v96h124v-49q0 -39 -20 -77l-34 -70h-66z" />
    <glyph glyph-name="Ldot" unicode="&#x13f;" horiz-adv-x="612" 
d="M192 114h404v-114h-532v700h128v-586zM494 482v-140h-148v140h148z" />
    <glyph glyph-name="ldot" unicode="&#x140;" horiz-adv-x="422" 
d="M67 0v700h123v-700h-123zM258 310v140h148v-140h-148z" />
    <glyph glyph-name="Lslash" unicode="&#x141;" horiz-adv-x="672" 
d="M252 114h404v-114h-532v325l-92 -15v80l92 15v295h128v-273l262 43v-80l-262 -43v-233z" />
    <glyph glyph-name="lslash" unicode="&#x142;" horiz-adv-x="343" 
d="M321 430v-80l-88 -18v-332h-123v308l-88 -18v80l88 18v312h123v-288z" />
    <glyph glyph-name="Nacute" unicode="&#x143;" horiz-adv-x="808" 
d="M577 872l-123 -124h-102l94 124h131zM620 700h124v-700h-102l-454 516v-516h-124v700h108l448 -508v508z" />
    <glyph glyph-name="nacute" unicode="&#x144;" horiz-adv-x="682" 
d="M518 700l-123 -124h-102l94 124h131zM457 528q88 0 127 -38.5t39 -127.5v-362h-121v342q0 49 -18 67t-67 18h-62q-85 0 -130 -34l-40 -30v-363h-122v528h100l14 -73l9 7q51 42 91.5 54t116.5 12h63z" />
    <glyph glyph-name="Ncommaaccent" unicode="&#x145;" horiz-adv-x="808" 
d="M620 700h124v-700h-102l-454 516v-516h-124v700h108l448 -508v508zM342 -114v84h124v-35q0 -25 -4 -38.5t-18 -35.5l-33 -57h-65l41 82h-45z" />
    <glyph glyph-name="ncommaaccent" unicode="&#x146;" horiz-adv-x="682" 
d="M457 528q88 0 127 -38.5t39 -127.5v-362h-121v342q0 49 -18 67t-67 18h-62q-85 0 -130 -34l-40 -30v-363h-122v528h100l14 -73l9 7q51 42 91.5 54t116.5 12h63zM279 -114v84h124v-35q0 -25 -4 -38.5t-18 -35.5l-33 -57h-65l41 82h-45z" />
    <glyph glyph-name="Ncaron" unicode="&#x147;" horiz-adv-x="808" 
d="M461 748h-122l-126 124h92l95 -72l95 72h92zM620 700h124v-700h-102l-454 516v-516h-124v700h108l448 -508v508z" />
    <glyph glyph-name="ncaron" unicode="&#x148;" horiz-adv-x="682" 
d="M402 576h-122l-126 124h92l95 -72l95 72h92zM457 528q88 0 127 -38.5t39 -127.5v-362h-121v342q0 49 -18 67t-67 18h-62q-85 0 -130 -34l-40 -30v-363h-122v528h100l14 -73l9 7q51 42 91.5 54t116.5 12h63z" />
    <glyph glyph-name="Eng" unicode="&#x14a;" horiz-adv-x="808" 
d="M620 700h124v-684q0 -92 -42.5 -134t-133.5 -42h-124v94h86q51 0 70.5 19t19.5 71v1l-432 491v-516h-124v700h108l448 -508v508z" />
    <glyph glyph-name="eng" unicode="&#x14b;" horiz-adv-x="670" 
d="M445 528q88 0 127 -38.5t39 -127.5v-380q0 -74 -34.5 -108t-107.5 -34h-71l2 94h22q38 0 53 15t15 53v340q0 49 -18 67t-67 18h-50q-85 0 -130 -34l-40 -30v-363h-122v528h100l14 -73l9 7q51 42 91.5 54t116.5 12h51z" />
    <glyph glyph-name="Omacron" unicode="&#x14c;" horiz-adv-x="800" 
d="M204 778v66h392v-66h-392zM241 0q-96 0 -141 45t-45 141v328q0 96 45 141t141 45h318q96 0 141 -45t45 -141v-328q0 -96 -45 -141t-141 -45h-318zM283 110h234q55 0 77.5 22.5t22.5 77.5v280q0 55 -22.5 77.5t-77.5 22.5h-234q-55 0 -77.5 -22t-22.5 -78v-280
q0 -56 22.5 -78t77.5 -22z" />
    <glyph glyph-name="omacron" unicode="&#x14d;" horiz-adv-x="678" 
d="M143 606v66h392v-66h-392zM220 0q-88 0 -127 38.5t-39 127.5v196q0 89 39 127.5t127 38.5h238q88 0 127 -38.5t39 -127.5v-196q0 -89 -39 -127.5t-127 -38.5h-238zM260 98h158q49 0 66.5 18t17.5 67v162q0 49 -17.5 67t-66.5 18h-158q-49 0 -66.5 -18t-17.5 -67v-162
q0 -49 17.5 -67t66.5 -18z" />
    <glyph glyph-name="Obreve" unicode="&#x14e;" horiz-adv-x="800" 
d="M288 748q-73 0 -73 73v51h86v-36q0 -30 30 -30h138q30 0 30 30v36h86v-51q0 -73 -73 -73h-224zM241 0q-96 0 -141 45t-45 141v328q0 96 45 141t141 45h318q96 0 141 -45t45 -141v-328q0 -96 -45 -141t-141 -45h-318zM283 110h234q55 0 77.5 22.5t22.5 77.5v280
q0 55 -22.5 77.5t-77.5 22.5h-234q-55 0 -77.5 -22t-22.5 -78v-280q0 -56 22.5 -78t77.5 -22z" />
    <glyph glyph-name="obreve" unicode="&#x14f;" horiz-adv-x="678" 
d="M227 576q-73 0 -73 73v51h86v-36q0 -30 30 -30h138q30 0 30 30v36h86v-51q0 -73 -73 -73h-224zM220 0q-88 0 -127 38.5t-39 127.5v196q0 89 39 127.5t127 38.5h238q88 0 127 -38.5t39 -127.5v-196q0 -89 -39 -127.5t-127 -38.5h-238zM260 98h158q49 0 66.5 18t17.5 67
v162q0 49 -17.5 67t-66.5 18h-158q-49 0 -66.5 -18t-17.5 -67v-162q0 -49 17.5 -67t66.5 -18z" />
    <glyph glyph-name="Ohungarumlaut" unicode="&#x150;" horiz-adv-x="800" 
d="M334 748h-100l84 124h126zM550 748h-101l84 124h126zM241 0q-96 0 -141 45t-45 141v328q0 96 45 141t141 45h318q96 0 141 -45t45 -141v-328q0 -96 -45 -141t-141 -45h-318zM283 110h234q55 0 77.5 22.5t22.5 77.5v280q0 55 -22.5 77.5t-77.5 22.5h-234q-55 0 -77.5 -22
t-22.5 -78v-280q0 -56 22.5 -78t77.5 -22z" />
    <glyph glyph-name="ohungarumlaut" unicode="&#x151;" horiz-adv-x="678" 
d="M273 576h-100l84 124h126zM489 576h-101l84 124h126zM220 0q-88 0 -127 38.5t-39 127.5v196q0 89 39 127.5t127 38.5h238q88 0 127 -38.5t39 -127.5v-196q0 -89 -39 -127.5t-127 -38.5h-238zM260 98h158q49 0 66.5 18t17.5 67v162q0 49 -17.5 67t-66.5 18h-158
q-49 0 -66.5 -18t-17.5 -67v-162q0 -49 17.5 -67t66.5 -18z" />
    <glyph glyph-name="OE" unicode="&#x152;" horiz-adv-x="1221" 
d="M735 107h454v-107h-948q-96 0 -141 45t-45 141v328q0 96 45 141t141 45h938v-107h-444v-180h404v-99h-404v-207zM607 109v482h-324q-55 0 -77.5 -22.5t-22.5 -77.5v-282q0 -55 22.5 -77.5t77.5 -22.5h324z" />
    <glyph glyph-name="oe" unicode="&#x153;" horiz-adv-x="1117" 
d="M897 528q88 0 127 -38.5t39 -127.5v-114h-439v-67q0 -49 18 -67t67 -18h168q37 0 52.5 15t15.5 53v23h118v-45q0 -73 -35 -107.5t-107 -34.5h-229q-98 0 -130 56q-33 -56 -131 -56h-211q-88 0 -127 38.5t-39 127.5v196q0 89 39 127.5t127 38.5h211q98 0 131 -56
q32 56 130 56h205zM624 326h321v28q0 49 -18 67t-67 18h-151q-49 0 -67 -18t-18 -67v-28zM502 183v162q0 49 -18 66.5t-67 17.5h-157q-49 0 -67 -17.5t-18 -66.5v-162q0 -49 18 -66.5t67 -17.5h157q49 0 67 17.5t18 66.5z" />
    <glyph glyph-name="Racute" unicode="&#x154;" horiz-adv-x="762" 
d="M558 872l-123 -124h-102l94 124h131zM734 0h-143l-183 262h-216v-262h-128v700h474q88 0 127 -38.5t39 -127.5v-98q0 -88 -38 -126.5t-125 -39.5zM192 602v-244h299q49 0 67 17.5t18 66.5v76q0 49 -18 66.5t-67 17.5h-299z" />
    <glyph glyph-name="racute" unicode="&#x155;" horiz-adv-x="446" 
d="M404 700l-123 -124h-102l94 124h131zM390 528h40v-113h-75q-85 0 -130 -34l-40 -30v-351h-122v528h88l15 -78l16 12q51 42 91.5 54t116.5 12z" />
    <glyph glyph-name="Rcommaaccent" unicode="&#x156;" horiz-adv-x="762" 
d="M541 270l193 -270h-143l-183 262h-216v-262h-128v700h474q88 0 127 -38.5t39 -127.5v-98q0 -88 -38 -126.5t-125 -39.5zM192 602v-244h299q49 0 67 17.5t18 66.5v76q0 49 -18 66.5t-67 17.5h-299zM319 -114v84h124v-35q0 -25 -4 -38.5t-18 -35.5l-33 -57h-65l41 82h-45z
" />
    <glyph glyph-name="rcommaaccent" unicode="&#x157;" horiz-adv-x="446" 
d="M390 528h40v-113h-75q-85 0 -130 -34l-40 -30v-351h-122v528h88l15 -78l16 12q51 42 91.5 54t116.5 12zM62 -114v84h124v-35q0 -25 -4 -38.5t-18 -35.5l-33 -57h-65l41 82h-45z" />
    <glyph glyph-name="Rcaron" unicode="&#x158;" horiz-adv-x="762" 
d="M442 748h-122l-126 124h92l95 -72l95 72h92zM734 0h-143l-183 262h-216v-262h-128v700h474q88 0 127 -38.5t39 -127.5v-98q0 -88 -38 -126.5t-125 -39.5zM192 602v-244h299q49 0 67 17.5t18 66.5v76q0 49 -18 66.5t-67 17.5h-299z" />
    <glyph glyph-name="rcaron" unicode="&#x159;" horiz-adv-x="446" 
d="M288 576h-122l-126 124h92l95 -72l95 72h92zM390 528h40v-113h-75q-85 0 -130 -34l-40 -30v-351h-122v528h88l15 -78l16 12q51 42 91.5 54t116.5 12z" />
    <glyph glyph-name="Sacute" unicode="&#x15a;" horiz-adv-x="779" 
d="M444 748h-102l94 124h131zM55 142v63h124v-36q0 -38 15 -53t53 -15h282q37 0 52.5 15.5t15.5 52.5v57q0 37 -14.5 50.5t-53.5 17.5l-322 31q-75 6 -108.5 38t-33.5 104v91q0 73 34.5 107.5t107.5 34.5h362q72 0 107 -34.5t35 -107.5v-49h-124v22q0 37 -15.5 52.5
t-52.5 15.5h-258q-38 0 -53 -15t-15 -53v-34q0 -37 14.5 -50.5t53.5 -17.5l322 -30q75 -7 108.5 -38.5t33.5 -103.5v-115q0 -73 -35 -107.5t-107 -34.5h-386q-73 0 -107.5 34.5t-34.5 107.5z" />
    <glyph glyph-name="sacute" unicode="&#x15b;" horiz-adv-x="658" 
d="M383 576h-102l94 124h131zM54 116v50h117v-35q0 -24 10.5 -34t34.5 -10h222q24 0 34.5 10t10.5 34v42q0 23 -10.5 33t-34.5 12l-259 26q-115 11 -115 115v54q0 56 30 85.5t85 29.5h296q55 0 85 -30t30 -86v-45h-117v30q0 24 -10.5 34t-34.5 10h-198q-24 0 -34.5 -10
t-10.5 -34v-18q0 -23 10.5 -33t34.5 -12l259 -26q115 -11 115 -115v-78q0 -56 -30 -85.5t-85 -29.5h-320q-55 0 -85 30t-30 86z" />
    <glyph glyph-name="Scircumflex" unicode="&#x15c;" horiz-adv-x="779" 
d="M203 748l126 124h122l126 -124h-92l-95 72l-95 -72h-92zM55 142v63h124v-36q0 -38 15 -53t53 -15h282q37 0 52.5 15.5t15.5 52.5v57q0 37 -14.5 50.5t-53.5 17.5l-322 31q-75 6 -108.5 38t-33.5 104v91q0 73 34.5 107.5t107.5 34.5h362q72 0 107 -34.5t35 -107.5v-49
h-124v22q0 37 -15.5 52.5t-52.5 15.5h-258q-38 0 -53 -15t-15 -53v-34q0 -37 14.5 -50.5t53.5 -17.5l322 -30q75 -7 108.5 -38.5t33.5 -103.5v-115q0 -73 -35 -107.5t-107 -34.5h-386q-73 0 -107.5 34.5t-34.5 107.5z" />
    <glyph glyph-name="scircumflex" unicode="&#x15d;" horiz-adv-x="658" 
d="M142 576l126 124h122l126 -124h-92l-95 72l-95 -72h-92zM54 116v50h117v-35q0 -24 10.5 -34t34.5 -10h222q24 0 34.5 10t10.5 34v42q0 23 -10.5 33t-34.5 12l-259 26q-115 11 -115 115v54q0 56 30 85.5t85 29.5h296q55 0 85 -30t30 -86v-45h-117v30q0 24 -10.5 34
t-34.5 10h-198q-24 0 -34.5 -10t-10.5 -34v-18q0 -23 10.5 -33t34.5 -12l259 -26q115 -11 115 -115v-78q0 -56 -30 -85.5t-85 -29.5h-320q-55 0 -85 30t-30 86z" />
    <glyph glyph-name="Scedilla" unicode="&#x15e;" horiz-adv-x="779" 
d="M583 399q75 -7 108.5 -38.5t33.5 -103.5v-115q0 -73 -35 -107.5t-107 -34.5h-178l-11 -30h70q28 0 40 -12t12 -40v-26q0 -28 -12 -40t-40 -12h-164v47h139q13 0 13 13v13q0 13 -13 13h-103v22l19 52h-158q-73 0 -107.5 34.5t-34.5 107.5v63h124v-36q0 -38 15 -53t53 -15
h282q37 0 52.5 15.5t15.5 52.5v57q0 37 -14.5 50.5t-53.5 17.5l-322 31q-75 6 -108.5 38t-33.5 104v91q0 73 34.5 107.5t107.5 34.5h362q72 0 107 -34.5t35 -107.5v-49h-124v22q0 37 -15.5 52.5t-52.5 15.5h-258q-38 0 -53 -15t-15 -53v-34q0 -37 14.5 -50.5t53.5 -17.5z
" />
    <glyph glyph-name="scedilla" unicode="&#x15f;" horiz-adv-x="658" 
d="M489 308q115 -11 115 -115v-78q0 -56 -30 -85.5t-85 -29.5h-145l-11 -30h70q28 0 40 -12t12 -40v-26q0 -28 -12 -40t-40 -12h-164v47h139q13 0 13 13v13q0 13 -13 13h-103v22l19 52h-125q-55 0 -85 30t-30 86v50h117v-35q0 -24 10.5 -34t34.5 -10h222q24 0 34.5 10
t10.5 34v42q0 23 -10.5 33t-34.5 12l-259 26q-115 11 -115 115v54q0 56 30 85.5t85 29.5h296q55 0 85 -30t30 -86v-45h-117v30q0 24 -10.5 34t-34.5 10h-198q-24 0 -34.5 -10t-10.5 -34v-18q0 -23 10.5 -33t34.5 -12z" />
    <glyph glyph-name="Scaron" unicode="&#x160;" horiz-adv-x="779" 
d="M329 748l-126 124h92l95 -72l95 72h92l-126 -124h-122zM55 142v63h124v-36q0 -38 15 -53t53 -15h282q37 0 52.5 15.5t15.5 52.5v57q0 37 -14.5 50.5t-53.5 17.5l-322 31q-75 6 -108.5 38t-33.5 104v91q0 73 34.5 107.5t107.5 34.5h362q72 0 107 -34.5t35 -107.5v-49h-124
v22q0 37 -15.5 52.5t-52.5 15.5h-258q-38 0 -53 -15t-15 -53v-34q0 -37 14.5 -50.5t53.5 -17.5l322 -30q75 -7 108.5 -38.5t33.5 -103.5v-115q0 -73 -35 -107.5t-107 -34.5h-386q-73 0 -107.5 34.5t-34.5 107.5z" />
    <glyph glyph-name="scaron" unicode="&#x161;" horiz-adv-x="658" 
d="M268 576l-126 124h92l95 -72l95 72h92l-126 -124h-122zM54 116v50h117v-35q0 -24 10.5 -34t34.5 -10h222q24 0 34.5 10t10.5 34v42q0 23 -10.5 33t-34.5 12l-259 26q-115 11 -115 115v54q0 56 30 85.5t85 29.5h296q55 0 85 -30t30 -86v-45h-117v30q0 24 -10.5 34
t-34.5 10h-198q-24 0 -34.5 -10t-10.5 -34v-18q0 -23 10.5 -33t34.5 -12l259 -26q115 -11 115 -115v-78q0 -56 -30 -85.5t-85 -29.5h-320q-55 0 -85 30t-30 86z" />
    <glyph glyph-name="uni0162" unicode="&#x162;" horiz-adv-x="676" 
d="M402 0h-49l-11 -30h70q28 0 40 -12t12 -40v-26q0 -28 -12 -40t-40 -12h-164v47h139q13 0 13 13v13q0 13 -13 13h-103v22l19 52h-29v586h-258v114h644v-114h-258v-586z" />
    <glyph glyph-name="uni0163" unicode="&#x163;" horiz-adv-x="498" 
d="M472 431h-226v-265q0 -38 15 -53t53 -15h158v-98h-164l-11 -30h70q28 0 40 -12t12 -40v-26q0 -28 -12 -40t-40 -12h-164v47h139q13 0 13 13v13q0 13 -13 13h-103v22l19 52q-69 2 -101.5 36t-32.5 106v289h-108v97h108l25 120h97v-120h226v-97z" />
    <glyph glyph-name="Tcaron" unicode="&#x164;" horiz-adv-x="676" 
d="M399 748h-122l-126 124h92l95 -72l95 72h92zM660 700v-114h-258v-586h-128v586h-258v114h644z" />
    <glyph glyph-name="tcaron" unicode="&#x165;" horiz-adv-x="519" 
d="M343 570l42 82h-46v84h124v-35q0 -25 -4 -38.5t-18 -35.5l-33 -57h-65zM472 431h-226v-265q0 -38 15 -53t53 -15h158v-98h-206q-73 0 -107.5 34t-34.5 108v289h-108v97h108l25 120h97v-120h226v-97z" />
    <glyph glyph-name="Tbar" unicode="&#x166;" horiz-adv-x="688" 
d="M660 586h-258v-220h178v-80h-178v-286h-128v286h-166v80h166v220h-258v114h644v-114z" />
    <glyph glyph-name="tbar" unicode="&#x167;" horiz-adv-x="498" 
d="M472 430h-227v-122h227v-75h-227v-66q0 -37 15.5 -52.5t52.5 -15.5h159v-99h-206q-72 0 -107 34.5t-35 107.5v91h-108v75h108v122h-108v98h108l25 120h96v-120h227v-98z" />
    <glyph glyph-name="Utilde" unicode="&#x168;" horiz-adv-x="773" 
d="M201 748v74q0 50 50 50h87q23 0 35.5 -5t26.5 -21l38 -38q10 -10 25 -10h20q15 0 15 14v60h73v-74q0 -50 -50 -50h-87q-23 0 -35.5 5t-26.5 21l-38 38q-10 10 -25 10h-20q-15 0 -15 -14v-60h-73zM242 0q-96 0 -141 45t-45 141v514h128v-490q0 -55 22.5 -77.5t77.5 -22.5
h204q56 0 78 22t22 78v490h128v-514q0 -96 -45 -141t-141 -45h-288z" />
    <glyph glyph-name="utilde" unicode="&#x169;" horiz-adv-x="682" 
d="M226 636v-60h-73v74q0 50 50 50h87q23 0 35.5 -5t26.5 -21l38 -38q10 -10 25 -10h20q15 0 15 14v60h73v-74q0 -50 -50 -50h-87q-23 0 -35.5 5t-26.5 21l-38 38q-10 10 -25 10h-20q-15 0 -15 -14zM619 528v-528h-100l-14 73l-9 -7q-51 -42 -91.5 -54t-116.5 -12h-63
q-88 0 -127 38.5t-39 127.5v362h121v-342q0 -49 18 -67t67 -18h62q85 0 130 34l40 30v363h122z" />
    <glyph glyph-name="Umacron" unicode="&#x16a;" horiz-adv-x="773" 
d="M190 778v66h392v-66h-392zM242 0q-96 0 -141 45t-45 141v514h128v-490q0 -55 22.5 -77.5t77.5 -22.5h204q56 0 78 22t22 78v490h128v-514q0 -96 -45 -141t-141 -45h-288z" />
    <glyph glyph-name="umacron" unicode="&#x16b;" horiz-adv-x="682" 
d="M534 672v-66h-392v66h392zM619 528v-528h-100l-14 73l-9 -7q-51 -42 -91.5 -54t-116.5 -12h-63q-88 0 -127 38.5t-39 127.5v362h121v-342q0 -49 18 -67t67 -18h62q85 0 130 34l40 30v363h122z" />
    <glyph glyph-name="Ubreve" unicode="&#x16c;" horiz-adv-x="773" 
d="M274 748q-73 0 -73 73v51h86v-36q0 -30 30 -30h138q30 0 30 30v36h86v-51q0 -73 -73 -73h-224zM242 0q-96 0 -141 45t-45 141v514h128v-490q0 -55 22.5 -77.5t77.5 -22.5h204q56 0 78 22t22 78v490h128v-514q0 -96 -45 -141t-141 -45h-288z" />
    <glyph glyph-name="ubreve" unicode="&#x16d;" horiz-adv-x="682" 
d="M226 576q-73 0 -73 73v51h86v-36q0 -30 30 -30h138q30 0 30 30v36h86v-51q0 -73 -73 -73h-224zM619 528v-528h-100l-14 73l-9 -7q-51 -42 -91.5 -54t-116.5 -12h-63q-88 0 -127 38.5t-39 127.5v362h121v-342q0 -49 18 -67t67 -18h62q85 0 130 34l40 30v363h122z" />
    <glyph glyph-name="Uring" unicode="&#x16e;" horiz-adv-x="773" 
d="M245 792v26q0 28 12.5 41t41.5 13h174q29 0 41.5 -13t12.5 -41v-26q0 -28 -12.5 -41t-41.5 -13h-174q-29 0 -41.5 13t-12.5 41zM298 798q0 -12 4 -16.5t16 -4.5h136q12 0 16 4.5t4 16.5v14q0 12 -4 16.5t-16 4.5h-136q-12 0 -16 -4.5t-4 -16.5v-14zM242 0q-96 0 -141 45
t-45 141v514h128v-490q0 -55 22.5 -77.5t77.5 -22.5h204q56 0 78 22t22 78v490h128v-514q0 -96 -45 -141t-141 -45h-288z" />
    <glyph glyph-name="uring" unicode="&#x16f;" horiz-adv-x="682" 
d="M251 566q-29 0 -41.5 13t-12.5 41v26q0 28 12.5 41t41.5 13h174q29 0 41.5 -13t12.5 -41v-26q0 -28 -12.5 -41t-41.5 -13h-174zM250 640v-14q0 -12 4 -16.5t16 -4.5h136q12 0 16 4.5t4 16.5v14q0 12 -4 16.5t-16 4.5h-136q-12 0 -16 -4.5t-4 -16.5zM619 528v-528h-100
l-14 73l-9 -7q-51 -42 -91.5 -54t-116.5 -12h-63q-88 0 -127 38.5t-39 127.5v362h121v-342q0 -49 18 -67t67 -18h62q85 0 130 34l40 30v363h122z" />
    <glyph glyph-name="Uhungarumlaut" unicode="&#x170;" horiz-adv-x="773" 
d="M320 748h-100l84 124h126zM536 748h-101l84 124h126zM242 0q-96 0 -141 45t-45 141v514h128v-490q0 -55 22.5 -77.5t77.5 -22.5h204q56 0 78 22t22 78v490h128v-514q0 -96 -45 -141t-141 -45h-288z" />
    <glyph glyph-name="uhungarumlaut" unicode="&#x171;" horiz-adv-x="682" 
d="M382 700l-110 -124h-100l84 124h126zM597 700l-109 -124h-101l84 124h126zM619 528v-528h-100l-14 73l-9 -7q-51 -42 -91.5 -54t-116.5 -12h-63q-88 0 -127 38.5t-39 127.5v362h121v-342q0 -49 18 -67t67 -18h62q85 0 130 34l40 30v363h122z" />
    <glyph glyph-name="Uogonek" unicode="&#x172;" horiz-adv-x="773" 
d="M588 700h128v-514q0 -96 -45 -141t-141 -45h-72l-14 -9q-22 -14 -22 -37v-13q0 -17 7 -24t24 -7h113v-70h-142q-42 0 -61 19t-19 61v15q0 44 20 65h-122q-96 0 -141 45t-45 141v514h128v-490q0 -55 22.5 -77.5t77.5 -22.5h204q56 0 78 22t22 78v490z" />
    <glyph glyph-name="uogonek" unicode="&#x173;" horiz-adv-x="676" 
d="M561 -90h89v-70h-118q-41 0 -60.5 19t-19.5 61v15q0 32 8.5 49t38.5 37l15 8l-9 44l-9 -7q-51 -42 -91.5 -54t-116.5 -12h-63q-88 0 -127 38.5t-39 127.5v362h121v-342q0 -49 18 -67t67 -18h62q85 0 130 34l40 30v363h122v-528h-53l-14 -9q-22 -14 -22 -37v-13
q0 -17 7 -24t24 -7z" />
    <glyph glyph-name="Wcircumflex" unicode="&#x174;" horiz-adv-x="1102" 
d="M551 820l-95 -72h-92l126 124h122l126 -124h-92zM962 700h134l-256 -700h-113l-176 509l-176 -509h-113l-256 700h141l180 -528l178 528h97l179 -528z" />
    <glyph glyph-name="wcircumflex" unicode="&#x175;" horiz-adv-x="902" 
d="M451 648l-95 -72h-92l126 124h122l126 -124h-92zM772 528h124l-205 -528h-105l-134 374l-134 -374h-107l-205 528h129l135 -380l137 380h93l138 -381z" />
    <glyph glyph-name="Ycircumflex" unicode="&#x176;" horiz-adv-x="728" 
d="M364 820l-95 -72h-92l126 124h122l126 -124h-92zM732 700l-304 -442v-258h-128v258l-304 442h149l222 -337l222 337h143z" />
    <glyph glyph-name="ycircumflex" unicode="&#x177;" horiz-adv-x="638" 
d="M319 648l-95 -72h-92l126 124h122l126 -124h-92zM502 528h130l-265 -540q-45 -92 -92.5 -120t-151.5 -28h-69v98h79q52 0 78 14t49 57l-254 519h135l179 -403z" />
    <glyph glyph-name="Ydieresis" unicode="&#x178;" horiz-adv-x="728" 
d="M308 848v-88h-96v88h96zM516 848v-88h-96v88h96zM732 700l-304 -442v-258h-128v258l-304 442h149l222 -337l222 337h143z" />
    <glyph glyph-name="Zacute" unicode="&#x179;" horiz-adv-x="748" 
d="M428 748h-102l94 124h131zM42 0v88l478 502h-458v110h644v-88l-478 -502h478v-110h-664z" />
    <glyph glyph-name="zacute" unicode="&#x17a;" horiz-adv-x="642" 
d="M375 576h-102l94 124h131zM40 0v74l384 360h-364v94h542v-74l-384 -360h384v-94h-562z" />
    <glyph glyph-name="Zdotaccent" unicode="&#x17b;" horiz-adv-x="748" 
d="M312 760v88h123v-88h-123zM42 0v88l478 502h-458v110h644v-88l-478 -502h478v-110h-664z" />
    <glyph glyph-name="zdotaccent" unicode="&#x17c;" horiz-adv-x="642" 
d="M259 588v88h123v-88h-123zM40 0v74l384 360h-364v94h542v-74l-384 -360h384v-94h-562z" />
    <glyph glyph-name="Zcaron" unicode="&#x17d;" horiz-adv-x="748" 
d="M313 748l-126 124h92l95 -72l95 72h92l-126 -124h-122zM42 0v88l478 502h-458v110h644v-88l-478 -502h478v-110h-664z" />
    <glyph glyph-name="zcaron" unicode="&#x17e;" horiz-adv-x="642" 
d="M260 576l-126 124h92l95 -72l95 72h92l-126 -124h-122zM40 0v74l384 360h-364v94h542v-74l-384 -360h384v-94h-562z" />
    <glyph glyph-name="florin" unicode="&#x192;" horiz-adv-x="672" 
d="M529 594q-54 0 -76.5 -22t-29.5 -78l-17 -161h198v-86h-207l-24 -221q-11 -98 -54.5 -142t-137.5 -44h-133v106h95q54 0 76.5 22t29.5 78l21 201h-202v86h212l19 181q11 98 54.5 142t137.5 44h133v-106h-95z" />
    <glyph glyph-name="Aringacute" unicode="&#x1fa;" horiz-adv-x="799" 
d="M656 0l-68 155h-379l-67 -155h-136l310 666h-1q-29 0 -41.5 13t-12.5 41v26q0 28 12.5 41t41.5 13h53l53 72h131l-71 -72h8q29 0 41.5 -13t12.5 -41v-26q0 -28 -12.5 -41t-41.5 -13l309 -666h-142zM314 726q0 -12 4 -16.5t16 -4.5h136q12 0 16 4.5t4 16.5v14
q0 12 -4 16.5t-16 4.5h-136q-12 0 -16 -4.5t-4 -16.5v-14zM252 252h294l-147 338z" />
    <glyph glyph-name="aringacute" unicode="&#x1fb;" horiz-adv-x="673" 
d="M484 526q68 -7 99 -46t31 -118v-362h-99l-14 71l-17 -13q-46 -38 -80.5 -48t-104.5 -10h-121q-124 0 -124 124v55q0 124 124 124h315v52q0 48 -18.5 66t-67.5 18h-144q-37 0 -52.5 -15t-15.5 -53v-19h-117v34q0 135 128 142q-2 12 -2 20v26q0 28 13 41t41 13h53l53 72
h131l-71 -72h8q28 0 41 -13t13 -41v-26q0 -8 -2 -22zM257 568v-14q0 -12 4 -16.5t16 -4.5h136q12 0 16 4.5t4 16.5v14q0 12 -4 16.5t-16 4.5h-136q-12 0 -16 -4.5t-4 -16.5zM447 114l46 34v83h-258q-34 0 -47 -13.5t-13 -46.5v-28q0 -34 13 -47t47 -13h102q67 0 110 31z" />
    <glyph glyph-name="AEacute" unicode="&#x1fc;" horiz-adv-x="1084" 
d="M799 872l-123 -124h-102l94 124h131zM735 107h317v-107h-413l-61 152h-370l-66 -152h-136l326 700h710v-107h-516l77 -180h399v-99h-356zM250 249h288l-138 343z" />
    <glyph glyph-name="aeacute" unicode="&#x1fd;" horiz-adv-x="1107" 
d="M730 700l-123 -124h-102l94 124h131zM887 528q88 0 127 -38.5t39 -127.5v-114h-439v-67q0 -49 18 -67t67 -18h168q37 0 52.5 15t15.5 53v23h118v-45q0 -73 -35 -107.5t-107 -34.5h-240q-114 0 -147 67l-12 -9q-46 -38 -80.5 -48t-104.5 -10h-149q-124 0 -124 124v55
q0 124 124 124h315v52q0 48 -18.5 66t-67.5 18h-144q-37 0 -52.5 -15t-15.5 -53v-19h-117v34q0 73 35 107.5t107 34.5h205q96 0 129 -53q32 53 128 53h205zM614 326h321v28q0 49 -18 67t-67 18h-151q-49 0 -67 -18t-18 -67v-28zM493 148v83h-258q-34 0 -47 -13.5t-13 -46.5
v-28q0 -34 13 -47t47 -13h102q67 0 110 31z" />
    <glyph glyph-name="Oslashacute" unicode="&#x1fe;" horiz-adv-x="800" 
d="M577 872l-123 -124h-102l94 124h131zM775 730l-70 -80q40 -46 40 -136v-328q0 -96 -45 -141t-141 -45h-318q-52 0 -92 14l-38 -44h-86l70 80q-40 46 -40 136v328q0 96 45 141t141 45h318q52 0 92 -14l38 44h86zM177 206q0 -34 8 -53l381 436q-15 5 -44 5h-245
q-55 0 -77.5 -22.5t-22.5 -77.5v-288zM622 494q0 33 -7 53l-381 -437q16 -4 43 -4h245q56 0 78 22t22 78v288z" />
    <glyph glyph-name="oslashacute" unicode="&#x1ff;" horiz-adv-x="678" 
d="M516 700l-123 -124h-102l94 124h131zM586 489q38 -39 38 -127v-196q0 -89 -39 -127.5t-127 -38.5h-238q-43 0 -73 9l-41 -45h-82l68 75q-38 39 -38 127v196q0 89 39 127.5t127 38.5h238q43 0 73 -9l41 45h82zM164 175q0 -33 7 -50l285 312q-8 1 -26 1h-182
q-49 0 -66.5 -18t-17.5 -67v-178zM514 175v178q0 33 -7 50l-285 -312q8 -1 26 -1h182q49 0 66.5 18t17.5 67z" />
    <glyph glyph-name="Scommaaccent" unicode="&#x218;" horiz-adv-x="779" 
d="M55 142v63h124v-36q0 -38 15 -53t53 -15h282q37 0 52.5 15.5t15.5 52.5v57q0 37 -14.5 50.5t-53.5 17.5l-322 31q-75 6 -108.5 38t-33.5 104v91q0 73 34.5 107.5t107.5 34.5h362q72 0 107 -34.5t35 -107.5v-49h-124v22q0 37 -15.5 52.5t-52.5 15.5h-258q-38 0 -53 -15
t-15 -53v-34q0 -37 14.5 -50.5t53.5 -17.5l322 -30q75 -7 108.5 -38.5t33.5 -103.5v-115q0 -73 -35 -107.5t-107 -34.5h-386q-73 0 -107.5 34.5t-34.5 107.5zM332 -196l41 82h-45v84h124v-35q0 -25 -4 -38.5t-18 -35.5l-33 -57h-65z" />
    <glyph glyph-name="scommaaccent" unicode="&#x219;" horiz-adv-x="658" 
d="M54 116v50h117v-35q0 -24 10.5 -34t34.5 -10h222q24 0 34.5 10t10.5 34v42q0 23 -10.5 33t-34.5 12l-259 26q-115 11 -115 115v54q0 56 30 85.5t85 29.5h296q55 0 85 -30t30 -86v-45h-117v30q0 24 -10.5 34t-34.5 10h-198q-24 0 -34.5 -10t-10.5 -34v-18q0 -23 10.5 -33
t34.5 -12l259 -26q115 -11 115 -115v-78q0 -56 -30 -85.5t-85 -29.5h-320q-55 0 -85 30t-30 86zM271 -196l41 82h-45v84h124v-35q0 -25 -4 -38.5t-18 -35.5l-33 -57h-65z" />
    <glyph glyph-name="uni021A" unicode="&#x21a;" horiz-adv-x="676" 
d="M660 700v-114h-258v-586h-128v586h-258v114h644zM276 -114v84h124v-35q0 -25 -4 -38.5t-18 -35.5l-33 -57h-65l41 82h-45z" />
    <glyph glyph-name="uni021B" unicode="&#x21b;" horiz-adv-x="498" 
d="M472 431h-226v-265q0 -38 15 -53t53 -15h158v-98h-206q-73 0 -107.5 34t-34.5 108v289h-108v97h108l25 120h97v-120h226v-97zM231 -114v84h124v-35q0 -25 -4 -38.5t-18 -35.5l-33 -57h-65l41 82h-45z" />
    <glyph glyph-name="uni0237" unicode="&#x237;" horiz-adv-x="258" 
d="M-22 -160v94h21q37 0 52.5 15t15.5 53v526h123v-546q0 -74 -34.5 -108t-107.5 -34h-70z" />
    <glyph glyph-name="circumflex" unicode="&#x2c6;" horiz-adv-x="502" 
d="M64 576l126 124h122l126 -124h-92l-95 72l-95 -72h-92z" />
    <glyph glyph-name="caron" unicode="&#x2c7;" horiz-adv-x="502" 
d="M190 576l-126 124h92l95 -72l95 72h92l-126 -124h-122z" />
    <glyph glyph-name="breve" unicode="&#x2d8;" horiz-adv-x="498" 
d="M137 576q-73 0 -73 73v51h86v-36q0 -30 30 -30h138q30 0 30 30v36h86v-51q0 -73 -73 -73h-224z" />
    <glyph glyph-name="dotaccent" unicode="&#x2d9;" horiz-adv-x="251" 
d="M64 588v88h123v-88h-123z" />
    <glyph glyph-name="ring" unicode="&#x2da;" horiz-adv-x="386" 
d="M52 620v26q0 28 13 41t41 13h174q28 0 41 -13t13 -41v-26q0 -28 -13 -41t-41 -13h-174q-28 0 -41 13t-13 41zM105 626q0 -12 4 -16.5t16 -4.5h136q12 0 16 4.5t4 16.5v14q0 12 -4 16.5t-16 4.5h-136q-12 0 -16 -4.5t-4 -16.5v-14z" />
    <glyph glyph-name="ogonek" unicode="&#x2db;" horiz-adv-x="350" 
d="M164 -9q-22 -14 -22 -37v-13q0 -17 7 -24t24 -7h113v-70h-142q-42 0 -61 19t-19 61v15q0 32 8.5 49t37.5 37l28 16l53 -28z" />
    <glyph glyph-name="tilde" unicode="&#x2dc;" horiz-adv-x="498" 
d="M64 576v74q0 50 50 50h87q23 0 35.5 -5t26.5 -21l38 -38q10 -10 25 -10h20q15 0 15 14v60h73v-74q0 -50 -50 -50h-87q-23 0 -35.5 5t-26.5 21l-38 38q-10 10 -25 10h-20q-15 0 -15 -14v-60h-73z" />
    <glyph glyph-name="hungarumlaut" unicode="&#x2dd;" horiz-adv-x="553" 
d="M164 576h-100l84 124h126zM380 576h-101l84 124h126z" />
    <glyph glyph-name="gravecomb" unicode="&#x300;" horiz-adv-x="0" 
d="M-165 576l-124 124h132l93 -124h-101z" />
    <glyph glyph-name="acutecomb" unicode="&#x301;" horiz-adv-x="0" 
d="M-187 576h-102l94 124h131z" />
    <glyph glyph-name="uni0302" unicode="&#x302;" horiz-adv-x="0" 
d="M-438 576l126 124h122l126 -124h-92l-95 72l-95 -72h-92z" />
    <glyph glyph-name="tildecomb" unicode="&#x303;" horiz-adv-x="0" 
d="M-434 576v74q0 50 50 50h87q23 0 35.5 -5t26.5 -21l38 -38q10 -10 25 -10h20q15 0 15 14v60h73v-74q0 -50 -50 -50h-87q-23 0 -35.5 5t-26.5 21l-38 38q-10 10 -25 10h-20q-15 0 -15 -14v-60h-73z" />
    <glyph glyph-name="uni0304" unicode="&#x304;" horiz-adv-x="0" 
d="M-456 606v66h392v-66h-392z" />
    <glyph glyph-name="uni0306" unicode="&#x306;" horiz-adv-x="0" 
d="M-361 576q-73 0 -73 73v51h86v-36q0 -30 30 -30h138q30 0 30 30v36h86v-51q0 -73 -73 -73h-224z" />
    <glyph glyph-name="uni0307" unicode="&#x307;" horiz-adv-x="0" 
d="M-187 588v88h123v-88h-123z" />
    <glyph glyph-name="uni0308" unicode="&#x308;" horiz-adv-x="0" 
d="M-368 588v88h96v-88h-96zM-160 588v88h96v-88h-96z" />
    <glyph glyph-name="uni030A" unicode="&#x30a;" horiz-adv-x="0" 
d="M-334 620v26q0 28 13 41t41 13h174q28 0 41 -13t13 -41v-26q0 -28 -13 -41t-41 -13h-174q-28 0 -41 13t-13 41zM-281 626q0 -12 4 -16.5t16 -4.5h136q12 0 16 4.5t4 16.5v14q0 12 -4 16.5t-16 4.5h-136q-12 0 -16 -4.5t-4 -16.5v-14z" />
    <glyph glyph-name="uni030B" unicode="&#x30b;" horiz-adv-x="0" 
d="M-389 576h-100l84 124h126zM-173 576h-101l84 124h126z" />
    <glyph glyph-name="uni030C" unicode="&#x30c;" horiz-adv-x="0" 
d="M-312 576l-126 124h92l95 -72l95 72h92l-126 -124h-122z" />
    <glyph glyph-name="uni0312" unicode="&#x312;" horiz-adv-x="0" 
d="M-68 742l-41 -82h45v-84h-124v35q0 25 4 38.5t18 35.5l33 57h65z" />
    <glyph glyph-name="uni0326" unicode="&#x326;" horiz-adv-x="0" 
d="M-184 -196l41 82h-45v84h124v-35q0 -25 -4 -38.5t-18 -35.5l-33 -57h-65z" />
    <glyph glyph-name="uni0327" unicode="&#x327;" horiz-adv-x="0" 
d="M-268 -160v47h139q13 0 13 13v13q0 13 -13 13h-103v22l26 72h50l-18 -50h70q28 0 40 -12t12 -40v-26q0 -28 -12 -40t-40 -12h-164z" />
    <glyph glyph-name="uni0328" unicode="&#x328;" horiz-adv-x="0" 
d="M-186 -9q-22 -14 -22 -37v-13q0 -17 7 -24t24 -7h113v-70h-142q-42 0 -61 19t-19 61v15q0 32 8.5 49t37.5 37l28 16l53 -28z" />
    <glyph glyph-name="uni0335" unicode="&#x335;" horiz-adv-x="0" 
d="M-480 394h440v-80h-440v80z" />
    <glyph glyph-name="uni0336" unicode="&#x336;" horiz-adv-x="0" 
d="M-896 394h856v-80h-856v80z" />
    <glyph glyph-name="uni0337" unicode="&#x337;" horiz-adv-x="0" 
d="M-466 390l426 60v-80l-426 -60v80z" />
    <glyph glyph-name="uni0338" unicode="&#x338;" horiz-adv-x="0" 
d="M-86 570h86l-538 -600h-86z" />
    <glyph glyph-name="uni0394" unicode="&#x394;" horiz-adv-x="804" 
d="M473 700l325 -700h-792l325 700h142zM185 102h427l-214 489z" />
    <glyph glyph-name="uni03A9" unicode="&#x3a9;" horiz-adv-x="799" 
d="M543 101h212v-101h-296v188h58q55 0 77.5 22.5t22.5 77.5v203q0 55 -22.5 77.5t-77.5 22.5h-234q-55 0 -77.5 -22.5t-22.5 -77.5v-203q0 -55 22.5 -77.5t77.5 -22.5h58v-188h-296v101h212v12h-28q-90 0 -132 42t-42 132v227q0 96 45 141t141 45h318q96 0 141 -45t45 -141
v-227q0 -90 -42 -132t-132 -42h-28v-12z" />
    <glyph glyph-name="uni03BC" unicode="&#x3bc;" horiz-adv-x="725" 
d="M677 98h32v-98h-80q-98 0 -120 73l-9 -7q-51 -42 -91 -54t-116 -12h-60q-25 0 -48 3v-163h-122v688h122v-342q0 -49 18 -67t67 -18h62q83 0 130 34l40 30v363h121v-376q0 -30 12 -42t42 -12z" />
    <glyph glyph-name="pi" unicode="&#x3c0;" horiz-adv-x="756" 
d="M730 431h-112v-265q0 -38 15 -53t53 -15h44v-98h-92q-73 0 -107.5 34t-34.5 108v289h-266v-431h-122v431h-92v97h714v-97z" />
    <glyph glyph-name="uni0401" unicode="&#x401;" horiz-adv-x="678" 
d="M283 848v-88h-96v88h96zM491 848v-88h-96v88h96zM192 107h454v-107h-582v700h572v-107h-444v-180h404v-99h-404v-207z" />
    <glyph glyph-name="uni0403" unicode="&#x403;" horiz-adv-x="612" 
d="M483 872l-123 -124h-102l94 124h131zM596 700v-114h-404v-586h-128v700h532z" />
    <glyph glyph-name="uni0405" unicode="&#x405;" horiz-adv-x="779" 
d="M55 142v63h124v-36q0 -38 15 -53t53 -15h282q37 0 52.5 15.5t15.5 52.5v57q0 37 -14.5 50.5t-53.5 17.5l-322 31q-75 6 -108.5 38t-33.5 104v91q0 73 34.5 107.5t107.5 34.5h362q72 0 107 -34.5t35 -107.5v-49h-124v22q0 37 -15.5 52.5t-52.5 15.5h-258q-38 0 -53 -15
t-15 -53v-34q0 -37 14.5 -50.5t53.5 -17.5l322 -30q75 -7 108.5 -38.5t33.5 -103.5v-115q0 -73 -35 -107.5t-107 -34.5h-386q-73 0 -107.5 34.5t-34.5 107.5z" />
    <glyph glyph-name="uni0406" unicode="&#x406;" horiz-adv-x="268" 
d="M69 700h130v-700h-130v700z" />
    <glyph glyph-name="uni0407" unicode="&#x407;" horiz-adv-x="268" 
d="M-18 760v88h96v-88h-96zM190 760v88h96v-88h-96zM69 700h130v-700h-130v700z" />
    <glyph glyph-name="uni0408" unicode="&#x408;" horiz-adv-x="704" 
d="M218 0q-96 0 -141 45t-45 141v82h124v-60q0 -55 22.5 -77.5t77.5 -22.5h164q55 0 77.5 22.5t22.5 77.5v492h128v-514q0 -96 -45 -141t-141 -45h-244z" />
    <glyph glyph-name="uni040C" unicode="&#x40c;" horiz-adv-x="750" 
d="M543 872l-123 -124h-102l94 124h131zM744 0h-189l-363 346v-346h-128v700h128v-328l358 328h190l-389 -338z" />
    <glyph glyph-name="uni040E" unicode="&#x40e;" horiz-adv-x="728" 
d="M252 748q-73 0 -73 73v51h86v-36q0 -30 30 -30h138q30 0 30 30v36h86v-51q0 -73 -73 -73h-224zM589 700h143l-443 -700h-140l145 228l-298 472h149l222 -371z" />
    <glyph glyph-name="uni0410" unicode="&#x410;" horiz-adv-x="792" 
d="M656 0l-68 155h-379l-67 -155h-136l326 700h141l325 -700h-142zM252 252h294l-147 338z" />
    <glyph glyph-name="uni0411" unicode="&#x411;" horiz-adv-x="762" 
d="M64 0v700h590v-101h-462v-186h380q73 0 107.5 -34t34.5 -108v-129q0 -73 -35 -107.5t-107 -34.5h-508zM192 100h326q38 0 53 15t15 53v86q0 38 -15 53t-53 15h-326v-222z" />
    <glyph glyph-name="uni0412" unicode="&#x412;" horiz-adv-x="762" 
d="M631 367q83 -21 83 -128v-97q0 -73 -35 -107.5t-107 -34.5h-508v700h488q72 0 107 -34.5t35 -107.5v-69q0 -94 -63 -122zM192 600v-192h306q38 0 53 15t15 53v56q0 38 -15 53t-53 15h-306zM586 168v83q0 38 -15 53t-53 15h-326v-219h326q38 0 53 15t15 53z" />
    <glyph glyph-name="uni0413" unicode="&#x413;" horiz-adv-x="612" 
d="M596 700v-114h-404v-586h-128v700h532z" />
    <glyph glyph-name="uni0414" unicode="&#x414;" horiz-adv-x="834" 
d="M738 110h80v-230h-120v120h-562v-120h-120v230h40q48 0 65.5 17t19.5 65l33 508h564v-590zM271 204q-5 -61 -20 -94h359v476h-313z" />
    <glyph glyph-name="uni0415" unicode="&#x415;" horiz-adv-x="678" 
d="M192 107h454v-107h-582v700h572v-107h-444v-180h404v-99h-404v-207z" />
    <glyph glyph-name="uni0416" unicode="&#x416;" horiz-adv-x="1244" 
d="M1238 0h-189l-363 346v-346h-128v346l-363 -346h-189l393 362l-389 338h190l358 -328v328h128v-328l358 328h190l-389 -338z" />
    <glyph glyph-name="uni0417" unicode="&#x417;" horiz-adv-x="778" 
d="M647 366q77 -24 77 -127v-97q0 -73 -35 -107.5t-107 -34.5h-386q-72 0 -107 34.5t-35 107.5v95h124v-69q0 -38 15 -53t53 -15h282q38 0 53 15t15 53v81q0 38 -15 53t-53 15h-194v93h184q38 0 53 15t15 53v54q0 38 -15 53t-53 15h-262q-38 0 -53 -15t-15 -53v-61h-124v87
q0 73 35 107.5t107 34.5h366q72 0 107 -34.5t35 -107.5v-69q0 -98 -67 -123z" />
    <glyph glyph-name="uni0418" unicode="&#x418;" horiz-adv-x="808" 
d="M636 700h108v-700h-124v516l-454 -516h-102v700h124v-508z" />
    <glyph glyph-name="uni0419" unicode="&#x419;" horiz-adv-x="808" 
d="M292 748q-73 0 -73 73v51h86v-36q0 -30 30 -30h138q30 0 30 30v36h86v-51q0 -73 -73 -73h-224zM636 700h108v-700h-124v516l-454 -516h-102v700h124v-508z" />
    <glyph glyph-name="uni041A" unicode="&#x41a;" horiz-adv-x="750" 
d="M744 0h-189l-363 346v-346h-128v700h128v-328l358 328h190l-389 -338z" />
    <glyph glyph-name="uni041B" unicode="&#x41b;" horiz-adv-x="786" 
d="M16 0v110h24q48 0 65.5 17t19.5 65l33 508h564v-700h-128v586h-313l-28 -418q-6 -90 -45 -129t-126 -39h-66z" />
    <glyph glyph-name="uni041C" unicode="&#x41c;" horiz-adv-x="908" 
d="M736 700h108v-700h-120v490l-236 -356h-68l-236 356v-490h-120v700h113l280 -431z" />
    <glyph glyph-name="uni041D" unicode="&#x41d;" horiz-adv-x="788" 
d="M596 700h128v-700h-128v309h-404v-309h-128v700h128v-277h404v277z" />
    <glyph glyph-name="uni041E" unicode="&#x41e;" horiz-adv-x="800" 
d="M241 0q-96 0 -141 45t-45 141v328q0 96 45 141t141 45h318q96 0 141 -45t45 -141v-328q0 -96 -45 -141t-141 -45h-318zM283 110h234q55 0 77.5 22.5t22.5 77.5v280q0 55 -22.5 77.5t-77.5 22.5h-234q-55 0 -77.5 -22t-22.5 -78v-280q0 -56 22.5 -78t77.5 -22z" />
    <glyph glyph-name="uni041F" unicode="&#x41f;" horiz-adv-x="788" 
d="M64 0v700h660v-700h-128v586h-404v-586h-128z" />
    <glyph glyph-name="uni0420" unicode="&#x420;" horiz-adv-x="736" 
d="M64 0v700h474q88 0 127 -38.5t39 -127.5v-128q0 -89 -39 -127.5t-127 -38.5h-346v-240h-128zM192 338h299q49 0 67 17.5t18 66.5v92q0 49 -18 66.5t-67 17.5h-299v-260z" />
    <glyph glyph-name="uni0421" unicode="&#x421;" horiz-adv-x="772" 
d="M241 0q-96 0 -141 45t-45 141v328q0 96 45 141t141 45h294q96 0 141 -45t45 -141v-74h-124v52q0 55 -22.5 77.5t-77.5 22.5h-214q-55 0 -77.5 -22.5t-22.5 -77.5v-284q0 -55 22.5 -77.5t77.5 -22.5h214q55 0 77.5 22.5t22.5 77.5v61h124v-83q0 -96 -45 -141t-141 -45
h-294z" />
    <glyph glyph-name="uni0422" unicode="&#x422;" horiz-adv-x="676" 
d="M660 700v-114h-258v-586h-128v586h-258v114h644z" />
    <glyph glyph-name="uni0423" unicode="&#x423;" horiz-adv-x="728" 
d="M589 700h143l-443 -700h-140l145 228l-298 472h149l222 -371z" />
    <glyph glyph-name="uni0424" unicode="&#x424;" horiz-adv-x="1006" 
d="M765 654q96 0 141 -45t45 -141v-236q0 -96 -45 -141t-141 -45h-202v-86h-120v86h-202q-96 0 -141 45t-45 141v236q0 96 45 141t141 45h202v86h120v-86h202zM283 142h160v416h-160q-55 0 -77.5 -22.5t-22.5 -77.5v-216q0 -55 22.5 -77.5t77.5 -22.5zM823 242v216
q0 55 -22.5 77.5t-77.5 22.5h-160v-416h160q55 0 77.5 22.5t22.5 77.5z" />
    <glyph glyph-name="uni0425" unicode="&#x425;" 
d="M6 0l286 356l-276 344h156l208 -275l207 275h149l-276 -344l286 -356h-156l-218 287l-221 -287h-145z" />
    <glyph glyph-name="uni0426" unicode="&#x426;" horiz-adv-x="820" 
d="M64 0v700h128v-586h404v586h128v-586h80v-234h-120v120h-620z" />
    <glyph glyph-name="uni0427" unicode="&#x427;" horiz-adv-x="736" 
d="M544 0v252h-346q-88 0 -127 38.5t-39 127.5v282h128v-250q0 -49 18 -66.5t67 -17.5h299v334h128v-700h-128z" />
    <glyph glyph-name="uni0428" unicode="&#x428;" horiz-adv-x="1204" 
d="M64 0v700h128v-586h346v586h128v-586h346v586h128v-700h-1076z" />
    <glyph glyph-name="uni0429" unicode="&#x429;" horiz-adv-x="1236" 
d="M64 0v700h128v-586h346v586h128v-586h346v586h128v-586h80v-234h-120v120h-1036z" />
    <glyph glyph-name="uni042A" unicode="&#x42a;" horiz-adv-x="890" 
d="M16 590v110h330v-240h346q88 0 127 -38.5t39 -127.5v-128q0 -89 -39 -127.5t-127 -38.5h-474v590h-202zM346 102h299q49 0 67 17.5t18 66.5v92q0 49 -18 66.5t-67 17.5h-299v-260z" />
    <glyph glyph-name="uni042B" unicode="&#x42b;" horiz-adv-x="1004" 
d="M64 700h128v-240h346q88 0 127 -38.5t39 -127.5v-128q0 -89 -39 -127.5t-127 -38.5h-474v700zM805 700h130v-700h-130v700zM192 362v-260h299q49 0 67 17.5t18 66.5v92q0 49 -18 66.5t-67 17.5h-299z" />
    <glyph glyph-name="uni042C" unicode="&#x42c;" horiz-adv-x="736" 
d="M64 700h128v-240h346q88 0 127 -38.5t39 -127.5v-128q0 -89 -39 -127.5t-127 -38.5h-474v700zM192 362v-260h299q49 0 67 17.5t18 66.5v92q0 49 -18 66.5t-67 17.5h-299z" />
    <glyph glyph-name="uni042D" unicode="&#x42d;" horiz-adv-x="786" 
d="M546 700q96 0 141 -45t45 -141v-328q0 -96 -45 -141t-141 -45h-308q-96 0 -141 45t-45 141v83h124v-69q0 -55 22.5 -77.5t77.5 -22.5h228q55 0 77.5 22.5t22.5 77.5v118h-256v85h256v97q0 55 -22.5 77.5t-77.5 22.5h-228q-55 0 -77.5 -22.5t-22.5 -77.5v-60h-124v74
q0 96 45 141t141 45h308z" />
    <glyph glyph-name="uni042E" unicode="&#x42e;" horiz-adv-x="1199" 
d="M958 700q96 0 141 -45t45 -141v-328q0 -96 -45 -141t-141 -45h-318q-96 0 -141 45t-45 141v123h-262v-309h-128v700h128v-278h262v92q0 96 45 141t141 45h318zM1016 210v280q0 55 -22.5 77.5t-77.5 22.5h-234q-55 0 -77.5 -22.5t-22.5 -77.5v-280q0 -55 22.5 -77.5
t77.5 -22.5h234q55 0 77.5 22.5t22.5 77.5z" />
    <glyph glyph-name="uni042F" unicode="&#x42f;" horiz-adv-x="762" 
d="M224 700h474v-700h-128v262h-216l-183 -262h-143l193 270q-87 1 -125 39.5t-38 126.5v98q0 89 39 127.5t127 38.5zM570 358v244h-299q-49 0 -67 -17.5t-18 -66.5v-76q0 -49 18 -66.5t67 -17.5h299z" />
    <glyph glyph-name="uni0430" unicode="&#x430;" horiz-adv-x="673" 
d="M448 528q88 0 127 -38.5t39 -127.5v-362h-99l-14 71l-17 -13q-46 -38 -80.5 -48t-104.5 -10h-121q-124 0 -124 124v55q0 124 124 124h315v52q0 48 -18.5 66t-67.5 18h-144q-37 0 -52.5 -15t-15.5 -53v-19h-117v34q0 73 35 107.5t107 34.5h228zM447 114l46 34v83h-258
q-34 0 -47 -13.5t-13 -46.5v-28q0 -34 13 -47t47 -13h102q67 0 110 31z" />
    <glyph glyph-name="uni0431" unicode="&#x431;" horiz-adv-x="679" 
d="M483 458q73 0 107.5 -34t34.5 -108v-174q0 -73 -34.5 -107.5t-107.5 -34.5h-286q-72 0 -107 34.5t-35 107.5v359q0 95 44.5 138t141.5 50l364 21v-97l-347 -22q-58 -3 -81.5 -26t-23.5 -80v-75q27 48 114 48h216zM504 164v133q0 37 -15.5 52.5t-52.5 15.5h-191
q-37 0 -52.5 -15.5t-15.5 -52.5v-133q0 -38 15.5 -53t52.5 -15h191q38 0 53 15t15 53z" />
    <glyph glyph-name="uni0432" unicode="&#x432;" horiz-adv-x="690" 
d="M558 277q61 -16 61 -97v-73q0 -55 -26 -81t-81 -26h-447v528h432q55 0 81 -26t26 -81v-53q0 -72 -46 -91zM187 442v-131h248q26 0 37 10.5t11 36.5v38q0 26 -10.5 36t-37.5 10h-248zM497 132v57q0 25 -10.5 35.5t-35.5 10.5h-264v-149h264q26 0 36 10t10 36z" />
    <glyph glyph-name="uni0433" unicode="&#x433;" horiz-adv-x="523" 
d="M63 0v528h444v-101h-322v-427h-122z" />
    <glyph glyph-name="uni0434" unicode="&#x434;" horiz-adv-x="723" 
d="M631 98h76v-218h-114v120h-463v-120h-114v218h33q42 0 58 16t19 58l24 356h481v-430zM248 181q-5 -51 -19 -83h280v329h-243z" />
    <glyph glyph-name="uni0435" unicode="&#x435;" horiz-adv-x="668" 
d="M448 528q88 0 127 -38.5t39 -127.5v-114h-439v-67q0 -49 18.5 -67t67.5 -18h168q37 0 52.5 15.5t15.5 52.5v23h117v-45q0 -73 -35 -107.5t-107 -34.5h-252q-88 0 -127 38.5t-39 127.5v196q0 89 39 127.5t127 38.5h228zM175 326h322v28q0 49 -18.5 67t-67.5 18h-150
q-49 0 -67.5 -18t-18.5 -67v-28z" />
    <glyph glyph-name="uni0436" unicode="&#x436;" horiz-adv-x="1040" 
d="M1038 0h-179l-278 250v-250h-122v250l-278 -250h-179l313 266l-307 262h177l274 -252v252h122v-252l274 252h177l-307 -262z" />
    <glyph glyph-name="uni0437" unicode="&#x437;" horiz-adv-x="668" 
d="M557 275q57 -18 57 -95v-73q0 -55 -26 -81t-81 -26h-346q-55 0 -81 26t-26 81v69h117v-39q0 -28 11.5 -39t40.5 -11h218q29 0 40.5 11t11.5 39v46q0 28 -11.5 39.5t-40.5 11.5h-137v79h130q28 0 39.5 11.5t11.5 39.5v27q0 28 -11.5 39t-39.5 11h-204q-28 0 -39.5 -11
t-11.5 -39v-33h-117v63q0 55 26 81t81 26h330q55 0 81.5 -26t26.5 -81v-53q0 -72 -50 -93z" />
    <glyph glyph-name="uni0438" unicode="&#x438;" horiz-adv-x="700" 
d="M535 528h102v-528h-117v377l-361 -377h-96v528h118v-369z" />
    <glyph glyph-name="uni0439" unicode="&#x439;" horiz-adv-x="700" 
d="M238 576q-73 0 -73 73v51h86v-36q0 -30 30 -30h138q30 0 30 30v36h86v-51q0 -73 -73 -73h-224zM535 528h102v-528h-117v377l-361 -377h-96v528h118v-369z" />
    <glyph glyph-name="uni043A" unicode="&#x43a;" horiz-adv-x="644" 
d="M642 0h-179l-278 250v-250h-122v528h122v-252l274 252h177l-307 -262z" />
    <glyph glyph-name="uni043B" unicode="&#x43b;" horiz-adv-x="677" 
d="M16 0v98h17q41 0 57 16t19 58l24 356h481v-528h-122v427h-243l-19 -278q-6 -78 -41.5 -113.5t-111.5 -35.5h-61z" />
    <glyph glyph-name="uni043C" unicode="&#x43c;" horiz-adv-x="786" 
d="M63 0v528h108l224 -316l226 316h102v-528h-113v356l-187 -256h-59l-187 256v-356h-114z" />
    <glyph glyph-name="uni043D" unicode="&#x43d;" horiz-adv-x="686" 
d="M502 528h121v-528h-121v222h-317v-222h-122v528h122v-206h317v206z" />
    <glyph glyph-name="uni043E" unicode="&#x43e;" horiz-adv-x="678" 
d="M220 0q-88 0 -127 38.5t-39 127.5v196q0 89 39 127.5t127 38.5h238q88 0 127 -38.5t39 -127.5v-196q0 -89 -39 -127.5t-127 -38.5h-238zM260 98h158q49 0 66.5 18t17.5 67v162q0 49 -17.5 67t-66.5 18h-158q-49 0 -66.5 -18t-17.5 -67v-162q0 -49 17.5 -67t66.5 -18z" />
    <glyph glyph-name="uni043F" unicode="&#x43f;" horiz-adv-x="686" 
d="M63 0v528h560v-528h-121v427h-317v-427h-122z" />
    <glyph glyph-name="uni0440" unicode="&#x440;" horiz-adv-x="687" 
d="M467 528q88 0 127 -38.5t39 -127.5v-196q0 -89 -39 -127.5t-127 -38.5h-73q-76 0 -116.5 12t-91.5 54l-1 1v-227h-122v688h100l14 -73l9 7q51 42 91.5 54t116.5 12h73zM512 183v162q0 49 -18 67t-67 18h-72q-83 0 -130 -35l-40 -30v-202l40 -30q47 -35 130 -35h72
q49 0 67 18t18 67z" />
    <glyph glyph-name="uni0441" unicode="&#x441;" horiz-adv-x="654" 
d="M54 166v196q0 89 39 127.5t127 38.5h214q88 0 127 -38.5t39 -127.5v-41h-118v24q0 49 -17.5 67t-66.5 18h-138q-49 0 -66.5 -18t-17.5 -67v-162q0 -49 17.5 -67t66.5 -18h138q49 0 66.5 18t17.5 67v32h118v-49q0 -89 -39 -127.5t-127 -38.5h-214q-88 0 -127 38.5
t-39 127.5z" />
    <glyph glyph-name="uni0442" unicode="&#x442;" horiz-adv-x="576" 
d="M16 427v101h544v-101h-211v-427h-122v427h-211z" />
    <glyph glyph-name="uni0443" unicode="&#x443;" horiz-adv-x="638" 
d="M502 528h130l-265 -540q-45 -92 -92.5 -120t-151.5 -28h-69v98h79q52 0 78 14t49 57l-254 519h135l179 -403z" />
    <glyph glyph-name="uni0444" unicode="&#x444;" horiz-adv-x="974" 
d="M754 528q88 0 127 -38.5t39 -127.5v-196q0 -89 -39 -127.5t-127 -38.5h-208v-160h-118v160h-208q-88 0 -127 38.5t-39 127.5v196q0 89 39 127.5t127 38.5h208v172h118v-172h208zM260 89h168v350h-168q-49 0 -66.5 -18t-17.5 -67v-180q0 -49 17.5 -67t66.5 -18zM798 174
v180q0 49 -17.5 67t-66.5 18h-168v-350h168q49 0 66.5 18t17.5 67z" />
    <glyph glyph-name="uni0445" unicode="&#x445;" horiz-adv-x="647" 
d="M2 0l239 269l-229 259h155l160 -200l161 200h147l-228 -259l238 -269h-155l-170 210l-171 -210h-147z" />
    <glyph glyph-name="uni0446" unicode="&#x446;" horiz-adv-x="715" 
d="M63 0v528h122v-427h317v427h121v-427h76v-221h-113v120h-523z" />
    <glyph glyph-name="uni0447" unicode="&#x447;" horiz-adv-x="639" 
d="M154 528v-171q0 -38 15 -53t53 -15h232v239h122v-528h-122v188h-280q-73 0 -107.5 34.5t-34.5 107.5v199z" />
    <glyph glyph-name="uni0448" unicode="&#x448;" horiz-adv-x="1035" 
d="M63 0v528h122v-427h272v427h121v-427h272v427h122v-528h-909z" />
    <glyph glyph-name="uni0449" unicode="&#x449;" horiz-adv-x="1064" 
d="M63 0v528h122v-427h272v427h121v-427h272v427h122v-427h76v-221h-114v120h-871z" />
    <glyph glyph-name="uni044A" unicode="&#x44a;" horiz-adv-x="754" 
d="M16 427v101h284v-179h284q72 0 105 -33t33 -105v-73q0 -72 -33 -105t-105 -33h-406v427h-162zM300 87h236q36 0 50 14.5t14 50.5v49q0 36 -14 50.5t-50 14.5h-236v-179z" />
    <glyph glyph-name="uni044B" unicode="&#x44b;" horiz-adv-x="897" 
d="M63 528h122v-179h284q72 0 105 -33t33 -105v-73q0 -72 -33 -105t-105 -33h-406v528zM706 0v528h123v-528h-123zM185 266v-179h236q36 0 50.5 14.5t14.5 50.5v49q0 36 -14.5 50.5t-50.5 14.5h-236z" />
    <glyph glyph-name="uni044C" unicode="&#x44c;" horiz-adv-x="639" 
d="M63 528h122v-179h284q72 0 105 -33t33 -105v-73q0 -72 -33 -105t-105 -33h-406v528zM185 266v-179h236q36 0 50.5 14.5t14.5 50.5v49q0 36 -14.5 50.5t-50.5 14.5h-236z" />
    <glyph glyph-name="uni044D" unicode="&#x44d;" horiz-adv-x="674" 
d="M454 528q88 0 127 -38.5t39 -127.5v-196q0 -89 -39 -127.5t-127 -38.5h-234q-88 0 -127 38.5t-39 127.5v48h117v-33q0 -49 18.5 -67t67.5 -18h156q49 0 67.5 18t18.5 67v55h-193v75h193v36q0 49 -18.5 67t-67.5 18h-156q-49 0 -67.5 -18t-18.5 -67v-26h-117v41
q0 89 39 127.5t127 38.5h234z" />
    <glyph glyph-name="uni044E" unicode="&#x44e;" horiz-adv-x="1011" 
d="M791 528q88 0 127 -38.5t39 -127.5v-196q0 -89 -39 -127.5t-127 -38.5h-238q-88 0 -127 38.5t-39 127.5v56h-202v-222h-122v528h122v-206h202v40q0 89 39 127.5t127 38.5h238zM836 183v162q0 49 -18 67t-67 18h-157q-49 0 -67 -18t-18 -67v-162q0 -49 18 -67t67 -18h157
q49 0 67 18t18 67z" />
    <glyph glyph-name="uni044F" unicode="&#x44f;" horiz-adv-x="663" 
d="M194 528h406v-528h-122v194h-180l-137 -194h-133l145 201q-60 5 -88.5 38t-28.5 99v52q0 72 33 105t105 33zM478 274v170h-236q-36 0 -50 -14.5t-14 -50.5v-40q0 -36 14 -50.5t50 -14.5h236z" />
    <glyph glyph-name="uni0451" unicode="&#x451;" horiz-adv-x="668" 
d="M278 676v-88h-96v88h96zM486 676v-88h-96v88h96zM448 528q88 0 127 -38.5t39 -127.5v-114h-439v-67q0 -49 18.5 -67t67.5 -18h168q37 0 52.5 15.5t15.5 52.5v23h117v-45q0 -73 -35 -107.5t-107 -34.5h-252q-88 0 -127 38.5t-39 127.5v196q0 89 39 127.5t127 38.5h228z
M175 326h322v28q0 49 -18.5 67t-67.5 18h-150q-49 0 -67.5 -18t-18.5 -67v-28z" />
    <glyph glyph-name="uni0453" unicode="&#x453;" horiz-adv-x="523" 
d="M316 576h-102l94 124h131zM63 0v528h444v-101h-322v-427h-122z" />
    <glyph glyph-name="uni0455" unicode="&#x455;" horiz-adv-x="658" 
d="M54 116v50h117v-35q0 -24 10.5 -34t34.5 -10h222q24 0 34.5 10t10.5 34v42q0 23 -10.5 33t-34.5 12l-259 26q-115 11 -115 115v54q0 56 30 85.5t85 29.5h296q55 0 85 -30t30 -86v-45h-117v30q0 24 -10.5 34t-34.5 10h-198q-24 0 -34.5 -10t-10.5 -34v-18q0 -23 10.5 -33
t34.5 -12l259 -26q115 -11 115 -115v-78q0 -56 -30 -85.5t-85 -29.5h-320q-55 0 -85 30t-30 86z" />
    <glyph glyph-name="uni0456" unicode="&#x456;" horiz-adv-x="257" 
d="M67 601v99h124v-99h-124zM67 0v528h124v-528h-124z" />
    <glyph glyph-name="uni0457" unicode="&#x457;" horiz-adv-x="258" 
d="M-23 588v88h96v-88h-96zM185 588v88h96v-88h-96zM67 0v528h123v-528h-123z" />
    <glyph glyph-name="uni0458" unicode="&#x458;" horiz-adv-x="257" 
d="M67 601v99h124v-99h-124zM-22 -160v95h21q38 0 53 15t15 53v525h124v-546q0 -73 -35 -107.5t-107 -34.5h-71z" />
    <glyph glyph-name="uni045C" unicode="&#x45c;" horiz-adv-x="644" 
d="M499 700l-123 -124h-102l94 124h131zM642 0h-179l-278 250v-250h-122v528h122v-252l274 252h177l-307 -262z" />
    <glyph glyph-name="uni045E" unicode="&#x45e;" horiz-adv-x="638" 
d="M207 576q-73 0 -73 73v51h86v-36q0 -30 30 -30h138q30 0 30 30v36h86v-51q0 -73 -73 -73h-224zM502 528h130l-265 -540q-45 -92 -92.5 -120t-151.5 -28h-69v98h79q52 0 78 14t49 57l-254 519h135l179 -403z" />
    <glyph glyph-name="uni0498" unicode="&#x498;" horiz-adv-x="778" 
d="M647 366q77 -24 77 -127v-97q0 -73 -35 -107.5t-107 -34.5h-178l-11 -30h70q28 0 40 -12t12 -40v-26q0 -28 -12 -40t-40 -12h-164v47h139q13 0 13 13v13q0 13 -13 13h-103v22l19 52h-158q-72 0 -107 34.5t-35 107.5v95h124v-69q0 -38 15 -53t53 -15h282q38 0 53 15t15 53
v81q0 38 -15 53t-53 15h-194v93h184q38 0 53 15t15 53v54q0 38 -15 53t-53 15h-262q-38 0 -53 -15t-15 -53v-61h-124v87q0 73 35 107.5t107 34.5h366q72 0 107 -34.5t35 -107.5v-69q0 -98 -67 -123z" />
    <glyph glyph-name="uni0499" unicode="&#x499;" horiz-adv-x="668" 
d="M557 275q57 -18 57 -95v-73q0 -55 -26 -81t-81 -26h-158l-11 -30h70q28 0 40 -12t12 -40v-26q0 -28 -12 -40t-40 -12h-164v47h139q13 0 13 13v13q0 13 -13 13h-103v22l19 52h-138q-55 0 -81 26t-26 81v69h117v-39q0 -28 11.5 -39t40.5 -11h218q29 0 40.5 11t11.5 39v46
q0 28 -11.5 39.5t-40.5 11.5h-137v79h130q28 0 39.5 11.5t11.5 39.5v27q0 28 -11.5 39t-39.5 11h-204q-28 0 -39.5 -11t-11.5 -39v-33h-117v63q0 55 26 81t81 26h330q55 0 81.5 -26t26.5 -81v-53q0 -72 -50 -93z" />
    <glyph glyph-name="uni04BB" unicode="&#x4bb;" horiz-adv-x="682" 
d="M457 528q88 0 127 -38.5t39 -127.5v-362h-121v342q0 49 -18 67t-67 18h-62q-85 0 -130 -34l-40 -30v-363h-122v700h122v-242l5 4q51 42 91.5 54t116.5 12h59z" />
    <glyph glyph-name="uni04C0" unicode="&#x4c0;" horiz-adv-x="268" 
d="M69 700h130v-700h-130v700z" />
    <glyph glyph-name="uni04C1" unicode="&#x4c1;" horiz-adv-x="1244" 
d="M510 748q-73 0 -73 73v51h86v-36q0 -30 30 -30h138q30 0 30 30v36h86v-51q0 -73 -73 -73h-224zM1238 0h-189l-363 346v-346h-128v346l-363 -346h-189l393 362l-389 338h190l358 -328v328h128v-328l358 328h190l-389 -338z" />
    <glyph glyph-name="uni04C2" unicode="&#x4c2;" horiz-adv-x="1040" 
d="M408 576q-73 0 -73 73v51h86v-36q0 -30 30 -30h138q30 0 30 30v36h86v-51q0 -73 -73 -73h-224zM1038 0h-179l-278 250v-250h-122v250l-278 -250h-179l313 266l-307 262h177l274 -252v252h122v-252l274 252h177l-307 -262z" />
    <glyph glyph-name="uni04D0" unicode="&#x4d0;" horiz-adv-x="792" 
d="M290 748q-73 0 -73 73v51h86v-36q0 -30 30 -30h138q30 0 30 30v36h86v-51q0 -73 -73 -73h-224zM656 0l-68 155h-379l-67 -155h-136l326 700h141l325 -700h-142zM252 252h294l-147 338z" />
    <glyph glyph-name="uni04D1" unicode="&#x4d1;" horiz-adv-x="673" 
d="M233 576q-73 0 -73 73v51h86v-36q0 -30 30 -30h138q30 0 30 30v36h86v-51q0 -73 -73 -73h-224zM448 528q88 0 127 -38.5t39 -127.5v-362h-99l-14 71l-17 -13q-46 -38 -80.5 -48t-104.5 -10h-121q-124 0 -124 124v55q0 124 124 124h315v52q0 48 -18.5 66t-67.5 18h-144
q-37 0 -52.5 -15t-15.5 -53v-19h-117v34q0 73 35 107.5t107 34.5h228zM447 114l46 34v83h-258q-34 0 -47 -13.5t-13 -46.5v-28q0 -34 13 -47t47 -13h102q67 0 110 31z" />
    <glyph glyph-name="uni04D2" unicode="&#x4d2;" horiz-adv-x="792" 
d="M346 848v-88h-96v88h96zM554 848v-88h-96v88h96zM656 0l-68 155h-379l-67 -155h-136l326 700h141l325 -700h-142zM252 252h294l-147 338z" />
    <glyph glyph-name="uni04D3" unicode="&#x4d3;" horiz-adv-x="673" 
d="M289 676v-88h-96v88h96zM497 676v-88h-96v88h96zM448 528q88 0 127 -38.5t39 -127.5v-362h-99l-14 71l-17 -13q-46 -38 -80.5 -48t-104.5 -10h-121q-124 0 -124 124v55q0 124 124 124h315v52q0 48 -18.5 66t-67.5 18h-144q-37 0 -52.5 -15t-15.5 -53v-19h-117v34
q0 73 35 107.5t107 34.5h228zM447 114l46 34v83h-258q-34 0 -47 -13.5t-13 -46.5v-28q0 -34 13 -47t47 -13h102q67 0 110 31z" />
    <glyph glyph-name="uni04D4" unicode="&#x4d4;" horiz-adv-x="1084" 
d="M735 107h317v-107h-413l-61 152h-370l-66 -152h-136l326 700h710v-107h-516l77 -180h399v-99h-356zM250 249h288l-138 343z" />
    <glyph glyph-name="uni04D5" unicode="&#x4d5;" horiz-adv-x="1107" 
d="M887 528q88 0 127 -38.5t39 -127.5v-114h-439v-67q0 -49 18 -67t67 -18h168q37 0 52.5 15t15.5 53v23h118v-45q0 -73 -35 -107.5t-107 -34.5h-240q-114 0 -147 67l-12 -9q-46 -38 -80.5 -48t-104.5 -10h-149q-124 0 -124 124v55q0 124 124 124h315v52q0 48 -18.5 66
t-67.5 18h-144q-37 0 -52.5 -15t-15.5 -53v-19h-117v34q0 73 35 107.5t107 34.5h205q96 0 129 -53q32 53 128 53h205zM614 326h321v28q0 49 -18 67t-67 18h-151q-49 0 -67 -18t-18 -67v-28zM493 148v83h-258q-34 0 -47 -13.5t-13 -46.5v-28q0 -34 13 -47t47 -13h102
q67 0 110 31z" />
    <glyph glyph-name="uni04D6" unicode="&#x4d6;" horiz-adv-x="678" 
d="M227 748q-73 0 -73 73v51h86v-36q0 -30 30 -30h138q30 0 30 30v36h86v-51q0 -73 -73 -73h-224zM192 107h454v-107h-582v700h572v-107h-444v-180h404v-99h-404v-207z" />
    <glyph glyph-name="uni04D7" unicode="&#x4d7;" horiz-adv-x="668" 
d="M222 576q-73 0 -73 73v51h86v-36q0 -30 30 -30h138q30 0 30 30v36h86v-51q0 -73 -73 -73h-224zM448 528q88 0 127 -38.5t39 -127.5v-114h-439v-67q0 -49 18.5 -67t67.5 -18h168q37 0 52.5 15.5t15.5 52.5v23h117v-45q0 -73 -35 -107.5t-107 -34.5h-252q-88 0 -127 38.5
t-39 127.5v196q0 89 39 127.5t127 38.5h228zM175 326h322v28q0 49 -18.5 67t-67.5 18h-150q-49 0 -67.5 -18t-18.5 -67v-28z" />
    <glyph glyph-name="uni04DC" unicode="&#x4dc;" horiz-adv-x="1244" 
d="M566 848v-88h-96v88h96zM774 848v-88h-96v88h96zM1238 0h-189l-363 346v-346h-128v346l-363 -346h-189l393 362l-389 338h190l358 -328v328h128v-328l358 328h190l-389 -338z" />
    <glyph glyph-name="uni04DD" unicode="&#x4dd;" horiz-adv-x="1040" 
d="M464 676v-88h-96v88h96zM672 676v-88h-96v88h96zM1038 0h-179l-278 250v-250h-122v250l-278 -250h-179l313 266l-307 262h177l274 -252v252h122v-252l274 252h177l-307 -262z" />
    <glyph glyph-name="uni04DE" unicode="&#x4de;" horiz-adv-x="778" 
d="M333 848v-88h-96v88h96zM541 848v-88h-96v88h96zM647 366q77 -24 77 -127v-97q0 -73 -35 -107.5t-107 -34.5h-386q-72 0 -107 34.5t-35 107.5v95h124v-69q0 -38 15 -53t53 -15h282q38 0 53 15t15 53v81q0 38 -15 53t-53 15h-194v93h184q38 0 53 15t15 53v54q0 38 -15 53
t-53 15h-262q-38 0 -53 -15t-15 -53v-61h-124v87q0 73 35 107.5t107 34.5h366q72 0 107 -34.5t35 -107.5v-69q0 -98 -67 -123z" />
    <glyph glyph-name="uni04DF" unicode="&#x4df;" horiz-adv-x="668" 
d="M278 676v-88h-96v88h96zM486 676v-88h-96v88h96zM557 275q57 -18 57 -95v-73q0 -55 -26 -81t-81 -26h-346q-55 0 -81 26t-26 81v69h117v-39q0 -28 11.5 -39t40.5 -11h218q29 0 40.5 11t11.5 39v46q0 28 -11.5 39.5t-40.5 11.5h-137v79h130q28 0 39.5 11.5t11.5 39.5v27
q0 28 -11.5 39t-39.5 11h-204q-28 0 -39.5 -11t-11.5 -39v-33h-117v63q0 55 26 81t81 26h330q55 0 81.5 -26t26.5 -81v-53q0 -72 -50 -93z" />
    <glyph glyph-name="uni04E2" unicode="&#x4e2;" horiz-adv-x="808" 
d="M600 844v-66h-392v66h392zM636 700h108v-700h-124v516l-454 -516h-102v700h124v-508z" />
    <glyph glyph-name="uni04E3" unicode="&#x4e3;" horiz-adv-x="700" 
d="M546 672v-66h-392v66h392zM535 528h102v-528h-117v377l-361 -377h-96v528h118v-369z" />
    <glyph glyph-name="uni04E4" unicode="&#x4e4;" horiz-adv-x="808" 
d="M348 848v-88h-96v88h96zM556 848v-88h-96v88h96zM636 700h108v-700h-124v516l-454 -516h-102v700h124v-508z" />
    <glyph glyph-name="uni04E5" unicode="&#x4e5;" horiz-adv-x="700" 
d="M294 676v-88h-96v88h96zM502 676v-88h-96v88h96zM535 528h102v-528h-117v377l-361 -377h-96v528h118v-369z" />
    <glyph glyph-name="uni04E6" unicode="&#x4e6;" horiz-adv-x="800" 
d="M248 760v88h96v-88h-96zM456 760v88h96v-88h-96zM241 0q-96 0 -141 45t-45 141v328q0 96 45 141t141 45h318q96 0 141 -45t45 -141v-328q0 -96 -45 -141t-141 -45h-318zM283 110h234q55 0 77.5 22.5t22.5 77.5v280q0 55 -22.5 77.5t-77.5 22.5h-234q-55 0 -77.5 -22
t-22.5 -78v-280q0 -56 22.5 -78t77.5 -22z" />
    <glyph glyph-name="uni04E7" unicode="&#x4e7;" horiz-adv-x="678" 
d="M187 588v88h96v-88h-96zM395 588v88h96v-88h-96zM220 0q-88 0 -127 38.5t-39 127.5v196q0 89 39 127.5t127 38.5h238q88 0 127 -38.5t39 -127.5v-196q0 -89 -39 -127.5t-127 -38.5h-238zM260 98h158q49 0 66.5 18t17.5 67v162q0 49 -17.5 67t-66.5 18h-158
q-49 0 -66.5 -18t-17.5 -67v-162q0 -49 17.5 -67t66.5 -18z" />
    <glyph glyph-name="uni04EC" unicode="&#x4ec;" horiz-adv-x="786" 
d="M337 848v-88h-96v88h96zM545 848v-88h-96v88h96zM546 700q96 0 141 -45t45 -141v-328q0 -96 -45 -141t-141 -45h-308q-96 0 -141 45t-45 141v83h124v-69q0 -55 22.5 -77.5t77.5 -22.5h228q55 0 77.5 22.5t22.5 77.5v118h-256v85h256v97q0 55 -22.5 77.5t-77.5 22.5h-228
q-55 0 -77.5 -22.5t-22.5 -77.5v-60h-124v74q0 96 45 141t141 45h308z" />
    <glyph glyph-name="uni04ED" unicode="&#x4ed;" horiz-adv-x="674" 
d="M271 676v-88h-96v88h96zM479 676v-88h-96v88h96zM454 528q88 0 127 -38.5t39 -127.5v-196q0 -89 -39 -127.5t-127 -38.5h-234q-88 0 -127 38.5t-39 127.5v48h117v-33q0 -49 18.5 -67t67.5 -18h156q49 0 67.5 18t18.5 67v55h-193v75h193v36q0 49 -18.5 67t-67.5 18h-156
q-49 0 -67.5 -18t-18.5 -67v-26h-117v41q0 89 39 127.5t127 38.5h234z" />
    <glyph glyph-name="uni04EE" unicode="&#x4ee;" horiz-adv-x="728" 
d="M560 844v-66h-392v66h392zM589 700h143l-443 -700h-140l145 228l-298 472h149l222 -371z" />
    <glyph glyph-name="uni04EF" unicode="&#x4ef;" horiz-adv-x="638" 
d="M515 672v-66h-392v66h392zM502 528h130l-265 -540q-45 -92 -92.5 -120t-151.5 -28h-69v98h79q52 0 78 14t49 57l-254 519h135l179 -403z" />
    <glyph glyph-name="uni04F0" unicode="&#x4f0;" horiz-adv-x="728" 
d="M308 848v-88h-96v88h96zM516 848v-88h-96v88h96zM589 700h143l-443 -700h-140l145 228l-298 472h149l222 -371z" />
    <glyph glyph-name="uni04F1" unicode="&#x4f1;" horiz-adv-x="638" 
d="M263 676v-88h-96v88h96zM471 676v-88h-96v88h96zM502 528h130l-265 -540q-45 -92 -92.5 -120t-151.5 -28h-69v98h79q52 0 78 14t49 57l-254 519h135l179 -403z" />
    <glyph glyph-name="uni04F2" unicode="&#x4f2;" horiz-adv-x="728" 
d="M408 872l-110 -124h-100l84 124h126zM623 872l-109 -124h-101l84 124h126zM589 700h143l-443 -700h-140l145 228l-298 472h149l222 -371z" />
    <glyph glyph-name="uni04F3" unicode="&#x4f3;" horiz-adv-x="638" 
d="M363 700l-110 -124h-100l84 124h126zM578 700l-109 -124h-101l84 124h126zM502 528h130l-265 -540q-45 -92 -92.5 -120t-151.5 -28h-69v98h79q52 0 78 14t49 57l-254 519h135l179 -403z" />
    <glyph glyph-name="uni04F4" unicode="&#x4f4;" horiz-adv-x="736" 
d="M216 760v88h96v-88h-96zM424 760v88h96v-88h-96zM544 0v252h-346q-88 0 -127 38.5t-39 127.5v282h128v-250q0 -49 18 -66.5t67 -17.5h299v334h128v-700h-128z" />
    <glyph glyph-name="uni04F5" unicode="&#x4f5;" horiz-adv-x="600" 
d="M64 588v88h96v-88h-96zM272 588v88h96v-88h-96zM154 528v-171q0 -38 15 -53t53 -15h232v239h122v-528h-122v188h-280q-73 0 -107.5 34.5t-34.5 107.5v199z" />
    <glyph glyph-name="uni04F8" unicode="&#x4f8;" horiz-adv-x="1004" 
d="M718 760v88h96v-88h-96zM926 760v88h96v-88h-96zM64 700h128v-240h346q88 0 127 -38.5t39 -127.5v-128q0 -89 -39 -127.5t-127 -38.5h-474v700zM805 700h130v-700h-130v700zM192 362v-260h299q49 0 67 17.5t18 66.5v92q0 49 -18 66.5t-67 17.5h-299z" />
    <glyph glyph-name="uni04F9" unicode="&#x4f9;" horiz-adv-x="897" 
d="M616 588v88h96v-88h-96zM824 588v88h96v-88h-96zM63 528h122v-179h284q72 0 105 -33t33 -105v-73q0 -72 -33 -105t-105 -33h-406v528zM706 0v528h123v-528h-123zM185 266v-179h236q36 0 50.5 14.5t14.5 50.5v49q0 36 -14.5 50.5t-50.5 14.5h-236z" />
    <glyph glyph-name="Wgrave" unicode="&#x1e80;" horiz-adv-x="1102" 
d="M599 748h-101l-124 124h132zM962 700h134l-256 -700h-113l-176 509l-176 -509h-113l-256 700h141l180 -528l178 528h97l179 -528z" />
    <glyph glyph-name="wgrave" unicode="&#x1e81;" horiz-adv-x="902" 
d="M499 576h-101l-124 124h132zM772 528h124l-205 -528h-105l-134 374l-134 -374h-107l-205 528h129l135 -380l137 380h93l138 -381z" />
    <glyph glyph-name="Wacute" unicode="&#x1e82;" horiz-adv-x="1102" 
d="M728 872l-123 -124h-102l94 124h131zM962 700h134l-256 -700h-113l-176 509l-176 -509h-113l-256 700h141l180 -528l178 528h97l179 -528z" />
    <glyph glyph-name="wacute" unicode="&#x1e83;" horiz-adv-x="902" 
d="M628 700l-123 -124h-102l94 124h131zM772 528h124l-205 -528h-105l-134 374l-134 -374h-107l-205 528h129l135 -380l137 380h93l138 -381z" />
    <glyph glyph-name="Wdieresis" unicode="&#x1e84;" horiz-adv-x="1102" 
d="M495 848v-88h-96v88h96zM703 848v-88h-96v88h96zM962 700h134l-256 -700h-113l-176 509l-176 -509h-113l-256 700h141l180 -528l178 528h97l179 -528z" />
    <glyph glyph-name="wdieresis" unicode="&#x1e85;" horiz-adv-x="902" 
d="M395 676v-88h-96v88h96zM603 676v-88h-96v88h96zM772 528h124l-205 -528h-105l-134 374l-134 -374h-107l-205 528h129l135 -380l137 380h93l138 -381z" />
    <glyph glyph-name="uni1E9E" unicode="&#x1e9e;" horiz-adv-x="797" 
d="M605 419q73 0 107.5 -34t34.5 -108v-135q0 -73 -35 -107.5t-107 -34.5h-264v97h210q37 0 52.5 15.5t15.5 52.5v96q0 37 -15.5 52.5t-52.5 15.5h-190v66l168 197h-244q-55 0 -77.5 -22.5t-22.5 -77.5v-492h-128v514q0 96 45 141t141 45h458v-57l-189 -224h93z" />
    <glyph glyph-name="Ygrave" unicode="&#x1ef2;" horiz-adv-x="728" 
d="M412 748h-101l-124 124h132zM732 700l-304 -442v-258h-128v258l-304 442h149l222 -337l222 337h143z" />
    <glyph glyph-name="ygrave" unicode="&#x1ef3;" horiz-adv-x="638" 
d="M367 576h-101l-124 124h132zM502 528h130l-265 -540q-45 -92 -92.5 -120t-151.5 -28h-69v98h79q52 0 78 14t49 57l-254 519h135l179 -403z" />
    <glyph glyph-name="endash" unicode="&#x2013;" horiz-adv-x="640" 
d="M48 402h544v-104h-544v104z" />
    <glyph glyph-name="emdash" unicode="&#x2014;" horiz-adv-x="900" 
d="M48 402h804v-104h-804v104z" />
    <glyph glyph-name="quoteleft" unicode="&#x2018;" horiz-adv-x="276" 
d="M212 700l-51 -160h51v-132h-148v55q0 53 20 97l51 140h77z" />
    <glyph glyph-name="quoteright" unicode="&#x2019;" horiz-adv-x="276" 
d="M64 408l51 160h-51v132h148v-55q0 -53 -20 -97l-51 -140h-77z" />
    <glyph glyph-name="quotesinglbase" unicode="&#x201a;" horiz-adv-x="276" 
d="M64 -160l51 160h-51v132h148v-55q0 -53 -20 -97l-51 -140h-77z" />
    <glyph glyph-name="quotedblleft" unicode="&#x201c;" horiz-adv-x="520" 
d="M212 700l-51 -160h51v-132h-148v55q0 53 20 97l51 140h77zM456 700l-51 -160h51v-132h-148v55q0 53 20 97l51 140h77z" />
    <glyph glyph-name="quotedblright" unicode="&#x201d;" horiz-adv-x="520" 
d="M64 408l51 160h-51v132h148v-55q0 -53 -20 -97l-51 -140h-77zM308 408l51 160h-51v132h148v-55q0 -53 -20 -97l-51 -140h-77z" />
    <glyph glyph-name="quotedblbase" unicode="&#x201e;" horiz-adv-x="520" 
d="M64 -160l51 160h-51v132h148v-55q0 -53 -20 -97l-51 -140h-77zM308 -160l51 160h-51v132h148v-55q0 -53 -20 -97l-51 -140h-77z" />
    <glyph glyph-name="dagger" unicode="&#x2020;" horiz-adv-x="414" 
d="M372 576v-76h-124v-226h-82v226h-124v76h124v124h82v-124h124z" />
    <glyph glyph-name="daggerdbl" unicode="&#x2021;" horiz-adv-x="414" 
d="M372 508h-124v-138h124v-74h-124v-118h-82v118h-124v74h124v138h-124v74h124v118h82v-118h124v-74z" />
    <glyph glyph-name="bullet" unicode="&#x2022;" horiz-adv-x="380" 
d="M135 224q-71 0 -71 71v110q0 71 71 71h110q71 0 71 -71v-110q0 -71 -71 -71h-110z" />
    <glyph glyph-name="perthousand" unicode="&#x2030;" horiz-adv-x="1240" 
d="M146 306q-104 0 -104 104v106q0 54 25.5 79t78.5 25h120q53 0 78.5 -25t25.5 -79v-106q0 -104 -104 -104h-120zM130 0l522 620h78l-522 -620h-78zM167 372h78q28 0 40 12t12 40v78q0 28 -11.5 40t-40.5 12h-78q-29 0 -40.5 -12t-11.5 -40v-78q0 -28 12 -40t40 -12zM594 0
q-104 0 -104 104v106q0 54 25.5 79t78.5 25h120q53 0 78.5 -25t25.5 -79v-106q0 -104 -104 -104h-120zM974 0q-104 0 -104 104v106q0 54 25.5 79t78.5 25h120q53 0 78.5 -25t25.5 -79v-106q0 -104 -104 -104h-120zM615 66h78q28 0 40 12t12 40v78q0 28 -11.5 40t-40.5 12
h-78q-29 0 -40.5 -12t-11.5 -40v-78q0 -28 12 -40t40 -12zM995 66h78q28 0 40 12t12 40v78q0 28 -11.5 40t-40.5 12h-78q-29 0 -40.5 -12t-11.5 -40v-78q0 -28 12 -40t40 -12z" />
    <glyph glyph-name="guilsinglleft" unicode="&#x2039;" horiz-adv-x="428" 
d="M376 586v-103l-233 -132l233 -133v-105l-324 198v77z" />
    <glyph glyph-name="guilsinglright" unicode="&#x203a;" horiz-adv-x="428" 
d="M52 586l324 -198v-77l-324 -198v103l233 133l-233 132v105z" />
    <glyph glyph-name="fraction" unicode="&#x2044;" horiz-adv-x="196" 
d="M-212 0l540 700h80l-540 -700h-80z" />
    <glyph glyph-name="Euro" unicode="&#x20ac;" horiz-adv-x="772" 
d="M706 440h-120v62q0 55 -22.5 77.5t-77.5 22.5h-166q-55 0 -77.5 -22.5t-22.5 -77.5v-50h254v-59h-254v-86h254v-59h-254v-50q0 -55 22.5 -77.5t77.5 -22.5h166q55 0 77.5 22.5t22.5 77.5v71h120v-83q0 -96 -45 -141t-141 -45h-238q-96 0 -141 45t-45 141v62h-90v59h90v86
h-90v59h90v62q0 96 45 141t141 45h238q96 0 141 -45t45 -141v-74z" />
    <glyph glyph-name="trademark" unicode="&#x2122;" horiz-adv-x="575" 
d="M251 700v-50h-82v-183h-55v183h-82v50h219zM496 700h47v-233h-51v147l-67 -102h-29l-66 100v-145h-52v233h49l85 -130z" />
    <glyph glyph-name="minus" unicode="&#x2212;" 
d="M68 402h616v-104h-616v104z" />
    <glyph glyph-name="approxequal" unicode="&#x2248;" 
d="M480 471q14 -15 23 -19.5t28 -4.5h17q17 0 24.5 7.5t7.5 25.5v194h104v-214q0 -51 -21.5 -72.5t-72.5 -21.5h-78q-47 0 -70 11.5t-53 51.5l-117 140q-14 15 -23 19.5t-28 4.5h-17q-17 0 -24.5 -7.5t-7.5 -25.5v-194h-104v214q0 51 21.5 72.5t72.5 21.5h78
q47 0 70.5 -11.5t52.5 -50.5zM480 131q14 -15 23 -19.5t28 -4.5h17q17 0 24.5 7.5t7.5 25.5v194h104v-214q0 -51 -21.5 -72.5t-72.5 -21.5h-78q-47 0 -70 11.5t-53 51.5l-117 140q-14 15 -23 19.5t-28 4.5h-17q-17 0 -24.5 -7.5t-7.5 -25.5v-194h-104v214q0 51 21.5 72.5
t72.5 21.5h78q47 0 70.5 -11.5t52.5 -50.5z" />
    <glyph glyph-name="notequal" unicode="&#x2260;" 
d="M684 426h-228l-66 -152h294v-100h-337l-56 -130h-94l56 130h-185v100h228l66 152h-294v100h337l56 130h94l-56 -130h185v-100z" />
    <glyph glyph-name="lessequal" unicode="&#x2264;" 
d="M684 676v-106l-501 -124l501 -124v-107l-616 184v93zM68 24v93h616v-93h-616z" />
    <glyph glyph-name="greaterequal" unicode="&#x2265;" 
d="M68 676l616 -184v-93l-616 -184v107l501 124l-501 124v106zM68 24v93h616v-93h-616z" />
    <glyph glyph-name="fi" unicode="&#xfb01;" horiz-adv-x="735" 
d="M124 558q0 73 35 107.5t107 34.5h196v-97h-149q-37 0 -52.5 -15.5t-15.5 -52.5v-70h217v-97h-217v-368h-121v368h-108v97h108v93zM545 700h124v-99h-124v99zM545 0v528h124v-528h-124z" />
    <glyph glyph-name="fl" unicode="&#xfb02;" horiz-adv-x="736" 
d="M124 558q0 73 35 107.5t107 34.5h196v-97h-149q-37 0 -52.5 -15.5t-15.5 -52.5v-70h217v-97h-217v-368h-121v368h-108v97h108v93zM545 700h123v-700h-123v700z" />
    <glyph glyph-name="A.ss01" horiz-adv-x="789" 
d="M547 700q96 0 141 -45t45 -141v-514h-128v223h-420v-223h-128v514q0 96 45 141t141 45h304zM185 329h420v162q0 55 -22.5 77.5t-77.5 22.5h-220q-55 0 -77.5 -22.5t-22.5 -77.5v-162z" />
    <glyph glyph-name="Aacute.ss01" horiz-adv-x="789" 
d="M574 872l-123 -124h-102l94 124h131zM547 700q96 0 141 -45t45 -141v-514h-128v223h-420v-223h-128v514q0 96 45 141t141 45h304zM185 329h420v162q0 55 -22.5 77.5t-77.5 22.5h-220q-55 0 -77.5 -22.5t-22.5 -77.5v-162z" />
    <glyph glyph-name="Abreve.ss01" horiz-adv-x="789" 
d="M285 748q-73 0 -73 73v51h86v-36q0 -30 30 -30h138q30 0 30 30v36h86v-51q0 -73 -73 -73h-224zM547 700q96 0 141 -45t45 -141v-514h-128v223h-420v-223h-128v514q0 96 45 141t141 45h304zM185 329h420v162q0 55 -22.5 77.5t-77.5 22.5h-220q-55 0 -77.5 -22.5
t-22.5 -77.5v-162z" />
    <glyph glyph-name="Acircumflex.ss01" horiz-adv-x="789" 
d="M397 820l-95 -72h-92l126 124h122l126 -124h-92zM547 700q96 0 141 -45t45 -141v-514h-128v223h-420v-223h-128v514q0 96 45 141t141 45h304zM185 329h420v162q0 55 -22.5 77.5t-77.5 22.5h-220q-55 0 -77.5 -22.5t-22.5 -77.5v-162z" />
    <glyph glyph-name="Adieresis.ss01" horiz-adv-x="789" 
d="M341 848v-88h-96v88h96zM549 848v-88h-96v88h96zM547 700q96 0 141 -45t45 -141v-514h-128v223h-420v-223h-128v514q0 96 45 141t141 45h304zM185 329h420v162q0 55 -22.5 77.5t-77.5 22.5h-220q-55 0 -77.5 -22.5t-22.5 -77.5v-162z" />
    <glyph glyph-name="Agrave.ss01" horiz-adv-x="789" 
d="M445 748h-101l-124 124h132zM547 700q96 0 141 -45t45 -141v-514h-128v223h-420v-223h-128v514q0 96 45 141t141 45h304zM185 329h420v162q0 55 -22.5 77.5t-77.5 22.5h-220q-55 0 -77.5 -22.5t-22.5 -77.5v-162z" />
    <glyph glyph-name="Amacron.ss01" horiz-adv-x="789" 
d="M593 844v-66h-392v66h392zM547 700q96 0 141 -45t45 -141v-514h-128v223h-420v-223h-128v514q0 96 45 141t141 45h304zM185 329h420v162q0 55 -22.5 77.5t-77.5 22.5h-220q-55 0 -77.5 -22.5t-22.5 -77.5v-162z" />
    <glyph glyph-name="Aogonek.ss01" horiz-adv-x="789" 
d="M652 -90h113v-70h-142q-42 0 -61 19t-19 61v15q0 32 8.5 49t37.5 37l16 9v193h-420v-223h-128v514q0 96 45 141t141 45h304q96 0 141 -45t45 -141v-514h-76l-14 -9q-22 -14 -22 -37v-13q0 -17 7 -24t24 -7zM185 329h420v162q0 55 -22.5 77.5t-77.5 22.5h-220
q-55 0 -77.5 -22.5t-22.5 -77.5v-162z" />
    <glyph glyph-name="Aring.ss01" horiz-adv-x="789" 
d="M310 738q-28 0 -41 13t-13 41v26q0 28 13 41t41 13h174q28 0 41 -13t13 -41v-26q0 -28 -13 -41t-41 -13h-174zM309 812v-14q0 -12 4 -16.5t16 -4.5h136q12 0 16 4.5t4 16.5v14q0 12 -4 16.5t-16 4.5h-136q-12 0 -16 -4.5t-4 -16.5zM547 700q96 0 141 -45t45 -141v-514
h-128v223h-420v-223h-128v514q0 96 45 141t141 45h304zM185 329h420v162q0 55 -22.5 77.5t-77.5 22.5h-220q-55 0 -77.5 -22.5t-22.5 -77.5v-162z" />
    <glyph glyph-name="Aringacute.ss01" horiz-adv-x="789" 
d="M547 700q96 0 141 -45t45 -141v-514h-128v223h-420v-223h-128v514q0 96 45 141t141 45h15q-2 12 -2 20v26q0 28 13 41t41 13h53l53 72h131l-71 -72h8q28 0 41 -13t13 -41v-26q0 -8 -2 -20h11zM309 740v-14q0 -12 4 -16.5t16 -4.5h136q12 0 16 4.5t4 16.5v14q0 12 -4 16.5
t-16 4.5h-136q-12 0 -16 -4.5t-4 -16.5zM185 329h420v162q0 55 -22.5 77.5t-77.5 22.5h-220q-55 0 -77.5 -22.5t-22.5 -77.5v-162z" />
    <glyph glyph-name="Atilde.ss01" horiz-adv-x="789" 
d="M285 808v-60h-73v74q0 50 50 50h87q23 0 35.5 -5t26.5 -21l38 -38q10 -10 25 -10h20q15 0 15 14v60h73v-74q0 -50 -50 -50h-87q-23 0 -35.5 5t-26.5 21l-38 38q-10 10 -25 10h-20q-15 0 -15 -14zM547 700q96 0 141 -45t45 -141v-514h-128v223h-420v-223h-128v514
q0 96 45 141t141 45h304zM185 329h420v162q0 55 -22.5 77.5t-77.5 22.5h-220q-55 0 -77.5 -22.5t-22.5 -77.5v-162z" />
    <glyph glyph-name="I.ss01" horiz-adv-x="572" 
d="M540 601h-189v-502h189v-99h-508v99h189v502h-189v99h508v-99z" />
    <glyph glyph-name="Iacute.ss01" horiz-adv-x="572" 
d="M463 872l-123 -124h-102l94 124h131zM540 601h-189v-502h189v-99h-508v99h189v502h-189v99h508v-99z" />
    <glyph glyph-name="Icircumflex.ss01" horiz-adv-x="572" 
d="M286 820l-95 -72h-92l126 124h122l126 -124h-92zM540 601h-189v-502h189v-99h-508v99h189v502h-189v99h508v-99z" />
    <glyph glyph-name="Idieresis.ss01" horiz-adv-x="572" 
d="M230 848v-88h-96v88h96zM438 848v-88h-96v88h96zM540 601h-189v-502h189v-99h-508v99h189v502h-189v99h508v-99z" />
    <glyph glyph-name="Idotaccent.ss01" horiz-adv-x="572" 
d="M347 848v-88h-123v88h123zM540 601h-189v-502h189v-99h-508v99h189v502h-189v99h508v-99z" />
    <glyph glyph-name="Igrave.ss01" horiz-adv-x="572" 
d="M334 748h-101l-124 124h132zM540 601h-189v-502h189v-99h-508v99h189v502h-189v99h508v-99z" />
    <glyph glyph-name="Imacron.ss01" horiz-adv-x="572" 
d="M482 844v-66h-392v66h392zM540 601h-189v-502h189v-99h-508v99h189v502h-189v99h508v-99z" />
    <glyph glyph-name="Iogonek.ss01" horiz-adv-x="572" 
d="M540 601h-189v-502h189v-99h-108l-14 -9q-22 -14 -22 -37v-13q0 -17 7 -24t24 -7h113v-70h-142q-42 0 -61 19t-19 61v15q0 44 20 65h-306v99h189v502h-189v99h508v-99z" />
    <glyph glyph-name="Itilde.ss01" horiz-adv-x="572" 
d="M174 808v-60h-73v74q0 50 50 50h87q23 0 35.5 -5t26.5 -21l38 -38q10 -10 25 -10h20q15 0 15 14v60h73v-74q0 -50 -50 -50h-87q-23 0 -35.5 5t-26.5 21l-38 38q-10 10 -25 10h-20q-15 0 -15 -14zM540 601h-189v-502h189v-99h-508v99h189v502h-189v99h508v-99z" />
    <glyph glyph-name="R.ss01" horiz-adv-x="760" 
d="M704 435q0 -100 -71 -125q71 -25 71 -125v-185h-128v192q0 39 -16 54.5t-54 15.5h-314v-262h-128v700h498q73 0 107.5 -34t34.5 -108v-123zM192 602v-244h314q38 0 54 15.5t16 54.5v104q0 39 -16 54.5t-54 15.5h-314z" />
    <glyph glyph-name="Racute.ss01" horiz-adv-x="760" 
d="M557 872l-123 -124h-102l94 124h131zM704 435q0 -100 -71 -125q71 -25 71 -125v-185h-128v192q0 39 -16 54.5t-54 15.5h-314v-262h-128v700h498q73 0 107.5 -34t34.5 -108v-123zM192 602v-244h314q38 0 54 15.5t16 54.5v104q0 39 -16 54.5t-54 15.5h-314z" />
    <glyph glyph-name="Rcaron.ss01" horiz-adv-x="760" 
d="M441 748h-122l-126 124h92l95 -72l95 72h92zM704 435q0 -100 -71 -125q71 -25 71 -125v-185h-128v192q0 39 -16 54.5t-54 15.5h-314v-262h-128v700h498q73 0 107.5 -34t34.5 -108v-123zM192 602v-244h314q38 0 54 15.5t16 54.5v104q0 39 -16 54.5t-54 15.5h-314z" />
    <glyph glyph-name="Rcommaaccent.ss01" horiz-adv-x="760" 
d="M704 435q0 -100 -71 -125q71 -25 71 -125v-185h-128v192q0 39 -16 54.5t-54 15.5h-314v-262h-128v700h498q73 0 107.5 -34t34.5 -108v-123zM192 602v-244h314q38 0 54 15.5t16 54.5v104q0 39 -16 54.5t-54 15.5h-314zM318 -114v84h124v-35q0 -25 -4 -38.5t-18 -35.5
l-33 -57h-65l41 82h-45z" />
    <glyph glyph-name="i.loclTRK" horiz-adv-x="258" 
d="M67 588v88h123v-88h-123zM67 0v528h123v-528h-123z" />
    <glyph glyph-name="uni0410.ss01" horiz-adv-x="793" 
d="M551 700q96 0 141 -45t45 -141v-514h-128v223h-424v-223h-128v514q0 96 45 141t141 45h308zM185 329h424v162q0 55 -22.5 77.5t-77.5 22.5h-224q-55 0 -77.5 -22.5t-22.5 -77.5v-162z" />
    <glyph glyph-name="uni042F.ss01" horiz-adv-x="760" 
d="M198 700h498v-700h-128v262h-314q-38 0 -54 -15.5t-16 -54.5v-192h-128v185q0 100 71 125q-71 25 -71 125v123q0 74 34.5 108t107.5 34zM184 532v-104q0 -39 16 -54.5t54 -15.5h314v244h-314q-38 0 -54 -15.5t-16 -54.5z" />
    <glyph glyph-name="uni044F.ss01" horiz-adv-x="655" 
d="M155 528h437v-528h-122v194h-254q-28 0 -39 -11t-11 -39v-144h-118v144q0 75 53 94q-53 19 -53 95v87q0 56 26 82t81 26zM170 394v-68q0 -29 11.5 -40.5t39.5 -11.5h249v170h-249q-28 0 -39.5 -11t-11.5 -39z" />
    <glyph glyph-name="zero.tf" 
d="M252 0q-96 0 -141 45t-45 141v328q0 96 45 141t141 45h248q96 0 141 -45t45 -141v-328q0 -96 -45 -141t-141 -45h-248zM290 106h172q55 0 77.5 22.5t22.5 77.5v288q0 55 -22.5 77.5t-77.5 22.5h-172q-55 0 -77.5 -22.5t-22.5 -77.5v-288q0 -55 22.5 -77.5t77.5 -22.5z
" />
    <glyph glyph-name="one.tf" 
d="M460 102h244v-102h-656v102h288v486l-258 -24v106l324 30h58v-598z" />
    <glyph glyph-name="two.tf" 
d="M675 0h-609v215q0 71 33.5 103.5t108.5 44.5l286 46q38 7 53 22.5t15 51.5v48q0 37 -15 52.5t-53 15.5h-226q-38 0 -53 -15.5t-15 -52.5v-34h-120v61q0 73 35 107.5t107 34.5h322q72 0 107 -34.5t35 -107.5v-97q0 -71 -33.5 -103.5t-108.5 -44.5l-286 -46
q-39 -7 -53.5 -22t-14.5 -52v-88h485v-105z" />
    <glyph glyph-name="three.tf" 
d="M611 366q77 -24 77 -127v-97q0 -73 -35 -107.5t-107 -34.5h-340q-72 0 -107 34.5t-35 107.5v85h120v-60q0 -38 15 -53t53 -15h244q38 0 53 15t15 53v82q0 38 -15 53t-53 15h-171v92h161q37 0 52.5 15.5t15.5 52.5v56q0 38 -15 53t-53 15h-224q-38 0 -53 -15t-15 -53v-52
h-120v77q0 73 35 107.5t107 34.5h320q72 0 107 -34.5t35 -107.5v-69q0 -98 -67 -123z" />
    <glyph glyph-name="four.tf" 
d="M724 260v-97h-147v-163h-120v163h-429v81l407 456h142v-440h147zM160 260h297v334z" />
    <glyph glyph-name="five.tf" 
d="M70 0v105h424q37 0 52.5 15.5t15.5 52.5v83q0 38 -15 53t-53 15h-424v376h586v-105h-462v-168h350q72 0 107 -34.5t35 -107.5v-143q0 -73 -35 -107.5t-107 -34.5h-474z" />
    <glyph glyph-name="six.tf" 
d="M544 429q73 0 107.5 -34t34.5 -108v-145q0 -73 -35 -107.5t-107 -34.5h-336q-72 0 -107 34.5t-35 107.5v372q0 96 45 141t141 45h404v-105h-366q-55 0 -77.5 -22.5t-22.5 -77.5v-100q28 34 101 34h253zM562 169v92q0 38 -15 53t-53 15h-236q-38 0 -53 -15t-15 -53v-92
q0 -37 15 -52.5t53 -15.5h236q38 0 53 15.5t15 52.5z" />
    <glyph glyph-name="seven.tf" 
d="M48 700h656v-94l-259 -280q-34 -36 -45 -70.5t-11 -92.5v-163h-126v161q0 79 16 127.5t63 97.5l194 204h-488v110z" />
    <glyph glyph-name="eight.tf" 
d="M611 366q77 -24 77 -127v-97q0 -73 -35 -107.5t-107 -34.5h-340q-72 0 -107 34.5t-35 107.5v97q0 103 77 127q-67 25 -67 123v69q0 73 35 107.5t107 34.5h320q72 0 107 -34.5t35 -107.5v-69q0 -98 -67 -123zM198 535v-60q0 -37 15 -52.5t53 -15.5h220q38 0 53 15.5
t15 52.5v60q0 38 -15 53t-53 15h-220q-38 0 -53 -15t-15 -53zM564 165v87q0 38 -15 53t-53 15h-240q-38 0 -53 -15t-15 -53v-87q0 -38 15 -53t53 -15h240q38 0 53 15t15 53z" />
    <glyph glyph-name="nine.tf" 
d="M544 700q72 0 107 -34.5t35 -107.5v-372q0 -96 -45 -141t-141 -45h-404v105h366q55 0 77.5 22.5t22.5 77.5v93q-28 -34 -101 -34h-253q-72 0 -107 34.5t-35 107.5v152q0 73 35 107.5t107 34.5h336zM494 364q38 0 53 15t15 53v99q0 37 -15 52.5t-53 15.5h-236
q-38 0 -53 -15.5t-15 -52.5v-99q0 -38 15 -53t53 -15h236z" />
    <glyph glyph-name="zero.subs" horiz-adv-x="482" 
d="M165 -100q-60 0 -89 28.5t-29 89.5v184q0 61 29 89.5t89 28.5h152q60 0 89 -28.5t29 -89.5v-184q0 -61 -29 -89.5t-89 -28.5h-152zM197 -10h88q25 0 35.5 10t10.5 35v150q0 25 -10.5 35t-35.5 10h-88q-25 0 -35.5 -10t-10.5 -35v-150q0 -25 10.5 -35t35.5 -10z" />
    <glyph glyph-name="one.subs" horiz-adv-x="446" 
d="M286 -15h126v-85h-379v85h148v241l-130 -13v89l186 18h49v-335z" />
    <glyph glyph-name="two.subs" horiz-adv-x="482" 
d="M428 -100h-381v135q0 45 22 67t70 29l161 22q18 2 24.5 9t6.5 24v21q0 17 -7 24t-24 7h-113q-18 0 -25 -7t-7 -24v-19h-100v40q0 48 22.5 70t69.5 22h196q47 0 69.5 -22t22.5 -70v-55q0 -46 -21.5 -67.5t-70.5 -28.5l-161 -22q-17 -2 -24 -9.5t-7 -23.5v-34h277v-88z" />
    <glyph glyph-name="three.subs" horiz-adv-x="476" 
d="M386 117q47 -15 47 -79v-46q0 -48 -22 -70t-69 -22h-207q-47 0 -69.5 22t-22.5 70v55h100v-32q0 -18 7 -24.5t24 -6.5h124q18 0 24.5 6.5t6.5 24.5v32q0 17 -6.5 24t-24.5 7h-91v75h85q18 0 24.5 7t6.5 25v20q0 18 -6.5 24.5t-24.5 6.5h-112q-17 0 -24 -6.5t-7 -24.5v-27
h-100v50q0 48 22.5 70t69.5 22h195q47 0 69 -22t22 -70v-34q0 -62 -41 -77z" />
    <glyph glyph-name="four.subs" horiz-adv-x="500" 
d="M466 66v-80h-84v-86h-100v86h-249v67l233 267h116v-254h84zM147 66h135v155z" />
    <glyph glyph-name="five.subs" horiz-adv-x="463" 
d="M48 -100v88h232q18 0 25 7t7 24v29q0 18 -7 25t-25 7h-232v240h349v-88h-245v-69h172q47 0 69 -22t22 -70v-79q0 -48 -22 -70t-69 -22h-276z" />
    <glyph glyph-name="six.subs" horiz-adv-x="482" 
d="M343 163q47 0 69.5 -22t22.5 -69v-80q0 -48 -22.5 -70t-69.5 -22h-204q-47 0 -69.5 22t-22.5 70v210q0 61 29 89.5t89 28.5h252v-88h-220q-25 0 -35.5 -10t-10.5 -36v-43q17 20 61 20h131zM331 17v35q0 18 -7 25t-24 7h-118q-17 0 -24 -7t-7 -25v-35q0 -17 7 -24t24 -7
h118q17 0 24 7t7 24z" />
    <glyph glyph-name="seven.subs" horiz-adv-x="458" 
d="M33 320h391v-80l-147 -164q-16 -18 -21 -34.5t-5 -44.5v-97h-107v90q0 51 9 78.5t37 58.5l93 100h-250v93z" />
    <glyph glyph-name="eight.subs" horiz-adv-x="482" 
d="M389 117q47 -15 47 -79v-46q0 -48 -22 -70t-69 -22h-207q-47 0 -69.5 22t-22.5 70v46q0 64 48 79q-42 15 -42 77v34q0 48 22.5 70t69.5 22h195q47 0 69 -22t22 -70v-34q0 -62 -41 -77zM156 207v-25q0 -17 7 -24t24 -7h108q18 0 24.5 7t6.5 24v25q0 17 -6.5 24t-24.5 7
h-108q-17 0 -24 -7t-7 -24zM332 13v36q0 17 -6.5 24t-24.5 7h-120q-17 0 -24 -7t-7 -24v-36q0 -17 7 -24t24 -7h120q18 0 24.5 7t6.5 24z" />
    <glyph glyph-name="nine.subs" horiz-adv-x="482" 
d="M343 320q47 0 69.5 -22t22.5 -70v-210q0 -61 -29 -89.5t-89 -28.5h-252v88h220q25 0 35.5 10t10.5 36v40q-17 -20 -61 -20h-131q-47 0 -69.5 22t-22.5 69v83q0 48 22.5 70t69.5 22h204zM300 133q17 0 24 7t7 25v38q0 17 -7 24t-24 7h-118q-17 0 -24 -7t-7 -24v-38
q0 -18 7 -25t24 -7h118z" />
    <glyph glyph-name="zero.dnom" horiz-adv-x="482" 
d="M165 0q-60 0 -89 28.5t-29 89.5v184q0 61 29 89.5t89 28.5h152q60 0 89 -28.5t29 -89.5v-184q0 -61 -29 -89.5t-89 -28.5h-152zM197 90h88q25 0 35.5 10t10.5 35v150q0 25 -10.5 35t-35.5 10h-88q-25 0 -35.5 -10t-10.5 -35v-150q0 -25 10.5 -35t35.5 -10z" />
    <glyph glyph-name="one.dnom" horiz-adv-x="446" 
d="M286 85h126v-85h-379v85h148v241l-130 -13v89l186 18h49v-335z" />
    <glyph glyph-name="two.dnom" horiz-adv-x="482" 
d="M428 0h-381v135q0 45 22 67t70 29l161 22q18 2 24.5 9t6.5 24v21q0 17 -7 24t-24 7h-113q-18 0 -25 -7t-7 -24v-19h-100v40q0 48 22.5 70t69.5 22h196q47 0 69.5 -22t22.5 -70v-55q0 -46 -21.5 -67.5t-70.5 -28.5l-161 -22q-17 -2 -24 -9.5t-7 -23.5v-34h277v-88z" />
    <glyph glyph-name="three.dnom" horiz-adv-x="476" 
d="M386 217q47 -15 47 -79v-46q0 -48 -22 -70t-69 -22h-207q-47 0 -69.5 22t-22.5 70v55h100v-32q0 -18 7 -24.5t24 -6.5h124q18 0 24.5 6.5t6.5 24.5v32q0 17 -6.5 24t-24.5 7h-91v75h85q18 0 24.5 7t6.5 25v20q0 18 -6.5 24.5t-24.5 6.5h-112q-17 0 -24 -6.5t-7 -24.5v-27
h-100v50q0 48 22.5 70t69.5 22h195q47 0 69 -22t22 -70v-34q0 -62 -41 -77z" />
    <glyph glyph-name="four.dnom" horiz-adv-x="500" 
d="M466 166v-80h-84v-86h-100v86h-249v67l233 267h116v-254h84zM147 166h135v155z" />
    <glyph glyph-name="five.dnom" horiz-adv-x="463" 
d="M48 0v88h232q18 0 25 7t7 24v29q0 18 -7 25t-25 7h-232v240h349v-88h-245v-69h172q47 0 69 -22t22 -70v-79q0 -48 -22 -70t-69 -22h-276z" />
    <glyph glyph-name="six.dnom" horiz-adv-x="482" 
d="M343 263q47 0 69.5 -22t22.5 -69v-80q0 -48 -22.5 -70t-69.5 -22h-204q-47 0 -69.5 22t-22.5 70v210q0 61 29 89.5t89 28.5h252v-88h-220q-25 0 -35.5 -10t-10.5 -36v-43q17 20 61 20h131zM331 117v35q0 18 -7 25t-24 7h-118q-17 0 -24 -7t-7 -25v-35q0 -17 7 -24t24 -7
h118q17 0 24 7t7 24z" />
    <glyph glyph-name="seven.dnom" horiz-adv-x="458" 
d="M33 420h391v-80l-147 -164q-16 -18 -21 -34.5t-5 -44.5v-97h-107v90q0 51 9 78.5t37 58.5l93 100h-250v93z" />
    <glyph glyph-name="eight.dnom" horiz-adv-x="482" 
d="M389 217q47 -15 47 -79v-46q0 -48 -22 -70t-69 -22h-207q-47 0 -69.5 22t-22.5 70v46q0 64 48 79q-42 15 -42 77v34q0 48 22.5 70t69.5 22h195q47 0 69 -22t22 -70v-34q0 -62 -41 -77zM156 307v-25q0 -17 7 -24t24 -7h108q18 0 24.5 7t6.5 24v25q0 17 -6.5 24t-24.5 7
h-108q-17 0 -24 -7t-7 -24zM332 113v36q0 17 -6.5 24t-24.5 7h-120q-17 0 -24 -7t-7 -24v-36q0 -17 7 -24t24 -7h120q18 0 24.5 7t6.5 24z" />
    <glyph glyph-name="nine.dnom" horiz-adv-x="482" 
d="M343 420q47 0 69.5 -22t22.5 -70v-210q0 -61 -29 -89.5t-89 -28.5h-252v88h220q25 0 35.5 10t10.5 36v40q-17 -20 -61 -20h-131q-47 0 -69.5 22t-22.5 69v83q0 48 22.5 70t69.5 22h204zM300 233q17 0 24 7t7 25v38q0 17 -7 24t-24 7h-118q-17 0 -24 -7t-7 -24v-38
q0 -18 7 -25t24 -7h118z" />
    <glyph glyph-name="zero.numr" horiz-adv-x="482" 
d="M165 280q-60 0 -89 28.5t-29 89.5v184q0 61 29 89.5t89 28.5h152q60 0 89 -28.5t29 -89.5v-184q0 -61 -29 -89.5t-89 -28.5h-152zM197 370h88q25 0 35.5 10t10.5 35v150q0 25 -10.5 35t-35.5 10h-88q-25 0 -35.5 -10t-10.5 -35v-150q0 -25 10.5 -35t35.5 -10z" />
    <glyph glyph-name="one.numr" horiz-adv-x="446" 
d="M286 365h126v-85h-379v85h148v241l-130 -13v89l186 18h49v-335z" />
    <glyph glyph-name="two.numr" horiz-adv-x="482" 
d="M428 280h-381v135q0 45 22 67t70 29l161 22q18 2 24.5 9t6.5 24v21q0 17 -7 24t-24 7h-113q-18 0 -25 -7t-7 -24v-19h-100v40q0 48 22.5 70t69.5 22h196q47 0 69.5 -22t22.5 -70v-55q0 -46 -21.5 -67.5t-70.5 -28.5l-161 -22q-17 -2 -24 -9.5t-7 -23.5v-34h277v-88z" />
    <glyph glyph-name="three.numr" horiz-adv-x="476" 
d="M386 497q47 -15 47 -79v-46q0 -48 -22 -70t-69 -22h-207q-47 0 -69.5 22t-22.5 70v55h100v-32q0 -18 7 -24.5t24 -6.5h124q18 0 24.5 6.5t6.5 24.5v32q0 17 -6.5 24t-24.5 7h-91v75h85q18 0 24.5 7t6.5 25v20q0 18 -6.5 24.5t-24.5 6.5h-112q-17 0 -24 -6.5t-7 -24.5v-27
h-100v50q0 48 22.5 70t69.5 22h195q47 0 69 -22t22 -70v-34q0 -62 -41 -77z" />
    <glyph glyph-name="four.numr" horiz-adv-x="500" 
d="M466 446v-80h-84v-86h-100v86h-249v67l233 267h116v-254h84zM147 446h135v155z" />
    <glyph glyph-name="five.numr" horiz-adv-x="463" 
d="M48 280v88h232q18 0 25 7t7 24v29q0 18 -7 25t-25 7h-232v240h349v-88h-245v-69h172q47 0 69 -22t22 -70v-79q0 -48 -22 -70t-69 -22h-276z" />
    <glyph glyph-name="six.numr" horiz-adv-x="482" 
d="M343 543q47 0 69.5 -22t22.5 -69v-80q0 -48 -22.5 -70t-69.5 -22h-204q-47 0 -69.5 22t-22.5 70v210q0 61 29 89.5t89 28.5h252v-88h-220q-25 0 -35.5 -10t-10.5 -36v-43q17 20 61 20h131zM331 397v35q0 18 -7 25t-24 7h-118q-17 0 -24 -7t-7 -25v-35q0 -17 7 -24t24 -7
h118q17 0 24 7t7 24z" />
    <glyph glyph-name="seven.numr" horiz-adv-x="458" 
d="M33 700h391v-80l-147 -164q-16 -18 -21 -34.5t-5 -44.5v-97h-107v90q0 51 9 78.5t37 58.5l93 100h-250v93z" />
    <glyph glyph-name="eight.numr" horiz-adv-x="482" 
d="M389 497q47 -15 47 -79v-46q0 -48 -22 -70t-69 -22h-207q-47 0 -69.5 22t-22.5 70v46q0 64 48 79q-42 15 -42 77v34q0 48 22.5 70t69.5 22h195q47 0 69 -22t22 -70v-34q0 -62 -41 -77zM156 587v-25q0 -17 7 -24t24 -7h108q18 0 24.5 7t6.5 24v25q0 17 -6.5 24t-24.5 7
h-108q-17 0 -24 -7t-7 -24zM332 393v36q0 17 -6.5 24t-24.5 7h-120q-17 0 -24 -7t-7 -24v-36q0 -17 7 -24t24 -7h120q18 0 24.5 7t6.5 24z" />
    <glyph glyph-name="nine.numr" horiz-adv-x="482" 
d="M343 700q47 0 69.5 -22t22.5 -70v-210q0 -61 -29 -89.5t-89 -28.5h-252v88h220q25 0 35.5 10t10.5 36v40q-17 -20 -61 -20h-131q-47 0 -69.5 22t-22.5 69v83q0 48 22.5 70t69.5 22h204zM300 513q17 0 24 7t7 25v38q0 17 -7 24t-24 7h-118q-17 0 -24 -7t-7 -24v-38
q0 -18 7 -25t24 -7h118z" />
    <glyph glyph-name="zero.sups" horiz-adv-x="482" 
d="M165 380q-60 0 -89 28.5t-29 89.5v184q0 61 29 89.5t89 28.5h152q60 0 89 -28.5t29 -89.5v-184q0 -61 -29 -89.5t-89 -28.5h-152zM197 470h88q25 0 35.5 10t10.5 35v150q0 25 -10.5 35t-35.5 10h-88q-25 0 -35.5 -10t-10.5 -35v-150q0 -25 10.5 -35t35.5 -10z" />
    <glyph glyph-name="one.sups" horiz-adv-x="446" 
d="M286 465h126v-85h-379v85h148v241l-130 -13v89l186 18h49v-335z" />
    <glyph glyph-name="two.sups" horiz-adv-x="482" 
d="M428 380h-381v135q0 45 22 67t70 29l161 22q18 2 24.5 9t6.5 24v21q0 17 -7 24t-24 7h-113q-18 0 -25 -7t-7 -24v-19h-100v40q0 48 22.5 70t69.5 22h196q47 0 69.5 -22t22.5 -70v-55q0 -46 -21.5 -67.5t-70.5 -28.5l-161 -22q-17 -2 -24 -9.5t-7 -23.5v-34h277v-88z" />
    <glyph glyph-name="three.sups" horiz-adv-x="476" 
d="M386 597q47 -15 47 -79v-46q0 -48 -22 -70t-69 -22h-207q-47 0 -69.5 22t-22.5 70v55h100v-32q0 -18 7 -24.5t24 -6.5h124q18 0 24.5 6.5t6.5 24.5v32q0 17 -6.5 24t-24.5 7h-91v75h85q18 0 24.5 7t6.5 25v20q0 18 -6.5 24.5t-24.5 6.5h-112q-17 0 -24 -6.5t-7 -24.5v-27
h-100v50q0 48 22.5 70t69.5 22h195q47 0 69 -22t22 -70v-34q0 -62 -41 -77z" />
    <glyph glyph-name="four.sups" horiz-adv-x="500" 
d="M466 546v-80h-84v-86h-100v86h-249v67l233 267h116v-254h84zM147 546h135v155z" />
    <glyph glyph-name="five.sups" horiz-adv-x="463" 
d="M48 380v88h232q18 0 25 7t7 24v29q0 18 -7 25t-25 7h-232v240h349v-88h-245v-69h172q47 0 69 -22t22 -70v-79q0 -48 -22 -70t-69 -22h-276z" />
    <glyph glyph-name="six.sups" horiz-adv-x="482" 
d="M343 643q47 0 69.5 -22t22.5 -69v-80q0 -48 -22.5 -70t-69.5 -22h-204q-47 0 -69.5 22t-22.5 70v210q0 61 29 89.5t89 28.5h252v-88h-220q-25 0 -35.5 -10t-10.5 -36v-43q17 20 61 20h131zM331 497v35q0 18 -7 25t-24 7h-118q-17 0 -24 -7t-7 -25v-35q0 -17 7 -24t24 -7
h118q17 0 24 7t7 24z" />
    <glyph glyph-name="seven.sups" horiz-adv-x="458" 
d="M33 800h391v-80l-147 -164q-16 -18 -21 -34.5t-5 -44.5v-97h-107v90q0 51 9 78.5t37 58.5l93 100h-250v93z" />
    <glyph glyph-name="eight.sups" horiz-adv-x="482" 
d="M389 597q47 -15 47 -79v-46q0 -48 -22 -70t-69 -22h-207q-47 0 -69.5 22t-22.5 70v46q0 64 48 79q-42 15 -42 77v34q0 48 22.5 70t69.5 22h195q47 0 69 -22t22 -70v-34q0 -62 -41 -77zM156 687v-25q0 -17 7 -24t24 -7h108q18 0 24.5 7t6.5 24v25q0 17 -6.5 24t-24.5 7
h-108q-17 0 -24 -7t-7 -24zM332 493v36q0 17 -6.5 24t-24.5 7h-120q-17 0 -24 -7t-7 -24v-36q0 -17 7 -24t24 -7h120q18 0 24.5 7t6.5 24z" />
    <glyph glyph-name="nine.sups" horiz-adv-x="482" 
d="M343 800q47 0 69.5 -22t22.5 -70v-210q0 -61 -29 -89.5t-89 -28.5h-252v88h220q25 0 35.5 10t10.5 36v40q-17 -20 -61 -20h-131q-47 0 -69.5 22t-22.5 69v83q0 48 22.5 70t69.5 22h204zM300 613q17 0 24 7t7 25v38q0 17 -7 24t-24 7h-118q-17 0 -24 -7t-7 -24v-38
q0 -18 7 -25t24 -7h118z" />
    <glyph glyph-name="numbersign.numr" horiz-adv-x="482" 
d="M442 536h-72l-14 -92h61v-65h-71l-16 -99h-77l16 99h-92l-16 -99h-77l16 99h-61v65h71l14 92h-60v65h70l16 99h77l-16 -99h92l16 99h77l-16 -99h62v-65zM279 444l14 92h-92l-14 -92h92z" />
    <glyph glyph-name="numbersign.tf" 
d="M704 437h-129l-28 -174h115v-80h-127l-29 -183h-95l29 183h-180l-29 -183h-95l29 183h-117v80h129l28 174h-115v80h127l29 183h95l-29 -183h180l29 183h95l-29 -183h117v-80zM452 263l28 174h-180l-28 -174h180z" />
    <glyph glyph-name="cent.numr" horiz-adv-x="482" 
d="M435 560h-100v18q0 22 -8 30t-30 8h-108q-22 0 -30 -8t-8 -30v-98q0 -22 8 -30t30 -8h108q22 0 30 8t8 30v22h100v-38q0 -56 -25 -81t-81 -25h-54v-60h-67v60h-55q-56 0 -81 25t-25 81v130q0 56 25 81t81 25h55v60h67v-60h54q56 0 81 -25t25 -81v-34z" />
    <glyph glyph-name="dollar.numr" horiz-adv-x="482" 
d="M345 529q49 -5 70.5 -25t21.5 -66v-66q0 -48 -22.5 -70t-69.5 -22h-71v-60h-67v60h-71q-47 0 -69.5 22t-22.5 70v39h100v-18q0 -18 7 -25t24 -7h127q17 0 24 7t7 25v21q0 17 -6.5 22.5t-24.5 7.5l-160 17q-49 5 -70.5 25t-21.5 66v56q0 48 22.5 70t69.5 22h65v60h67v-60
h63q47 0 69 -22t22 -70v-33h-99v12q0 18 -7 25t-25 7h-112q-17 0 -24 -7t-7 -25v-13q0 -17 6.5 -22t24.5 -7z" />
    <glyph glyph-name="Euro.numr" horiz-adv-x="494" 
d="M447 531h-100v41q0 26 -10.5 36t-35.5 10h-86q-25 0 -35.5 -10t-10.5 -36v-18h124v-44h-124v-40h124v-44h-124v-18q0 -26 10.5 -36t35.5 -10h86q25 0 35.5 10t10.5 36v45h100v-55q0 -61 -29 -89.5t-89 -28.5h-146q-60 0 -89 28.5t-29 89.5v28h-48v44h48v40h-48v44h48v28
q0 61 29 89.5t89 28.5h146q60 0 89 -28.5t29 -89.5v-51z" />
    <glyph glyph-name="florin.numr" horiz-adv-x="434" 
d="M329 610q-26 0 -36.5 -10t-12.5 -35l-8 -78h108v-66h-115l-12 -119q-6 -62 -34 -90t-87 -28h-95v90h64q25 0 35 10t13 36l11 101h-111v66h118l10 95q7 62 34 90t86 28h95v-90h-63z" />
    <glyph glyph-name="sterling.numr" horiz-adv-x="494" 
d="M447 541h-100v31q0 26 -10.5 36t-35.5 10h-81q-25 0 -35 -10.5t-10 -35.5v-48h118v-58h-118v-100h141q17 0 23.5 7t6.5 24v40h101v-65q0 -48 -22.5 -70t-69.5 -22h-332v86h48v100h-54v58h54v58q0 61 29 89.5t89 28.5h140q60 0 89 -28.5t29 -89.5v-41z" />
    <glyph glyph-name="yen.numr" horiz-adv-x="482" 
d="M292 425v-43h144v-49h-144v-53h-104v53h-143v49h143v43h-143v49h119l-137 226h119l97 -175l97 175h114l-138 -226h119v-49h-143z" />
    <glyph glyph-name="cent.tf" 
d="M686 479h-120v36q0 49 -18 67t-67 18h-206q-49 0 -67 -18t-18 -67v-200q0 -49 18 -67t67 -18h206q49 0 67 18t18 67v43h120v-62q0 -89 -39 -127.5t-127 -38.5h-100v-100h-84v100h-104q-88 0 -127 38.5t-39 127.5v238q0 89 39 127.5t127 38.5h104v100h84v-100h100
q88 0 127 -38.5t39 -127.5v-55z" />
    <glyph glyph-name="dollar.tf" 
d="M548 397q75 -8 108.5 -39t33.5 -103v-113q0 -73 -35 -107.5t-107 -34.5h-130v-100h-85v100h-129q-72 0 -107 34.5t-35 107.5v63h120v-37q0 -38 15 -53t53 -15h248q38 0 53 15t15 53v59q0 37 -14.5 50.5t-53.5 17.5l-284 31q-75 9 -108.5 40t-33.5 102v90q0 73 35 107.5
t107 34.5h119v100h85v-100h116q72 0 107 -34.5t35 -107.5v-49h-120v23q0 38 -15 53t-53 15h-224q-38 0 -53 -15t-15 -53v-36q0 -36 15 -50t53 -18z" />
    <glyph glyph-name="Euro.tf" 
d="M686 440h-120v62q0 55 -22.5 77.5t-77.5 22.5h-156q-55 0 -77.5 -22.5t-22.5 -77.5v-50h244v-59h-244v-86h244v-59h-244v-50q0 -55 22.5 -77.5t77.5 -22.5h156q55 0 77.5 22.5t22.5 77.5v71h120v-83q0 -96 -45 -141t-141 -45h-228q-96 0 -141 45t-45 141v62h-80v59h80v86
h-80v59h80v62q0 96 45 141t141 45h228q96 0 141 -45t45 -141v-74z" />
    <glyph glyph-name="florin.tf" 
d="M569 594q-54 0 -76.5 -22t-29.5 -78l-17 -161h218v-86h-227l-24 -221q-11 -98 -54.5 -142t-137.5 -44h-153v106h115q54 0 76.5 22t29.5 78l21 201h-222v86h232l19 181q11 98 54.5 142t137.5 44h153v-106h-115z" />
    <glyph glyph-name="sterling.tf" 
d="M686 454h-120v48q0 55 -22.5 77.5t-77.5 22.5h-150q-52 0 -74 -22.5t-22 -77.5v-109h234v-74h-234v-217h278q38 0 53 15t15 53v68h120v-96q0 -74 -34.5 -108t-107.5 -34h-528v102h80v217h-90v74h90v121q0 96 45 141t141 45h218q96 0 141 -45t45 -141v-60z" />
    <glyph glyph-name="yen.tf" 
d="M724 700l-254 -389h224v-64h-256v-90h256v-64h-256v-93h-124v93h-256v64h256v90h-256v64h224l-254 389h142l209 -337l210 337h135z" />
    <glyph glyph-name="percent.numr" horiz-adv-x="547" 
d="M100 504q-63 0 -63 63v70q0 63 63 63h80q63 0 63 -63v-70q0 -63 -63 -63h-80zM86 280l316 420h58l-317 -420h-57zM117 556h47q21 0 21 21v49q0 13 -4.5 17t-16.5 4h-47q-12 0 -16.5 -4t-4.5 -17v-49q0 -21 21 -21zM366 280q-63 0 -63 63v70q0 63 63 63h81q62 0 62 -63
v-70q0 -63 -62 -63h-81zM383 333h47q12 0 16.5 4.5t4.5 16.5v49q0 12 -4.5 16.5t-16.5 4.5h-47q-12 0 -16.5 -4.5t-4.5 -16.5v-49q0 -12 4.5 -16.5t16.5 -4.5z" />
    <glyph glyph-name="perthousand.numr" horiz-adv-x="781" 
d="M100 504q-63 0 -63 63v70q0 63 63 63h80q63 0 63 -63v-70q0 -63 -63 -63h-80zM86 280l316 420h58l-317 -420h-57zM117 556h47q21 0 21 21v49q0 13 -4.5 17t-16.5 4h-47q-12 0 -16.5 -4t-4.5 -17v-49q0 -21 21 -21zM366 280q-63 0 -63 63v70q0 63 63 63h81q62 0 62 -63
v-70q0 -63 -62 -63h-81zM600 280q-63 0 -63 63v70q0 63 63 63h81q62 0 62 -63v-70q0 -63 -62 -63h-81zM383 333h47q12 0 16.5 4.5t4.5 16.5v49q0 12 -4.5 16.5t-16.5 4.5h-47q-12 0 -16.5 -4.5t-4.5 -16.5v-49q0 -12 4.5 -16.5t16.5 -4.5zM617 333h47q12 0 16.5 4.5
t4.5 16.5v49q0 12 -4.5 16.5t-16.5 4.5h-47q-12 0 -16.5 -4.5t-4.5 -16.5v-49q0 -12 4.5 -16.5t16.5 -4.5z" />
    <glyph glyph-name="percent.tf" horiz-adv-x="860" 
d="M146 376q-104 0 -104 104v116q0 54 25.5 79t78.5 25h130q53 0 78.5 -25t25.5 -79v-116q0 -104 -104 -104h-130zM120 0l544 700h76l-544 -700h-76zM167 442h88q28 0 40 12t12 40v88q0 28 -11.5 40t-40.5 12h-88q-29 0 -40.5 -12t-11.5 -40v-88q0 -28 12 -40t40 -12zM584 0
q-104 0 -104 104v116q0 54 25.5 79t78.5 25h130q53 0 78.5 -25t25.5 -79v-116q0 -104 -104 -104h-130zM605 66h88q28 0 40 12t12 40v88q0 28 -11.5 40t-40.5 12h-88q-29 0 -40.5 -12t-11.5 -40v-88q0 -28 12 -40t40 -12z" />
    <glyph glyph-name="perthousand.tf" horiz-adv-x="1250" 
d="M146 376q-104 0 -104 104v116q0 54 25.5 79t78.5 25h130q53 0 78.5 -25t25.5 -79v-116q0 -104 -104 -104h-130zM120 0l543 700h77l-543 -700h-77zM167 442h88q28 0 40 12t12 40v88q0 28 -11.5 40t-40.5 12h-88q-29 0 -40.5 -12t-11.5 -40v-88q0 -28 12 -40t40 -12zM584 0
q-104 0 -104 104v116q0 54 25.5 79t78.5 25h130q53 0 78.5 -25t25.5 -79v-116q0 -104 -104 -104h-130zM974 0q-104 0 -104 104v116q0 54 25.5 79t78.5 25h130q53 0 78.5 -25t25.5 -79v-116q0 -104 -104 -104h-130zM605 66h88q28 0 40 12t12 40v88q0 28 -11.5 40t-40.5 12
h-88q-29 0 -40.5 -12t-11.5 -40v-88q0 -28 12 -40t40 -12zM995 66h88q28 0 40 12t12 40v88q0 28 -11.5 40t-40.5 12h-88q-29 0 -40.5 -12t-11.5 -40v-88q0 -28 12 -40t40 -12z" />
    <glyph glyph-name="brevecombcy" horiz-adv-x="0" 
d="M-361 576q-73 0 -73 73v51h86v-36q0 -30 30 -30h138q30 0 30 30v36h86v-51q0 -73 -73 -73h-224z" />
    <glyph glyph-name="ringacutecomb" horiz-adv-x="386" 
d="M280 628q28 0 41 -13t13 -41v-26q0 -28 -13 -41t-41 -13h-174q-28 0 -41 13t-13 41v26q0 28 13 41t41 13h53l53 72h131l-71 -72h8zM281 554v14q0 12 -4 16.5t-16 4.5h-136q-12 0 -16 -4.5t-4 -16.5v-14q0 -12 4 -16.5t16 -4.5h136q12 0 16 4.5t4 16.5z" />
    </font>
</defs>
</svg>
