<svg width="27" height="36" viewBox="0 0 27 36" fill="none" xmlns="http://www.w3.org/2000/svg">
<path d="M13.8982 28.7604C13.8982 29.1648 13.5703 29.4927 13.1659 29.4927C12.7614 29.4927 12.4336 29.1648 12.4336 28.7604C12.4336 28.3559 12.7614 28.0281 13.1659 28.0281C13.5703 28.0281 13.8982 28.3559 13.8982 28.7604Z" fill="#2E2E2E"/>
<path d="M13.8982 31.6826C13.8982 32.0871 13.5703 32.4149 13.1659 32.4149C12.7614 32.4149 12.4336 32.0871 12.4336 31.6826C12.4336 31.2782 12.7614 30.9503 13.1659 30.9503C13.5703 30.9503 13.8982 31.2782 13.8982 31.6826Z" fill="#2E2E2E"/>
<path d="M13.1693 20.7123C9.53738 20.7123 6.58594 17.7609 6.58594 14.129V9.74255C6.58594 9.33572 6.91141 9.01025 7.31824 9.01025H19.0277C19.4345 9.01025 19.76 9.33572 19.76 9.74255V14.129C19.7526 17.7535 16.8012 20.7123 13.1692 20.7123H13.1693ZM8.05053 10.4677V14.1293C8.05053 16.955 10.351 19.2481 13.1693 19.2481C15.995 19.2481 18.2881 16.9476 18.2881 14.1293V10.4677H8.05053Z" fill="#2E2E2E"/>
<path d="M19.7517 15.5868H19.0194C18.6126 15.5868 18.2871 15.2613 18.2871 14.8545V11.9253C18.2871 11.5185 18.6126 11.193 19.0194 11.193H19.7517C20.9649 11.193 21.9486 12.1768 21.9486 13.3899C21.9486 14.603 20.9648 15.5868 19.7517 15.5868ZM19.7517 12.665V14.1296C20.1585 14.1296 20.484 13.8041 20.484 13.3973C20.484 12.9904 20.1585 12.665 19.7517 12.665Z" fill="#2E2E2E"/>
<path d="M7.31591 15.5866H6.58361C5.37047 15.5866 4.38672 14.6028 4.38672 13.3897C4.38672 12.1766 5.37053 11.2002 6.58361 11.2002H7.31591C7.72275 11.2002 8.04821 11.5257 8.04821 11.9325V14.8617C8.04821 15.2611 7.71534 15.5866 7.31591 15.5866ZM6.58361 12.6648C6.17678 12.6648 5.85132 12.9903 5.85132 13.3971C5.85132 13.8039 6.17678 14.1294 6.58361 14.1294V12.6648Z" fill="#2E2E2E"/>
<path d="M13.9 17.0509H12.4354C12.0286 17.0509 11.7031 16.7254 11.7031 16.3186C11.7031 15.9118 12.0286 15.5863 12.4354 15.5863H13.9C14.3069 15.5863 14.6323 15.9118 14.6323 16.3186C14.6323 16.7254 14.3068 17.0509 13.9 17.0509Z" fill="#2E2E2E"/>
<path d="M1.60121 29.4928C1.55683 29.4928 1.51245 29.4854 1.46807 29.478C1.06863 29.4041 0.809727 29.0268 0.8837 28.6274C1.60119 24.7069 4.87069 21.8001 8.78357 21.4742V18.6929C8.78357 18.286 9.10903 17.9606 9.51586 17.9606C9.92269 17.9606 10.2482 18.286 10.2482 18.6929V22.1769C10.2482 22.5837 9.92269 22.9092 9.51586 22.9092C5.9801 22.9092 2.95467 25.4242 2.31867 28.8934C2.2521 29.241 1.94143 29.4925 1.60119 29.4925L1.60121 29.4928Z" fill="#2E2E2E"/>
<path d="M24.7388 29.4928C24.3911 29.4928 24.0878 29.2487 24.0213 28.8936C23.3851 25.4244 20.3597 22.9094 16.8241 22.9094C16.4173 22.9094 16.0918 22.584 16.0918 22.1771V18.6931C16.0918 18.2863 16.4173 17.9608 16.8241 17.9608C17.2309 17.9608 17.5564 18.2863 17.5564 18.6931V21.4744C21.4768 21.7999 24.7387 24.7069 25.4563 28.6276C25.5302 29.0271 25.2639 29.4043 24.8719 29.4783C24.8275 29.4857 24.7831 29.4931 24.7387 29.4931L24.7388 29.4928Z" fill="#2E2E2E"/>
<path d="M24.8778 35.3441H1.45886C1.05203 35.3441 0.726562 35.0186 0.726562 34.6118V31.6826C0.726562 31.2758 1.05203 30.9503 1.45886 30.9503C1.86569 30.9503 2.19116 31.2758 2.19116 31.6826V33.8795H24.1385V31.6826C24.1385 31.2758 24.4639 30.9503 24.8708 30.9503C25.2776 30.9503 25.6031 31.2758 25.6031 31.6826V34.6118C25.6031 35.0186 25.2776 35.3441 24.8781 35.3441H24.8778Z" fill="#2E2E2E"/>
<path d="M5.85339 35.3441C5.44656 35.3441 5.12109 35.0186 5.12109 34.6118V28.0284C5.12109 27.6216 5.44656 27.2961 5.85339 27.2961C6.26022 27.2961 6.58569 27.6216 6.58569 28.0284V34.6118C6.58569 35.0187 6.26022 35.3441 5.85339 35.3441Z" fill="#2E2E2E"/>
<path d="M20.4843 35.3441C20.0774 35.3441 19.752 35.0186 19.752 34.6118V28.0284C19.752 27.6216 20.0774 27.2961 20.4843 27.2961C20.8911 27.2961 21.2165 27.6216 21.2165 28.0284V34.6118C21.2165 35.0187 20.8911 35.3441 20.4843 35.3441Z" fill="#2E2E2E"/>
<path d="M5.85304 32.4144H0.734252C0.327416 32.4144 0.00195312 32.0889 0.00195312 31.6821V28.7529C0.00195312 28.3461 0.327423 28.0206 0.734252 28.0206H5.85304C6.25987 28.0206 6.58533 28.3461 6.58533 28.7529V31.6821C6.58533 32.089 6.25986 32.4144 5.85304 32.4144ZM1.45918 30.9498H5.12074V29.4852H1.45918V30.9498Z" fill="#2E2E2E"/>
<path d="M25.603 32.4144H20.4843C20.0774 32.4144 19.752 32.0889 19.752 31.6821V28.7529C19.752 28.3461 20.0774 28.0206 20.4843 28.0206H25.603C26.0099 28.0206 26.3353 28.3461 26.3353 28.7529V31.6821C26.3353 32.089 26.0099 32.4144 25.603 32.4144ZM21.2166 30.9498H24.8782V29.4852H21.2166V30.9498Z" fill="#2E2E2E"/>
<path d="M16.0951 28.0278C15.9398 28.0278 15.7844 27.9761 15.6587 27.8799L12.7295 25.683C12.5519 25.5498 12.441 25.3353 12.4336 25.106C12.4336 24.8767 12.5298 24.6622 12.7073 24.5217L16.3688 21.5925C16.6869 21.341 17.1455 21.3928 17.397 21.7034C17.6485 22.0215 17.5967 22.4801 17.2861 22.7316L14.3642 25.069L15.9398 26.2526L18.869 22.1768C19.1057 21.8513 19.5643 21.7699 19.8898 22.0066C20.2153 22.2433 20.2967 22.7019 20.06 23.0275L16.7017 27.7098C16.5908 27.8725 16.4132 27.976 16.2209 28.0056C16.1691 28.0204 16.1321 28.0278 16.0952 28.0278L16.0951 28.0278Z" fill="#2E2E2E"/>
<path d="M10.2387 28.028C10.2017 28.028 10.1647 28.028 10.1277 28.0206C9.93538 27.991 9.75785 27.8874 9.6469 27.7247L6.28866 23.0424C6.05195 22.7169 6.12593 22.2583 6.45879 22.0216C6.78426 21.7849 7.24289 21.8589 7.4796 22.1917L10.4088 26.2675L11.9844 25.084L9.06254 22.7466C8.74447 22.4951 8.69269 22.0365 8.95159 21.7184C9.21049 21.4003 9.66171 21.3485 9.97977 21.6074L13.6413 24.5366C13.8189 24.6772 13.9224 24.8917 13.915 25.121C13.915 25.3503 13.8041 25.5574 13.6191 25.698L10.6899 27.8949C10.5494 27.9762 10.4015 28.028 10.2387 28.028L10.2387 28.028Z" fill="#2E2E2E"/>
<path d="M21.215 10.4678H5.11902C4.71218 10.4678 4.38672 10.1423 4.38672 9.73547C4.38672 9.32864 4.71219 9.00317 5.11902 9.00317H21.215C21.6218 9.00317 21.9473 9.32864 21.9473 9.73547C21.9473 10.1423 21.6218 10.4678 21.215 10.4678Z" fill="#2E2E2E"/>
<path d="M19.7508 10.4677H6.58386C6.17702 10.4677 5.85156 10.1422 5.85156 9.7354C5.85156 8.06365 6.42853 6.43634 7.47888 5.14183C8.50706 3.86958 9.95691 2.96712 11.5472 2.60462C11.9393 2.51586 12.3313 2.75996 12.4201 3.1594C12.5088 3.55144 12.2647 3.9435 11.8653 4.03223C9.42425 4.58701 7.6564 6.57681 7.36052 9.01041H18.9814C18.6855 6.58419 16.9102 4.587 14.4766 4.03223C14.0846 3.94347 13.8331 3.55142 13.9218 3.1594C14.0106 2.76738 14.4027 2.51586 14.7947 2.60462C16.3851 2.96708 17.8275 3.86951 18.863 5.14183C19.9134 6.43634 20.4903 8.07103 20.4903 9.7354C20.4829 10.1422 20.1575 10.4677 19.7506 10.4677H19.7508Z" fill="#2E2E2E"/>
<path d="M13.1696 6.07379C11.9564 6.07379 10.9727 5.08998 10.9727 3.8769V2.41967C10.9727 1.20653 11.9565 0.222778 13.1696 0.222778C14.3826 0.222778 15.3664 1.20659 15.3664 2.41967V3.88427C15.3664 5.08998 14.3826 6.07379 13.1696 6.07379ZM13.1696 1.68737C12.7627 1.68737 12.4373 2.01284 12.4373 2.41967V3.88427C12.4373 4.2911 12.7627 4.61657 13.1696 4.61657C13.5764 4.61657 13.9018 4.2911 13.9018 3.88427V2.41967C13.9018 2.01284 13.5764 1.68737 13.1696 1.68737Z" fill="#2E2E2E"/>
</svg>
