<svg width="35" height="34" viewBox="0 0 35 34" fill="none" xmlns="http://www.w3.org/2000/svg">
<path d="M6.22804 22.8144C4.30719 22.8144 2.53227 23.8391 1.57197 25.5024C0.611426 27.1658 0.611426 29.2154 1.57197 30.8788C2.53227 32.5422 4.30719 33.5668 6.22804 33.5668H19.8106C21.7314 33.5668 23.5064 32.5422 24.4667 30.8788C25.4272 29.2154 25.4272 27.1659 24.4667 25.5024C23.5064 23.8391 21.7314 22.8144 19.8106 22.8144H18.9159V21.4789H20.9519C21.1358 21.4789 21.3124 21.4058 21.4423 21.2759C21.5725 21.1457 21.6455 20.9694 21.6455 20.7852V17.615V17.5733L29.8865 6.20014V16.9942C29.8865 17.1781 29.9598 17.3547 30.0897 17.4846C30.2199 17.6148 30.3963 17.6879 30.5804 17.6879C31.1533 17.6893 31.7062 17.8984 32.1369 18.2765C32.5675 18.6545 32.8465 19.1756 32.9225 19.7435C32.9982 20.3116 32.8656 20.8877 32.5492 21.3653C32.2327 21.8429 31.7539 22.1898 31.2015 22.3416C30.6489 22.4933 30.06 22.4396 29.5442 22.1904C29.0281 21.9412 28.6199 21.5136 28.3951 20.9866C28.2364 20.6494 27.8399 20.4977 27.4965 20.6431C27.1534 20.7885 26.9867 21.1792 27.1186 21.5276C27.6344 22.7424 28.7498 23.5975 30.0568 23.7799C31.3641 23.9626 32.6708 23.4458 33.4998 22.4187C34.3287 21.3916 34.5576 20.005 34.1032 18.766C33.6486 17.5269 32.5772 16.6172 31.2811 16.3697V4.28169C31.4694 4.00708 31.436 3.63716 31.2013 3.40074L28.7734 0.972798C28.5031 0.70617 28.0688 0.70617 27.7986 0.972798L16.1584 12.4123H7.16799C6.43197 12.4123 5.72624 12.7046 5.20577 13.225C4.68534 13.7454 4.39307 14.4512 4.39307 15.1872V20.7854C4.39307 20.9695 4.46614 21.1459 4.5963 21.2761C4.72623 21.406 4.90285 21.4791 5.08673 21.4791H7.12272V22.8144L6.22804 22.8144ZM23.7926 28.1838C23.7917 29.2394 23.3719 30.2517 22.6255 30.9983C21.8788 31.745 20.8665 32.1648 19.8107 32.1658H6.2281C4.80301 32.1658 3.48607 31.4053 2.77359 30.1711C2.0611 28.9369 2.06104 27.4165 2.77359 26.1824C3.48613 24.9483 4.80307 24.188 6.2281 24.188H19.8107C20.8689 24.189 21.8834 24.6107 22.6303 25.3603C23.3772 26.1099 23.7955 27.1255 23.7926 28.1838V28.1838ZM20.1888 16.914H16.5226C16.2724 16.9162 16.0406 16.7838 15.9155 16.5673L14.4068 13.7992H16.4393C17.3295 13.7994 18.1915 14.1111 18.8763 14.6799C19.561 15.2487 20.0253 16.0389 20.1888 16.914ZM17.9169 12.6269L20.9068 9.69256L21.6837 15.1488L21.278 15.7106H21.2778C20.6896 14.2216 19.4509 13.0849 17.9169 12.6269ZM26.3734 4.33702L26.8694 7.39983L22.9015 7.74679L26.3734 4.33702ZM22.8562 13.5325L22.239 9.19309L26.2693 8.84637L22.8562 13.5325ZM28.2882 2.45718L29.7969 3.96595L28.1009 6.30364L27.5874 3.14377L28.2882 2.45718ZM5.78022 15.1868C5.78022 14.8188 5.92636 14.4658 6.18669 14.2057C6.44678 13.9456 6.79979 13.7993 7.1678 13.7993H12.8285L14.698 17.2192V17.2195C14.8773 17.5468 15.141 17.82 15.4621 18.0104C15.7829 18.2008 16.1492 18.3015 16.5225 18.3017H20.2546V20.095L5.78013 20.0948L5.78022 15.1868ZM8.51011 21.4786H17.5284V22.8139H8.51011V21.4786Z" fill="#2E2E2E"/>
<path d="M13.0179 30.893C13.7367 30.894 14.4263 30.6092 14.9349 30.1016C15.4437 29.594 15.7299 28.9052 15.7304 28.1863C15.7311 27.4677 15.4461 26.7782 14.9383 26.2699C14.4304 25.7613 13.7414 25.4756 13.0228 25.4751C12.304 25.4749 11.6146 25.7601 11.1063 26.2682C10.5982 26.7763 10.3125 27.4654 10.3125 28.1842C10.3125 28.9021 10.5975 29.5904 11.1049 30.0985C11.612 30.6064 12.3001 30.8921 13.018 30.8931L13.0179 30.893ZM13.0179 26.866C13.369 26.865 13.7058 27.0037 13.9543 27.2514C14.203 27.4992 14.3428 27.8355 14.3431 28.1863C14.3433 28.5374 14.2042 28.874 13.9559 29.1219C13.7079 29.3702 13.3712 29.5093 13.0204 29.509C12.6695 29.5088 12.3332 29.3689 12.0855 29.1205C11.8377 28.8717 11.6991 28.5349 11.7 28.1841C11.701 27.8348 11.8401 27.5001 12.0871 27.2531C12.3339 27.0061 12.6688 26.867 13.0179 26.866Z" fill="#2E2E2E"/>
<path d="M19.498 30.8931C20.2166 30.8931 20.9054 30.6078 21.4135 30.0997C21.9216 29.5916 22.207 28.9025 22.207 28.1842C22.207 27.4656 21.9215 26.7765 21.4135 26.2687C20.9054 25.7606 20.2166 25.4751 19.498 25.4751C18.7796 25.4751 18.0905 25.7606 17.5824 26.2687C17.0743 26.7765 16.7891 27.4656 16.7891 28.1842C16.7891 28.9025 17.0743 29.5916 17.5824 30.0997C18.0905 30.6078 18.7796 30.8931 19.498 30.8931ZM19.498 26.8661C19.8488 26.8661 20.1851 27.0054 20.4329 27.2537C20.6806 27.5017 20.8197 27.838 20.8195 28.1888C20.8193 28.5394 20.6797 28.8757 20.4312 29.1232C20.1829 29.371 19.8464 29.5099 19.4958 29.5091C19.1449 29.5086 18.8089 29.3686 18.5614 29.1201C18.3141 28.8716 18.1755 28.5348 18.1764 28.1842C18.1774 27.8344 18.317 27.4991 18.5648 27.252C18.8125 27.0049 19.1481 26.8661 19.498 26.8661Z" fill="#2E2E2E"/>
<path d="M3.83209 28.1839C3.83137 28.9025 4.1159 29.592 4.62349 30.1008C5.13109 30.6094 5.82014 30.8956 6.53876 30.8964C7.25756 30.8968 7.94687 30.6118 8.45545 30.104C8.96378 29.5961 9.24976 28.9071 9.25 28.1885C9.25049 27.4698 8.96499 26.7806 8.45713 26.2722C7.94903 25.7639 7.25972 25.4784 6.54111 25.4784C5.82324 25.4784 5.13467 25.7632 4.62683 26.2705C4.11898 26.7779 3.83302 27.466 3.83203 28.1839H3.83209ZM6.54092 26.8658H6.54117C6.89175 26.8658 7.22807 27.0051 7.47607 27.2534C7.72383 27.5014 7.86295 27.8377 7.86271 28.1885C7.86246 28.5391 7.72262 28.8754 7.47438 29.1229C7.22614 29.3707 6.88959 29.5096 6.53879 29.5088C6.18821 29.5083 5.85214 29.3683 5.60463 29.1198C5.35712 28.8713 5.21872 28.5345 5.2197 28.1839C5.22066 27.8346 5.35978 27.5 5.60681 27.2529C5.8536 27.0059 6.18846 26.8668 6.53757 26.8658L6.54092 26.8658Z" fill="#2E2E2E"/>
</svg>
