<svg width="40" height="40" viewBox="0 0 40 40" fill="none" xmlns="http://www.w3.org/2000/svg">
<path d="M19.9968 15.9983C17.7933 15.9983 15.9951 17.7965 15.9951 20C15.9951 22.2035 17.7933 24.0017 19.9968 24.0017C22.2002 24.0017 23.9984 22.2035 23.9984 20C23.9984 17.7965 22.2002 15.9983 19.9968 15.9983ZM31.9987 20C31.9987 18.3429 32.0137 16.7008 31.9206 15.0467C31.8275 13.1254 31.3893 11.4202 29.9843 10.0153C28.5764 8.6073 26.8743 8.17201 24.953 8.07895C23.2959 7.98588 21.6539 8.00089 19.9998 8.00089C18.3427 8.00089 16.7006 7.98588 15.0465 8.07895C13.1253 8.17201 11.4201 8.6103 10.0152 10.0153C8.60729 11.4232 8.17201 13.1254 8.07894 15.0467C7.98588 16.7038 8.00089 18.3459 8.00089 20C8.00089 21.6541 7.98588 23.2992 8.07894 24.9533C8.17201 26.8746 8.61029 28.5798 10.0152 29.9847C11.4231 31.3927 13.1253 31.828 15.0465 31.9211C16.7036 32.0141 18.3457 31.9991 19.9998 31.9991C21.6569 31.9991 23.2989 32.0141 24.953 31.9211C26.8743 31.828 28.5794 31.3897 29.9843 29.9847C31.3923 28.5768 31.8275 26.8746 31.9206 24.9533C32.0167 23.2992 31.9987 21.6571 31.9987 20ZM19.9968 26.1572C16.5895 26.1572 13.8397 23.4073 13.8397 20C13.8397 16.5927 16.5895 13.8428 19.9968 13.8428C23.404 13.8428 26.1538 16.5927 26.1538 20C26.1538 23.4073 23.404 26.1572 19.9968 26.1572ZM26.406 15.0286C25.6105 15.0286 24.968 14.3862 24.968 13.5907C24.968 12.7951 25.6105 12.1527 26.406 12.1527C27.2015 12.1527 27.8439 12.7951 27.8439 13.5907C27.8442 13.7796 27.8071 13.9667 27.735 14.1412C27.6628 14.3158 27.5569 14.4744 27.4233 14.608C27.2897 14.7416 27.1311 14.8475 26.9565 14.9197C26.782 14.9918 26.5949 15.0289 26.406 15.0286Z" fill="#E2E2E2"/>
</svg>
