<svg width="50" height="50" viewBox="0 0 50 50" fill="none" xmlns="http://www.w3.org/2000/svg">
<path d="M42.9583 17.6048C40.7708 7.97982 32.375 3.64648 25 3.64648C25 3.64648 25 3.64648 24.9791 3.64648C17.625 3.64648 9.20829 7.95898 7.02079 17.584C4.58329 28.334 11.1666 37.4382 17.125 43.1673C19.3333 45.2923 22.9168 48.4382 25 48.4382C27.0831 48.4382 30.6666 45.2923 32.8541 43.1673C38.8125 37.4382 45.3958 28.3548 42.9583 17.6048ZM25 28.0423C21.375 28.0423 18.4375 25.1048 18.4375 21.4798C18.4375 17.8548 21.375 14.9173 25 14.9173C28.625 14.9173 31.5625 17.8548 31.5625 21.4798C31.5625 25.1048 28.625 28.0423 25 28.0423Z" fill="#2E2E2E"/>
</svg>
