<svg width="83" height="102" viewBox="0 0 83 102" fill="none" xmlns="http://www.w3.org/2000/svg">
<g opacity="0.2">
<path d="M31.321 8.14427C30.9494 8.12888 30.5869 8.26174 30.3133 8.51361C30.0397 8.76547 29.8773 9.11572 29.8619 9.48731C29.8465 9.8589 29.9793 10.2214 30.2312 10.495C30.4831 10.7686 30.8333 10.931 31.2049 10.9464C32.4955 10.9994 33.6498 11.9455 34.014 13.4051C34.3797 14.8653 33.7914 16.4018 32.6693 17.1608C30.5027 18.6204 29.5285 21.3489 30.1698 23.9205C30.8111 26.4916 32.9905 28.3996 35.5854 28.5025C35.957 28.5173 36.3193 28.3839 36.5925 28.1316C36.8657 27.8793 37.0276 27.5289 37.0424 27.1573C37.0498 26.9733 37.0208 26.7896 36.9571 26.6168C36.8934 26.4439 36.7963 26.2854 36.6714 26.1501C36.5464 26.0148 36.396 25.9054 36.2288 25.8282C36.0616 25.7511 35.8808 25.7076 35.6967 25.7003C34.4104 25.6473 33.255 24.7018 32.8909 23.2416C32.5252 21.7814 33.1135 20.2439 34.2366 19.4859C36.4022 18.0258 37.3769 15.2978 36.7356 12.7267C36.0943 10.1546 33.9127 8.25186 31.321 8.14427ZM47.3161 8.14427C46.9446 8.12888 46.5821 8.26174 46.3084 8.51361C46.0348 8.76547 45.8724 9.11572 45.857 9.48731C45.8416 9.8589 45.9745 10.2214 46.2264 10.495C46.4782 10.7686 46.8285 10.931 47.2001 10.9464C48.4906 10.9994 49.6455 11.9455 50.0097 13.4051C50.3754 14.8653 49.787 16.4018 48.6645 17.1608C46.4983 18.6204 45.5237 21.3489 46.165 23.9205C46.8063 26.4916 48.9857 28.3996 51.5811 28.5025C51.9526 28.5171 52.3147 28.3836 52.5878 28.1314C52.861 27.8792 53.0227 27.5288 53.0376 27.1573C53.0524 26.7857 52.919 26.4235 52.6667 26.1502C52.4145 25.877 52.064 25.7152 51.6924 25.7003C50.4056 25.6473 49.2507 24.7018 48.8866 23.2416C48.5209 21.7814 49.1092 20.2439 50.2323 19.4859C52.3973 18.0258 53.372 15.2978 52.7307 12.7267C52.0894 10.1546 49.9084 8.25186 47.3161 8.14427ZM63.3118 8.14427C62.9402 8.12888 62.5778 8.26174 62.3041 8.51361C62.0305 8.76547 61.8681 9.11572 61.8527 9.48731C61.8373 9.8589 61.9702 10.2214 62.2221 10.495C62.4739 10.7686 62.8242 10.931 63.1958 10.9464C64.4863 10.9994 65.6412 11.9455 66.0053 13.4051C66.371 14.8653 65.7827 16.4018 64.6602 17.1608C62.494 18.6204 61.5193 21.3489 62.1607 23.9205C62.802 26.4916 64.9814 28.3996 67.5763 28.5025C67.9479 28.5173 68.3101 28.3839 68.5834 28.1316C68.8566 27.8793 69.0184 27.5289 69.0333 27.1573C69.0406 26.9733 69.0116 26.7896 68.948 26.6168C68.8843 26.4439 68.7872 26.2854 68.6622 26.1501C68.5373 26.0148 68.3869 25.9054 68.2196 25.8282C68.0524 25.7511 67.8716 25.7076 67.6876 25.7003C66.4013 25.6473 65.2464 24.7018 64.8823 23.2416C64.5165 21.7814 65.1049 20.2439 66.2274 19.4859C68.393 18.0258 69.3677 15.2978 68.7264 12.7267C68.0851 10.1546 65.9041 8.25186 63.3118 8.14427ZM23.5818 34.7788C23.21 34.779 22.8536 34.9267 22.5907 35.1896C22.3278 35.4525 22.1801 35.8089 22.1799 36.1807V56.779C22.1799 60.5739 22.9505 64.1912 24.3434 67.474C24.1791 67.7232 24.0254 67.9776 23.8717 68.2399C22.2944 70.9774 21.6695 73.9508 21.9843 76.6278C22.1857 78.3414 22.7953 79.9579 23.8092 81.2479H11.735C11.5332 81.248 11.3338 81.2916 11.1504 81.3757C10.967 81.4599 10.8039 81.5826 10.6723 81.7356C10.5407 81.8886 10.4436 82.0681 10.3877 82.262C10.3318 82.4559 10.3185 82.6596 10.3485 82.8592C11.1668 88.2902 15.8574 92.4375 21.5084 92.4375H80.2615C85.913 92.4375 90.6036 88.2902 91.4214 82.8592C91.4515 82.6596 91.4381 82.4559 91.3822 82.262C91.3263 82.0681 91.2293 81.8886 91.0976 81.7356C90.966 81.5826 90.8029 81.4599 90.6195 81.3757C90.4361 81.2916 90.2367 81.248 90.0349 81.2479H61.5183C67.6129 78.2407 72.4137 73.0243 74.8835 66.6372C84.2292 66.2185 91.6673 58.5195 91.6673 49.0684V42.9532C91.6673 42.5812 91.5196 42.2245 91.2566 41.9615C90.9936 41.6985 90.6369 41.5508 90.2649 41.5508H76.7142V36.1807C76.714 35.8089 76.5662 35.4523 76.3032 35.1894C76.0402 34.9265 75.6836 34.7788 75.3118 34.7788H23.5818ZM76.7152 44.3556H88.8636V49.0684C88.8636 56.6942 83.2036 62.8969 75.8227 63.7481C75.9446 63.2764 76.0559 62.7983 76.1566 62.3171C76.1566 62.3171 76.1566 62.2641 76.1566 62.2376C76.2096 62.0362 76.2361 61.8294 76.2732 61.6265C76.2732 61.5735 76.2732 61.5682 76.2732 61.5417C76.3262 61.3827 76.3262 61.2183 76.3527 61.0593C76.3527 60.9851 76.3527 60.9056 76.4057 60.8314C76.4057 60.6777 76.4587 60.5187 76.4693 60.365C76.4693 60.259 76.4693 60.153 76.5223 60.0523C76.5223 59.9622 76.5223 59.8668 76.5753 59.7767C76.5753 59.6707 76.5753 59.5647 76.6283 59.4534C76.6283 59.305 76.6813 59.1566 76.6813 59.0082C76.6813 58.8916 76.6813 58.7697 76.6813 58.6531C76.6861 58.5842 76.6813 58.5206 76.6813 58.4517C76.6813 58.245 76.6813 58.033 76.7343 57.8268C76.7364 57.7685 76.7391 57.7102 76.7343 57.6519C76.738 57.53 76.7343 57.4081 76.7343 57.2862C76.7354 57.2226 76.7359 57.1537 76.737 57.0901C76.738 56.9894 76.7407 56.8834 76.7407 56.7827L76.7152 44.3556ZM24.9842 46.191H73.9094V56.7779C73.9094 57.1065 73.9094 57.4357 73.9094 57.7622C73.9078 57.8152 73.9067 57.8258 73.9057 57.8576C73.9057 58.0007 73.9057 58.1385 73.9057 58.2816C73.903 58.3346 73.9057 58.3717 73.9057 58.4194C73.9057 58.5572 73.9057 58.695 73.8527 58.8275C73.849 58.8805 73.8527 58.9176 73.8527 58.9653C73.7997 59.3893 73.7679 59.8112 73.7096 60.2288C73.7096 60.2977 73.7096 60.3613 73.6566 60.4249C73.6566 60.5309 73.6036 60.6316 73.6036 60.7376C73.6036 60.8224 73.5506 60.9019 73.5506 60.9867C73.5506 61.0874 73.4976 61.1828 73.4976 61.2782C73.4976 61.3683 73.4446 61.4584 73.4446 61.5485C73.4446 61.6386 73.3916 61.734 73.3863 61.8241C73.3863 61.9195 73.3333 62.0149 73.3227 62.1104C73.3227 62.1952 73.2697 62.28 73.2644 62.3701C73.2114 62.5026 73.2008 62.6298 73.169 62.7623C73.1159 62.8948 73.1 63.0273 73.0629 63.1598C73.0629 63.2393 73.0099 63.3188 72.9993 63.3983C72.9463 63.5043 72.9411 63.6156 72.9093 63.7216C72.9093 63.7852 72.8562 63.8435 72.8562 63.9071C72.8032 64.029 72.782 64.1456 72.7449 64.2675C72.7449 64.3205 72.7449 64.347 72.6919 64.3841C72.6389 64.5219 72.6018 64.6597 72.5541 64.7922C69.258 74.3944 60.1901 81.24 49.4282 81.2432C45.6085 81.2421 42.0092 80.3766 38.801 78.8327C39.1296 78.3822 39.437 77.9115 39.7232 77.4154C41.3 74.6774 41.9249 71.7046 41.6106 69.0275C41.2979 66.3499 39.9872 63.9097 37.6917 62.581C35.3962 61.2528 32.6333 61.3371 30.1629 62.4008C28.8093 62.9849 27.5203 63.8589 26.3718 64.9793C25.466 62.4178 24.9709 59.6585 24.9709 56.7726L24.9842 46.191ZM33.9567 64.3958C34.6924 64.4 35.3878 64.5548 36.0211 64.8675C34.261 66.0849 31.1789 68.7498 30.4269 72.8722C29.8545 76.012 27.1095 78.2645 25.7686 79.1968C25.2439 78.4119 24.901 77.434 24.768 76.3045C24.5347 74.3069 25.0065 71.8954 26.3002 69.6466C26.5069 69.2861 26.7295 68.939 26.9664 68.6104C27.049 68.5244 27.1202 68.4282 27.1784 68.3242C28.3667 66.7601 29.828 65.6164 31.2871 64.9872C32.2088 64.5897 33.1092 64.391 33.9567 64.3958ZM38.0924 66.881C38.474 67.5864 38.7305 68.4196 38.8408 69.3572C39.074 71.3548 38.6023 73.7668 37.3085 76.0151C36.8315 76.843 36.2803 77.5845 35.6819 78.2311C34.659 79.3304 33.4999 80.1524 32.3428 80.6517C31.5796 80.9803 30.8307 81.1711 30.1147 81.2257H29.3006C28.8925 81.1727 28.5003 81.1144 28.1256 80.9872C29.917 79.6404 32.5241 77.0985 33.2068 73.3524C33.8184 69.9995 36.9025 67.6627 38.1131 66.8603L38.0924 66.881ZM36.8755 81.0031C37.0345 81.0879 37.1988 81.1674 37.3578 81.2469H36.5988C36.6889 81.1674 36.7854 81.0826 36.8755 81.0031Z" fill="white"/>
</g>
</svg>
