<svg width="83" height="102" viewBox="0 0 83 102" fill="none" xmlns="http://www.w3.org/2000/svg">
<g opacity="0.2">
<path fill-rule="evenodd" clip-rule="evenodd" d="M92.4375 51C92.4375 73.7906 73.7906 92.4375 51 92.4375C28.2094 92.4375 9.5625 73.7906 9.5625 51C9.5625 28.2094 28.2094 9.5625 51 9.5625C73.7906 9.5625 92.4375 28.2094 92.4375 51ZM71.8775 41.792C73.4349 40.2374 73.4371 37.7146 71.8825 36.1573C70.3279 34.5999 67.8051 34.5977 66.2477 36.1523L44.9676 57.3949L35.755 48.1823C34.199 46.6263 31.6762 46.6263 30.1202 48.1823C28.5642 49.7383 28.5642 52.2611 30.1202 53.817L42.1477 65.8445C43.7028 67.3996 46.2236 67.4007 47.78 65.847L71.8775 41.792Z" fill="#414141"/>
</g>
</svg>
