<svg width="83" height="102" viewBox="0 0 83 102" fill="none" xmlns="http://www.w3.org/2000/svg">
<g opacity="0.2">
<path d="M67.8312 88.8712C65.3162 89.9917 62.6734 90.868 59.935 91.4703L59.8762 91.4818C57.0135 92.106 54.0425 92.4376 51 92.4376C28.114 92.4376 9.5625 73.8861 9.5625 51.0001C9.5625 39.5582 14.201 29.1965 21.6987 21.6987C29.1965 14.201 39.5582 9.5625 51 9.5625C62.4419 9.5625 72.8036 14.201 80.3014 21.6987C87.7991 29.1965 92.4376 39.5582 92.4376 51.0001C92.4376 54.062 92.1025 57.0515 91.4703 59.9281C90.868 62.6722 89.9917 65.315 88.8712 67.8312C88.5304 67.4074 88.1676 67.0021 87.783 66.6174C87.4237 66.2582 87.046 65.9173 86.651 65.5949C87.4755 63.5808 88.1365 61.4792 88.6144 59.3051C89.2017 56.6369 89.5126 53.8548 89.5126 51.0001C89.5126 40.3654 85.2024 30.7361 78.2332 23.7669C71.264 16.7977 61.6347 12.4874 51 12.4874C40.3654 12.4874 30.7361 16.7977 23.7669 23.7669C16.7977 30.7361 12.4874 40.3654 12.4874 51.0001C12.4874 59.4594 15.2143 67.2807 19.8378 73.635C20.4551 69.7992 22.2872 66.356 24.9242 63.719L25.0106 63.6395C28.2856 60.406 32.7767 58.4034 37.7088 58.4034H40.3793C40.6671 58.4034 40.9343 58.4863 41.1612 58.6302C42.6421 59.4386 44.2254 60.072 45.8722 60.4946C47.4947 60.9115 49.214 61.1337 51.0012 61.1337C52.7884 61.1337 54.5077 60.9115 56.1302 60.4946C57.8069 60.0639 59.4168 59.4156 60.9195 58.5865C61.1429 58.4644 61.3836 58.4069 61.622 58.4069L64.2913 58.4034C66.4044 58.4034 68.4484 58.7765 70.3565 59.4605C72.2347 60.1342 73.9736 61.1096 75.5097 62.329C72.0528 62.7183 68.9516 64.2855 66.6186 66.6186C63.9113 69.3259 62.2346 73.0684 62.2346 77.2002C62.2346 81.332 63.9101 85.0757 66.6174 87.783C67.002 88.1676 67.4074 88.5304 67.8312 88.8712ZM85.7148 68.6856C83.5372 66.508 80.5248 65.1596 77.2002 65.1596C73.8757 65.1596 70.8644 66.5092 68.6868 68.6868C66.5092 70.8644 65.1596 73.8757 65.1596 77.2002C65.1596 80.5248 66.508 83.5372 68.6856 85.7148C70.8632 87.8924 73.8757 89.242 77.2002 89.242C80.5294 89.242 83.5407 87.8959 85.7148 85.7206C87.8959 83.5407 89.242 80.5294 89.242 77.2002C89.242 73.8757 87.8924 70.8632 85.7148 68.6856ZM75.7377 69.129C75.7377 68.3217 76.393 67.6665 77.2002 67.6665C78.0075 67.6665 78.6627 68.3217 78.6627 69.129V75.7377H85.2726C86.0798 75.7377 86.7351 76.393 86.7351 77.2002C86.7351 78.0075 86.0798 78.6627 85.2726 78.6627H78.6627V85.2726C78.6627 86.0799 78.0075 86.7351 77.2002 86.7351C76.393 86.7351 75.7377 86.0799 75.7377 85.2726V78.6627H69.129C68.3217 78.6627 67.6665 78.0075 67.6665 77.2002C67.6665 76.393 68.3217 75.7377 69.129 75.7377H75.7377V69.129ZM51.0012 23.9638C60.186 23.9638 67.6319 31.411 67.6319 40.5958C67.6319 49.7725 60.1791 57.2254 51.0012 57.2254C41.8256 57.2254 34.3693 49.7725 34.3693 40.5958C34.3693 31.4098 41.8152 23.9638 51.0012 23.9638Z" fill="#414141"/>
</g>
</svg>
