<svg width="83" height="102" viewBox="0 0 83 102" fill="none" xmlns="http://www.w3.org/2000/svg">
<g opacity="0.2">
<path fill-rule="evenodd" clip-rule="evenodd" d="M12.7738 12.7746C26.4348 -0.886445 48.5822 -0.886445 62.2384 12.7746C75.1853 25.7203 75.8621 46.2804 64.2748 60.0221L71.8941 67.6402C74.3098 66.8117 77.1036 67.3584 79.0232 69.2756L97.376 87.6308C100.057 90.3102 100.057 94.6985 97.3772 97.3768C94.6977 100.057 90.3094 100.06 87.63 97.3768L69.276 79.0216C67.3588 77.1032 66.8133 74.3093 67.6431 71.8936L60.0213 64.2743C46.2821 75.8628 25.7207 75.1824 12.7738 62.2392C-0.886022 48.5817 -0.886022 26.4344 12.7738 12.7746ZM21.7719 43.5323C22.1453 44.5078 22.6029 45.4326 23.1291 46.2937C23.6614 47.1643 24.2852 47.9941 24.9789 48.766L20.2594 53.0146C19.3201 51.9693 18.4639 50.8241 17.7136 49.5993C16.973 48.3879 16.3408 47.1138 15.8362 45.7939L21.7719 43.5323ZM14.3068 37.5063C14.3068 31.1009 16.9044 25.2988 21.1012 21.102C25.2992 16.9052 31.1001 14.3076 37.5067 14.3076V20.666C32.8559 20.666 28.6434 22.5531 25.5979 25.5986C22.5523 28.6442 20.6664 32.8579 20.6664 37.5063H14.3068ZM37.5067 9.19433C53.1439 9.19433 65.8186 21.8691 65.8186 37.5063C65.8186 53.1435 53.1439 65.8194 37.5067 65.8194C21.8683 65.8194 9.19355 53.1435 9.19355 37.5063C9.19355 21.8691 21.8683 9.19433 37.5067 9.19433Z" fill="#414141"/>
</g>
</svg>
