<svg width="40" height="40" viewBox="0 0 40 40" fill="none" xmlns="http://www.w3.org/2000/svg">
<rect width="40" height="40" rx="10" fill="#25D366"/>
<path d="M30.2051 13.5678C26.615 8.03302 19.2852 6.38755 13.6009 9.82807C8.06614 13.2686 6.27108 20.748 9.86119 26.2827L10.1604 26.7315L8.96366 31.2191L13.4513 30.0224L13.9001 30.3216C15.8447 31.3687 17.9389 31.9671 20.0332 31.9671C22.277 31.9671 24.5208 31.3687 26.4654 30.172C32.0002 26.5819 33.6456 19.2521 30.2051 13.5678ZM27.0638 25.086C26.4654 25.9836 25.7175 26.5819 24.6704 26.7315C24.072 26.7315 23.3241 27.0307 20.3323 25.834C17.7893 24.6373 15.6951 22.6926 14.1992 20.4488C13.3017 19.4017 12.8529 18.0554 12.7034 16.7091C12.7034 15.5124 13.1521 14.4653 13.9001 13.7174C14.1992 13.4182 14.4984 13.2686 14.7976 13.2686H15.5455C15.8447 13.2686 16.1439 13.2686 16.2935 13.8669C16.5926 14.6149 17.0868 15.4602 17.3406 16.5595C17.3966 16.8024 17.4785 16.9368 17.4644 17.1857C17.4472 17.486 17.3657 17.6609 17.191 17.9058C17.0006 18.1726 16.9411 18.2559 16.7422 18.5042C16.5455 18.7497 16.2935 18.9529 16.4431 19.2521C17.0414 20.1496 17.7893 21.0472 18.5373 21.7951C19.4348 22.543 20.3323 23.1414 21.3794 23.5902C21.6786 23.7397 21.9778 23.7397 22.1274 23.4406C22.277 23.1414 23.0249 22.3934 23.3241 22.0943C23.6233 21.7951 23.7729 21.7951 24.072 21.9447L26.4654 23.1414C26.7646 23.291 27.0638 23.4406 27.2134 23.5902C27.363 24.0389 27.363 24.6373 27.0638 25.086Z" fill="white"/>
</svg>
